<svg width="424" height="407" viewBox="0 0 424 407" fill="none" xmlns="http://www.w3.org/2000/svg">
<path d="M210.476 407C326.718 407 420.951 400.362 420.951 392.173C420.951 383.985 326.718 377.346 210.476 377.346C94.2332 377.346 0 383.985 0 392.173C0 400.362 94.2332 407 210.476 407Z" fill="#070056"/>
<path d="M215.089 211.961H194.746L204.516 174.645H224.859L215.089 211.961Z" fill="white"/>
<path opacity="0.2" d="M201.661 185.542H222.004L224.859 174.645H204.516L201.661 185.542Z" fill="black"/>
<path d="M231.188 209.59H192.26V215.261H231.188V209.59Z" fill="#407BFF"/>
<path opacity="0.5" d="M231.188 209.59H192.26V215.261H231.188V209.59Z" fill="white"/>
<path opacity="0.6" d="M211.724 209.59H192.26V215.261H211.724V209.59Z" fill="white"/>
<path d="M382.024 166.537L374.935 68.7751L263.982 80.5762H152.171L39.5028 68.7751L37.3318 71.3946L44.4204 169.157L157.089 180.958H268.9L379.853 169.157L382.024 166.537Z" fill="#407BFF"/>
<path opacity="0.2" d="M382.024 166.537L374.935 68.7751L263.982 80.5762H152.171L39.5029 68.7751L46.5915 166.537L159.26 178.338H271.071L382.024 166.537Z" fill="white"/>
<path opacity="0.8" d="M371.987 73.0821L267.49 84.1129L274.008 174.013L378.505 162.983L371.987 73.0821Z" fill="white"/>
<path opacity="0.5" d="M287.104 93.2157C286.952 93.232 286.798 93.2119 286.652 93.1566C286.506 93.1013 286.37 93.0117 286.253 92.8932C286.135 92.7746 286.038 92.6293 285.967 92.4655C285.896 92.3017 285.853 92.1227 285.839 91.9386C285.826 91.7546 285.843 91.5691 285.888 91.3928C285.934 91.2165 286.008 91.0529 286.107 90.9112C286.205 90.7695 286.325 90.6525 286.461 90.567C286.597 90.4815 286.745 90.4291 286.898 90.4127L313.179 87.6229C313.331 87.6048 313.484 87.623 313.63 87.6764C313.776 87.7299 313.912 87.8174 314.03 87.9342C314.148 88.051 314.245 88.1946 314.317 88.3569C314.389 88.5193 314.434 88.6971 314.449 88.8803C314.464 89.0635 314.449 89.2484 314.405 89.4246C314.36 89.6007 314.288 89.7646 314.191 89.9069C314.094 90.0492 313.975 90.1671 313.841 90.2539C313.706 90.3407 313.559 90.3947 313.407 90.4127L287.104 93.2157Z" fill="#263238"/>
<g opacity="0.5">
<path opacity="0.5" d="M287.104 93.2157C286.952 93.232 286.798 93.2119 286.652 93.1566C286.506 93.1013 286.37 93.0117 286.253 92.8932C286.135 92.7746 286.038 92.6293 285.967 92.4655C285.896 92.3017 285.853 92.1227 285.839 91.9386C285.826 91.7546 285.843 91.5691 285.888 91.3928C285.934 91.2165 286.008 91.0529 286.107 90.9112C286.205 90.7695 286.325 90.6525 286.461 90.567C286.597 90.4815 286.745 90.4291 286.898 90.4127L313.179 87.6229C313.331 87.6048 313.484 87.623 313.63 87.6764C313.776 87.7299 313.912 87.8174 314.03 87.9342C314.148 88.051 314.245 88.1946 314.317 88.3569C314.389 88.5193 314.434 88.6971 314.449 88.8803C314.464 89.0635 314.449 89.2484 314.405 89.4246C314.36 89.6007 314.288 89.7646 314.191 89.9069C314.094 90.0492 313.975 90.1671 313.841 90.2539C313.706 90.3407 313.559 90.3947 313.407 90.4127L287.104 93.2157Z" fill="white"/>
</g>
<path opacity="0.5" d="M329.864 88.6707C329.711 88.6871 329.557 88.667 329.411 88.6117C329.265 88.5563 329.13 88.4668 329.012 88.3482C328.895 88.2296 328.798 88.0843 328.727 87.9205C328.656 87.7568 328.612 87.5777 328.599 87.3937C328.585 87.2097 328.602 87.0242 328.648 86.8479C328.694 86.6716 328.768 86.5079 328.866 86.3663C328.964 86.2246 329.085 86.1076 329.221 86.0221C329.356 85.9366 329.505 85.8841 329.657 85.8678L355.938 83.0779C356.237 83.0647 356.528 83.1905 356.751 83.4293C356.975 83.6681 357.113 84.0015 357.139 84.3605C357.164 84.7194 357.073 85.0762 356.886 85.3568C356.699 85.6375 356.43 85.8205 356.134 85.8678L329.864 88.6707Z" fill="#263238"/>
<g opacity="0.5">
<path opacity="0.5" d="M329.864 88.6707C329.711 88.6871 329.557 88.667 329.411 88.6117C329.265 88.5563 329.13 88.4668 329.012 88.3482C328.895 88.2296 328.798 88.0843 328.727 87.9205C328.656 87.7568 328.612 87.5777 328.599 87.3937C328.585 87.2097 328.602 87.0242 328.648 86.8479C328.694 86.6716 328.768 86.5079 328.866 86.3663C328.964 86.2246 329.085 86.1076 329.221 86.0221C329.356 85.9366 329.505 85.8841 329.657 85.8678L355.938 83.0779C356.237 83.0647 356.528 83.1905 356.751 83.4293C356.975 83.6681 357.113 84.0015 357.139 84.3605C357.164 84.7194 357.073 85.0762 356.886 85.3568C356.699 85.6375 356.43 85.8205 356.134 85.8678L329.864 88.6707Z" fill="white"/>
</g>
<path d="M302.258 127.952C309.637 127.562 315.354 119.975 315.029 111.007C314.703 102.038 308.457 95.0845 301.078 95.4748C293.698 95.8651 287.981 103.452 288.306 112.42C288.632 121.389 294.878 128.343 302.258 127.952Z" fill="#407BFF"/>
<g opacity="0.9">
<path d="M295.897 120.092L294.377 120.249C294.189 120.268 294.002 120.195 293.858 120.048C293.713 119.901 293.623 119.691 293.606 119.464L292.977 110.793C292.968 110.681 292.977 110.568 293.005 110.461C293.032 110.353 293.077 110.253 293.136 110.167C293.196 110.08 293.269 110.009 293.352 109.957C293.434 109.905 293.524 109.873 293.617 109.863L295.137 109.693C295.325 109.675 295.512 109.747 295.657 109.894C295.801 110.041 295.891 110.251 295.908 110.479L296.537 119.149C296.556 119.377 296.498 119.604 296.378 119.78C296.258 119.957 296.085 120.069 295.897 120.092Z" fill="white"/>
<path d="M297.884 109.051C298.861 107.885 301.314 104.585 301.303 101.035C301.305 100.654 301.407 100.283 301.597 99.9779C301.786 99.6724 302.051 99.4483 302.354 99.3383C302.656 99.2284 302.98 99.2384 303.277 99.367C303.575 99.4956 303.83 99.736 304.006 100.053C304.549 101.192 304.679 103.353 303.702 107.388L307.458 106.995C307.95 106.943 308.444 107.066 308.878 107.35C309.313 107.635 309.668 108.067 309.9 108.593C310.182 109.221 310.274 109.948 310.161 110.649L309.075 117.486C308.958 118.218 308.623 118.874 308.133 119.33C307.644 119.786 307.033 120.01 306.416 119.961L299.24 119.346C298.962 119.311 298.702 119.162 298.505 118.924C298.307 118.685 298.183 118.372 298.155 118.036L297.59 110.243C297.562 110.03 297.574 109.813 297.625 109.607C297.676 109.401 297.764 109.211 297.884 109.051Z" fill="white"/>
</g>
<path opacity="0.9" d="M345.032 123.384C352.411 122.993 358.128 115.405 357.8 106.436C357.473 97.4679 351.226 90.5152 343.847 90.9071C336.468 91.2989 330.751 98.8869 331.078 107.855C331.406 116.824 337.653 123.776 345.032 123.384Z" fill="white"/>
<path d="M337.528 100.092L336.008 100.249C335.914 100.259 335.822 100.291 335.738 100.344C335.654 100.397 335.58 100.469 335.519 100.557C335.459 100.645 335.413 100.746 335.385 100.855C335.357 100.964 335.347 101.079 335.356 101.192L335.986 109.85C335.993 109.963 336.018 110.074 336.061 110.176C336.103 110.278 336.162 110.368 336.234 110.443C336.305 110.517 336.388 110.573 336.478 110.609C336.568 110.644 336.663 110.658 336.757 110.649L338.277 110.479C338.371 110.469 338.462 110.436 338.546 110.384C338.63 110.331 338.704 110.258 338.765 110.171C338.826 110.083 338.871 109.982 338.899 109.873C338.927 109.764 338.937 109.649 338.928 109.536L338.298 100.878C338.291 100.765 338.266 100.654 338.223 100.553C338.181 100.452 338.122 100.362 338.05 100.289C337.978 100.216 337.895 100.161 337.805 100.127C337.716 100.093 337.621 100.081 337.528 100.092Z" fill="#407BFF"/>
<path d="M341.077 110.531C342.163 111.487 345.094 114.211 345.593 117.709C345.648 118.087 345.803 118.433 346.034 118.697C346.266 118.96 346.561 119.126 346.877 119.17C347.193 119.215 347.513 119.134 347.788 118.942C348.063 118.749 348.28 118.454 348.405 118.101C348.774 116.87 348.589 114.709 347.048 110.95L350.793 110.544C351.283 110.488 351.749 110.262 352.135 109.892C352.52 109.522 352.808 109.025 352.964 108.461C353.164 107.788 353.164 107.052 352.964 106.379L350.901 99.83C350.681 99.1332 350.257 98.5579 349.709 98.2129C349.161 97.8678 348.527 97.7768 347.927 97.957L340.947 100.079C340.666 100.165 340.42 100.369 340.252 100.655C340.085 100.941 340.008 101.289 340.035 101.638L340.6 109.418C340.606 109.634 340.652 109.846 340.735 110.039C340.817 110.231 340.934 110.399 341.077 110.531Z" fill="#407BFF"/>
<path d="M298.23 152.506L290.304 153.349L291.112 164.413L299.039 163.57L298.23 152.506Z" fill="#407BFF"/>
<path opacity="0.9" d="M306.336 154.072L298.409 154.916L299.042 163.566L306.968 162.723L306.336 154.072Z" fill="white"/>
<path opacity="0.9" d="M321.367 141.144L313.441 141.987L314.894 161.871L322.821 161.027L321.367 141.144Z" fill="white"/>
<path opacity="0.9" d="M337.055 137.09L329.129 137.934L330.756 160.192L338.682 159.349L337.055 137.09Z" fill="white"/>
<path opacity="0.9" d="M353.265 140.369L345.338 141.212L346.603 158.513L354.529 157.669L353.265 140.369Z" fill="white"/>
<path d="M313.578 143.774L305.652 144.617L306.974 162.714L314.901 161.87L313.578 143.774Z" fill="#407BFF"/>
<path d="M328.951 135.562L321.025 136.405L322.825 161.038L330.752 160.195L328.951 135.562Z" fill="#407BFF"/>
<path d="M345.147 138.619L337.22 139.463L338.674 159.346L346.6 158.503L345.147 138.619Z" fill="#407BFF"/>
<path d="M360.194 125.924L352.268 126.767L354.526 157.663L362.453 156.82L360.194 125.924Z" fill="#407BFF"/>
<path opacity="0.8" d="M43.0634 73.045L49.5875 162.948L155.688 174.068L149.175 84.165L43.0634 73.045Z" fill="white"/>
<path d="M118.845 114.67L61.9084 108.75C60.7125 108.573 59.5993 107.921 58.7443 106.896C57.8894 105.872 57.3412 104.533 57.1863 103.091L56.4699 93.1894C56.3994 92.5432 56.4537 91.8861 56.6284 91.2694C56.8032 90.6526 57.0936 90.093 57.4772 89.634C57.8607 89.175 58.3269 88.8292 58.8395 88.6235C59.3521 88.4177 59.8971 88.3577 60.4321 88.448L117.38 94.342C118.579 94.5039 119.698 95.1515 120.554 96.179C121.409 97.2066 121.951 98.5535 122.091 100L122.818 109.902C122.888 110.551 122.833 111.21 122.658 111.828C122.483 112.447 122.192 113.009 121.808 113.47C121.423 113.931 120.956 114.279 120.442 114.487C119.929 114.695 119.382 114.758 118.845 114.67Z" fill="white"/>
<path d="M71.331 99.5812C71.4116 100.354 71.3441 101.138 71.1336 101.874C70.923 102.611 70.5751 103.278 70.1166 103.826C69.6582 104.375 69.1015 104.788 68.4895 105.035C67.8776 105.283 67.2267 105.357 66.5871 105.253C65.1515 105.059 63.812 104.286 62.7856 103.06C61.7591 101.833 61.1058 100.224 60.9315 98.4941C60.8508 97.7198 60.9187 96.9335 61.1298 96.1958C61.3409 95.4582 61.6896 94.7889 62.1491 94.2397C62.6085 93.6904 63.1664 93.2758 63.7796 93.0278C64.3929 92.7799 65.0452 92.7052 65.6861 92.8096C67.1215 93.0067 68.4597 93.7825 69.4842 95.0114C70.5086 96.2403 71.1593 97.8505 71.331 99.5812Z" fill="#407BFF"/>
<path d="M77.9636 96.8175C77.6527 96.7736 77.3629 96.6053 77.1405 96.3394C76.9182 96.0735 76.7761 95.7253 76.7369 95.3506C76.7166 95.1761 76.7313 94.9983 76.7797 94.8322C76.8282 94.666 76.909 94.5163 77.0154 94.3956C77.1218 94.275 77.2506 94.1869 77.391 94.1388C77.5315 94.0908 77.6795 94.0841 77.8225 94.1194L112.723 97.7736C113.034 97.8153 113.325 97.9829 113.548 98.2492C113.771 98.5156 113.912 98.865 113.949 99.2406C113.97 99.415 113.955 99.5928 113.907 99.759C113.858 99.9251 113.777 100.075 113.671 100.196C113.565 100.316 113.436 100.404 113.295 100.452C113.155 100.5 113.007 100.507 112.864 100.472L77.9636 96.8175Z" fill="#263238"/>
<path d="M78.6692 106.562C78.3583 106.518 78.0685 106.35 77.8461 106.084C77.6238 105.818 77.4817 105.47 77.4425 105.095C77.4222 104.921 77.4369 104.743 77.4853 104.577C77.5338 104.411 77.6146 104.261 77.721 104.14C77.8273 104.02 77.9562 103.932 78.0966 103.884C78.2371 103.836 78.385 103.829 78.5281 103.864L98.9689 105.999C99.2805 106.041 99.5713 106.208 99.794 106.475C100.017 106.741 100.158 107.09 100.196 107.466C100.214 107.634 100.199 107.805 100.154 107.965C100.108 108.125 100.032 108.271 99.9326 108.39C99.8328 108.509 99.7115 108.599 99.5782 108.652C99.445 108.705 99.3033 108.721 99.1642 108.697L78.6692 106.562Z" fill="#263238"/>
<path d="M78.3219 101.69C78.0102 101.648 77.7194 101.481 77.4967 101.214C77.274 100.948 77.1325 100.599 77.0952 100.223C77.0748 100.049 77.0895 99.8707 77.138 99.7046C77.1864 99.5384 77.2672 99.3887 77.3736 99.268C77.48 99.1474 77.6088 99.0593 77.7493 99.0113C77.8897 98.9632 78.0377 98.9565 78.1807 98.9918L107.783 102.096C108.094 102.14 108.384 102.308 108.607 102.574C108.829 102.84 108.971 103.188 109.01 103.563C109.028 103.731 109.014 103.902 108.968 104.062C108.923 104.222 108.847 104.368 108.747 104.487C108.647 104.606 108.526 104.696 108.393 104.749C108.26 104.802 108.118 104.818 107.979 104.794L78.3219 101.69Z" fill="#263238"/>
<g opacity="0.5">
<path d="M77.9636 96.8175C77.6527 96.7736 77.3629 96.6053 77.1405 96.3394C76.9182 96.0735 76.7761 95.7253 76.7369 95.3506C76.7166 95.1761 76.7313 94.9983 76.7797 94.8322C76.8282 94.666 76.909 94.5163 77.0154 94.3956C77.1218 94.275 77.2506 94.1869 77.391 94.1388C77.5315 94.0908 77.6795 94.0841 77.8225 94.1194L112.723 97.7736C113.034 97.8153 113.325 97.9829 113.548 98.2492C113.771 98.5156 113.912 98.865 113.949 99.2406C113.97 99.415 113.955 99.5928 113.907 99.759C113.858 99.9251 113.777 100.075 113.671 100.196C113.565 100.316 113.436 100.404 113.295 100.452C113.155 100.5 113.007 100.507 112.864 100.472L77.9636 96.8175Z" fill="white"/>
<path d="M78.6692 106.562C78.3583 106.518 78.0685 106.35 77.8462 106.084C77.6238 105.818 77.4817 105.47 77.4426 105.095C77.4222 104.921 77.4369 104.743 77.4854 104.577C77.5338 104.411 77.6146 104.261 77.721 104.14C77.8274 104.02 77.9562 103.932 78.0967 103.884C78.2371 103.836 78.3851 103.829 78.5281 103.864L98.9689 105.999C99.2805 106.041 99.5713 106.208 99.794 106.475C100.017 106.741 100.158 107.09 100.196 107.466C100.214 107.634 100.199 107.805 100.154 107.965C100.108 108.125 100.032 108.271 99.9326 108.39C99.8328 108.509 99.7115 108.599 99.5783 108.652C99.445 108.705 99.3033 108.721 99.1643 108.697L78.6692 106.562Z" fill="white"/>
<path d="M78.3219 101.69C78.0102 101.648 77.7194 101.481 77.4967 101.214C77.274 100.948 77.1325 100.599 77.0952 100.223C77.0749 100.049 77.0896 99.8707 77.138 99.7046C77.1865 99.5384 77.2673 99.3887 77.3736 99.268C77.48 99.1474 77.6089 99.0593 77.7493 99.0113C77.8898 98.9632 78.0377 98.9565 78.1808 98.9918L107.783 102.096C108.094 102.14 108.384 102.308 108.607 102.574C108.829 102.84 108.971 103.188 109.01 103.563C109.028 103.731 109.014 103.902 108.968 104.062C108.923 104.222 108.847 104.368 108.747 104.487C108.647 104.606 108.526 104.696 108.393 104.749C108.26 104.802 108.118 104.818 107.979 104.794L78.3219 101.69Z" fill="white"/>
</g>
<path d="M121.819 84.9771L115.165 84.3615C114.961 84.3337 114.754 84.3623 114.56 84.445C114.367 84.5278 114.191 84.6625 114.047 84.8391C113.903 85.0157 113.793 85.2295 113.728 85.4644C113.662 85.6993 113.641 85.9492 113.667 86.1952L114.21 92.8882C114.272 93.4366 114.484 93.9443 114.813 94.331C115.141 94.7177 115.567 94.9612 116.023 95.0231L117.955 95.2065L118.899 96.8437C118.956 96.9707 119.039 97.0782 119.14 97.1561C119.24 97.2339 119.356 97.2795 119.475 97.2887C119.595 97.2979 119.714 97.2703 119.822 97.2085C119.93 97.1466 120.024 97.0527 120.093 96.9354L120.767 95.4422L122.688 95.6256C122.893 95.656 123.1 95.6293 123.295 95.5475C123.49 95.4657 123.666 95.331 123.811 95.1538C123.956 94.9766 124.065 94.7616 124.13 94.5255C124.195 94.2894 124.214 94.0384 124.186 93.7919L123.643 87.112C123.58 86.5616 123.367 86.0524 123.036 85.6655C122.706 85.2786 122.277 85.0362 121.819 84.9771Z" fill="#407BFF"/>
<g opacity="0.9">
<path d="M116.696 90.4127C116.215 89.9003 115.9 89.2 115.806 88.4349C115.76 88.2148 115.763 87.9841 115.814 87.7656C115.864 87.5471 115.961 87.3482 116.095 87.1885C116.228 87.0287 116.394 86.9135 116.575 86.8542C116.757 86.7949 116.948 86.7935 117.13 86.8501C117.955 86.9418 118.216 87.4133 118.791 88.1599C119.225 87.5574 119.464 87.1382 120.289 87.2168C120.696 87.2474 121.08 87.4556 121.37 87.8026C121.66 88.1495 121.835 88.6117 121.863 89.1029C121.884 89.4454 121.839 89.7892 121.732 90.1073C121.624 90.4254 121.458 90.7092 121.244 90.9366L119.171 93.399L116.696 90.4127Z" fill="white"/>
</g>
<path d="M134.412 140.106L77.4643 134.133C76.264 133.969 75.1448 133.322 74.2877 132.295C73.4307 131.268 72.8861 129.922 72.7421 128.475L72.0257 118.586C71.9576 117.939 72.0137 117.281 72.1898 116.664C72.3659 116.047 72.6572 115.487 73.0412 115.028C73.4252 114.568 73.8917 114.221 74.4045 114.014C74.9173 113.806 75.4628 113.744 75.9988 113.832L132.935 119.804C134.135 119.965 135.254 120.61 136.111 121.635C136.968 122.66 137.513 124.004 137.658 125.449L138.374 135.351C138.444 135.998 138.39 136.655 138.215 137.273C138.04 137.89 137.75 138.45 137.367 138.91C136.983 139.37 136.517 139.717 136.005 139.924C135.493 140.132 134.947 140.194 134.412 140.106Z" fill="white"/>
<path d="M86.8759 125.043C86.9584 125.817 86.8922 126.603 86.6825 127.341C86.4728 128.079 86.1251 128.748 85.6664 129.298C85.2078 129.847 84.6504 130.262 84.0375 130.51C83.4246 130.758 82.7726 130.833 82.1321 130.728C80.6967 130.531 79.3585 129.755 78.3341 128.526C77.3096 127.297 76.6589 125.687 76.4873 123.956C76.4066 123.184 76.4741 122.399 76.6847 121.663C76.8952 120.927 77.2431 120.259 77.7016 119.711C78.16 119.163 78.7167 118.749 79.3287 118.502C79.9407 118.255 80.5915 118.18 81.2311 118.285C82.6662 118.477 84.0053 119.249 85.0303 120.476C86.0552 121.704 86.7057 123.313 86.8759 125.043Z" fill="#407BFF"/>
<path d="M93.5303 122.254C93.2193 122.21 92.9295 122.041 92.7072 121.775C92.4848 121.509 92.3428 121.161 92.3036 120.787C92.2833 120.612 92.2979 120.434 92.3464 120.268C92.3949 120.102 92.4757 119.952 92.582 119.832C92.6884 119.711 92.8172 119.623 92.9577 119.575C93.0981 119.527 93.2461 119.52 93.3892 119.555L128.235 123.157C128.546 123.201 128.836 123.37 129.058 123.635C129.28 123.901 129.423 124.249 129.462 124.624C129.482 124.799 129.467 124.976 129.419 125.143C129.37 125.309 129.29 125.459 129.183 125.579C129.077 125.7 128.948 125.788 128.808 125.836C128.667 125.884 128.519 125.891 128.376 125.855L93.5303 122.254Z" fill="#263238"/>
<path d="M94.2359 131.998C93.924 131.952 93.634 131.781 93.4118 131.512C93.1896 131.244 93.0479 130.894 93.0092 130.518C92.9933 130.351 93.0092 130.181 93.0556 130.022C93.102 129.863 93.1776 129.719 93.277 129.6C93.3763 129.482 93.4966 129.392 93.6288 129.338C93.7611 129.283 93.9018 129.266 94.0405 129.287L114.481 131.435C114.793 131.477 115.084 131.644 115.306 131.911C115.529 132.177 115.671 132.526 115.708 132.902C115.726 133.07 115.712 133.241 115.666 133.401C115.62 133.561 115.545 133.707 115.445 133.826C115.345 133.945 115.224 134.035 115.091 134.088C114.957 134.141 114.816 134.157 114.677 134.133L94.2359 131.998Z" fill="#263238"/>
<path d="M93.8885 127.087C93.5769 127.045 93.2861 126.877 93.0633 126.611C92.8406 126.345 92.6991 125.995 92.6619 125.62C92.6438 125.452 92.6581 125.281 92.7037 125.121C92.7493 124.96 92.8249 124.815 92.9248 124.696C93.0246 124.577 93.1458 124.487 93.2791 124.434C93.4124 124.38 93.5541 124.365 93.6931 124.388L123.296 127.48C123.606 127.524 123.894 127.693 124.114 127.959C124.335 128.225 124.475 128.573 124.512 128.946C124.541 129.119 124.535 129.298 124.495 129.467C124.456 129.637 124.383 129.792 124.283 129.92C124.183 130.049 124.059 130.146 123.921 130.205C123.783 130.263 123.636 130.281 123.491 130.256L93.8885 127.087Z" fill="#263238"/>
<g opacity="0.5">
<path d="M93.5303 122.254C93.2193 122.21 92.9295 122.041 92.7072 121.775C92.4848 121.509 92.3428 121.161 92.3036 120.787C92.2833 120.612 92.2979 120.434 92.3464 120.268C92.3949 120.102 92.4757 119.952 92.582 119.832C92.6884 119.711 92.8172 119.623 92.9577 119.575C93.0981 119.527 93.2461 119.52 93.3892 119.555L128.235 123.157C128.546 123.201 128.836 123.37 129.058 123.635C129.28 123.901 129.423 124.249 129.462 124.624C129.482 124.799 129.467 124.976 129.419 125.143C129.37 125.309 129.29 125.459 129.183 125.579C129.077 125.7 128.948 125.788 128.808 125.836C128.667 125.884 128.519 125.891 128.376 125.855L93.5303 122.254Z" fill="white"/>
<path d="M94.2359 131.998C93.924 131.951 93.634 131.781 93.4118 131.512C93.1896 131.244 93.0479 130.894 93.0092 130.518C92.9933 130.351 93.0092 130.181 93.0556 130.022C93.1019 129.863 93.1776 129.719 93.2769 129.6C93.3762 129.482 93.4966 129.392 93.6288 129.338C93.7611 129.283 93.9018 129.266 94.0405 129.287L114.481 131.435C114.793 131.477 115.084 131.644 115.306 131.911C115.529 132.177 115.671 132.526 115.708 132.902C115.726 133.07 115.712 133.241 115.666 133.401C115.62 133.561 115.545 133.707 115.445 133.826C115.345 133.945 115.224 134.035 115.091 134.088C114.957 134.141 114.816 134.157 114.677 134.133L94.2359 131.998Z" fill="white"/>
<path d="M93.8885 127.087C93.5769 127.045 93.2861 126.877 93.0633 126.611C92.8406 126.345 92.6991 125.995 92.6619 125.62C92.6438 125.452 92.6581 125.281 92.7037 125.121C92.7493 124.96 92.8249 124.815 92.9248 124.696C93.0246 124.577 93.1458 124.487 93.2791 124.434C93.4124 124.38 93.5541 124.365 93.6931 124.388L123.296 127.479C123.606 127.524 123.894 127.693 124.114 127.959C124.335 128.225 124.475 128.573 124.512 128.946C124.541 129.119 124.535 129.298 124.495 129.467C124.456 129.636 124.383 129.792 124.283 129.92C124.183 130.049 124.059 130.146 123.921 130.205C123.783 130.263 123.636 130.281 123.491 130.256L93.8885 127.087Z" fill="white"/>
</g>
<path d="M137.386 110.413L130.732 109.797C130.527 109.767 130.319 109.794 130.125 109.876C129.93 109.957 129.753 110.092 129.609 110.269C129.464 110.446 129.355 110.661 129.29 110.898C129.225 111.134 129.206 111.385 129.234 111.631L129.777 118.311C129.835 118.863 130.045 119.375 130.374 119.764C130.703 120.154 131.131 120.399 131.589 120.459L133.522 120.642L134.466 122.267C134.52 122.395 134.601 122.503 134.701 122.583C134.8 122.662 134.914 122.709 135.033 122.72C135.152 122.73 135.271 122.704 135.379 122.643C135.487 122.582 135.58 122.488 135.649 122.371L136.333 120.865L138.244 121.049C138.446 121.074 138.65 121.044 138.841 120.961C139.032 120.878 139.205 120.744 139.347 120.569C139.489 120.394 139.596 120.182 139.661 119.95C139.726 119.718 139.746 119.471 139.72 119.228L139.166 112.561C139.113 112.014 138.909 111.504 138.586 111.114C138.263 110.724 137.84 110.477 137.386 110.413Z" fill="#407BFF"/>
<g opacity="0.9">
<path d="M132.262 115.836C131.776 115.324 131.46 114.616 131.372 113.845C131.329 113.625 131.334 113.396 131.385 113.18C131.437 112.963 131.534 112.766 131.667 112.608C131.8 112.45 131.965 112.336 132.145 112.278C132.326 112.219 132.516 112.217 132.697 112.273C133.511 112.352 133.782 112.836 134.358 113.583C134.781 112.98 135.031 112.548 135.845 112.64C136.255 112.664 136.643 112.87 136.935 113.218C137.227 113.566 137.403 114.031 137.43 114.526C137.447 114.866 137.4 115.206 137.293 115.521C137.185 115.837 137.021 116.119 136.811 116.346L134.737 118.822L132.262 115.836Z" fill="white"/>
</g>
<path d="M126.976 164.743L70.0283 158.77C68.8274 158.609 67.7071 157.962 66.8497 156.934C65.9923 155.907 65.4483 154.56 65.3062 153.112L64.5897 143.223C64.5197 142.576 64.5742 141.919 64.7489 141.302C64.9236 140.685 65.2138 140.124 65.5971 139.664C65.9804 139.205 66.4463 138.857 66.9587 138.65C67.4712 138.443 68.0164 138.381 68.552 138.469L125.499 144.441C126.7 144.603 127.821 145.25 128.678 146.277C129.536 147.304 130.08 148.652 130.222 150.099L130.938 159.988C131.008 160.635 130.954 161.292 130.779 161.91C130.604 162.527 130.314 163.087 129.931 163.547C129.547 164.007 129.081 164.354 128.569 164.561C128.057 164.769 127.511 164.831 126.976 164.743Z" fill="white"/>
<path d="M79.44 149.68C79.5225 150.454 79.4563 151.24 79.2466 151.978C79.0368 152.716 78.6892 153.385 78.2305 153.935C77.7718 154.484 77.2145 154.899 76.6016 155.147C75.9887 155.395 75.3367 155.47 74.6961 155.365C73.2608 155.168 71.9225 154.392 70.8981 153.163C69.8736 151.934 69.2229 150.324 69.0513 148.593C68.9706 147.821 69.0382 147.036 69.2487 146.3C69.4593 145.564 69.8072 144.896 70.2656 144.348C70.7241 143.8 71.2808 143.386 71.8927 143.139C72.5047 142.892 73.1556 142.817 73.7951 142.922C75.2289 143.118 76.5658 143.892 77.5901 145.119C78.6143 146.345 79.2661 147.952 79.44 149.68Z" fill="#407BFF"/>
<path d="M86.0943 146.89C85.7827 146.849 85.4919 146.681 85.2692 146.415C85.0465 146.149 84.905 145.799 84.8677 145.424C84.8496 145.255 84.8639 145.085 84.9095 144.924C84.9551 144.764 85.0308 144.619 85.1306 144.5C85.2304 144.381 85.3517 144.291 85.4849 144.237C85.6182 144.184 85.7599 144.169 85.8989 144.192L120.799 147.847C121.115 147.892 121.409 148.066 121.631 148.34C121.854 148.614 121.994 148.971 122.026 149.353C122.044 149.521 122.03 149.692 121.984 149.852C121.938 150.012 121.863 150.157 121.763 150.277C121.663 150.396 121.542 150.486 121.409 150.539C121.275 150.592 121.134 150.608 120.995 150.584L86.0943 146.89Z" fill="#263238"/>
<path d="M86.7999 156.635C86.489 156.591 86.1992 156.423 85.9768 156.157C85.7545 155.891 85.6124 155.543 85.5732 155.168C85.5556 155 85.5701 154.829 85.6157 154.668C85.6612 154.507 85.7367 154.361 85.8362 154.241C85.9357 154.121 86.0567 154.03 86.1899 153.975C86.323 153.92 86.4649 153.903 86.6045 153.924L114.753 156.871C115.064 156.915 115.353 157.083 115.576 157.349C115.798 157.615 115.94 157.963 115.979 158.338C116 158.512 115.985 158.69 115.936 158.856C115.888 159.023 115.807 159.172 115.701 159.293C115.594 159.414 115.466 159.502 115.325 159.55C115.185 159.598 115.037 159.604 114.894 159.569L86.7999 156.635Z" fill="#263238"/>
<path d="M86.4417 151.763C86.1307 151.719 85.841 151.551 85.6186 151.285C85.3963 151.019 85.2542 150.671 85.215 150.296C85.1947 150.121 85.2094 149.944 85.2578 149.778C85.3063 149.611 85.3871 149.462 85.4935 149.341C85.5998 149.22 85.7287 149.132 85.8691 149.084C86.0096 149.036 86.1575 149.029 86.3006 149.065L111.529 151.684C111.839 151.73 112.128 151.899 112.35 152.165C112.572 152.43 112.714 152.777 112.755 153.151C112.785 153.331 112.777 153.517 112.733 153.692C112.689 153.867 112.61 154.027 112.503 154.157C112.395 154.286 112.263 154.382 112.118 154.435C111.973 154.488 111.819 154.497 111.67 154.461L86.4417 151.763Z" fill="#263238"/>
<g opacity="0.5">
<path d="M86.0943 146.89C85.7827 146.849 85.4919 146.681 85.2692 146.415C85.0465 146.149 84.905 145.799 84.8677 145.424C84.8496 145.255 84.8639 145.085 84.9095 144.924C84.9551 144.764 85.0308 144.619 85.1306 144.5C85.2304 144.381 85.3517 144.291 85.4849 144.237C85.6182 144.184 85.7599 144.169 85.8989 144.192L120.799 147.847C121.115 147.892 121.409 148.066 121.631 148.34C121.854 148.614 121.994 148.971 122.026 149.353C122.044 149.521 122.03 149.692 121.984 149.852C121.938 150.012 121.863 150.157 121.763 150.277C121.663 150.396 121.542 150.486 121.409 150.539C121.275 150.592 121.134 150.608 120.995 150.584L86.0943 146.89Z" fill="white"/>
<path d="M86.7999 156.635C86.489 156.591 86.1992 156.423 85.9768 156.157C85.7545 155.891 85.6124 155.543 85.5732 155.168C85.5556 155 85.5701 154.829 85.6157 154.668C85.6612 154.507 85.7367 154.361 85.8362 154.241C85.9357 154.121 86.0567 154.03 86.1899 153.975C86.323 153.92 86.4649 153.903 86.6045 153.924L114.753 156.871C115.064 156.915 115.353 157.083 115.576 157.349C115.798 157.615 115.94 157.963 115.979 158.338C116 158.512 115.985 158.69 115.936 158.856C115.888 159.023 115.807 159.172 115.701 159.293C115.594 159.414 115.466 159.502 115.325 159.55C115.185 159.598 115.037 159.604 114.894 159.569L86.7999 156.635Z" fill="white"/>
<path d="M86.4417 151.763C86.1307 151.719 85.8409 151.551 85.6186 151.285C85.3962 151.019 85.2541 150.671 85.215 150.296C85.1947 150.121 85.2094 149.944 85.2578 149.778C85.3063 149.611 85.3871 149.462 85.4934 149.341C85.5998 149.22 85.7286 149.132 85.8691 149.084C86.0095 149.036 86.1575 149.029 86.3005 149.065L111.529 151.684C111.839 151.73 112.128 151.899 112.35 152.165C112.572 152.43 112.714 152.777 112.755 153.151C112.785 153.331 112.777 153.517 112.733 153.692C112.689 153.867 112.61 154.027 112.503 154.157C112.395 154.286 112.263 154.382 112.118 154.435C111.973 154.488 111.819 154.497 111.67 154.461L86.4417 151.763Z" fill="white"/>
</g>
<path d="M130.135 137.683L123.48 137.08C123.276 137.05 123.068 137.077 122.873 137.158C122.678 137.24 122.502 137.375 122.357 137.552C122.212 137.729 122.103 137.944 122.038 138.18C121.973 138.416 121.954 138.667 121.982 138.914L122.525 145.594C122.582 146.145 122.792 146.656 123.122 147.044C123.451 147.432 123.88 147.674 124.338 147.729L126.27 147.912L127.215 149.549C127.272 149.674 127.355 149.78 127.455 149.857C127.555 149.934 127.67 149.98 127.788 149.99C127.907 150.001 128.025 149.975 128.134 149.917C128.242 149.858 128.336 149.768 128.409 149.654L129.082 148.148L131.003 148.331C131.208 148.362 131.416 148.335 131.61 148.253C131.805 148.171 131.982 148.037 132.126 147.859C132.271 147.682 132.38 147.467 132.445 147.231C132.51 146.995 132.529 146.744 132.501 146.498L131.958 139.831C131.896 139.279 131.683 138.768 131.352 138.379C131.022 137.99 130.594 137.745 130.135 137.683Z" fill="#407BFF"/>
<path opacity="0.9" d="M125.054 145.175C124.92 145.158 124.794 145.087 124.697 144.973C124.601 144.858 124.539 144.708 124.523 144.546L124.36 142.293C124.353 142.221 124.359 142.147 124.379 142.078C124.399 142.009 124.432 141.946 124.475 141.895C124.517 141.843 124.569 141.804 124.627 141.78C124.684 141.756 124.745 141.748 124.805 141.756C124.941 141.775 125.069 141.848 125.167 141.965C125.266 142.081 125.329 142.233 125.348 142.398L125.51 144.638C125.518 144.711 125.511 144.786 125.49 144.856C125.47 144.926 125.436 144.99 125.392 145.042C125.348 145.094 125.295 145.133 125.236 145.156C125.178 145.179 125.115 145.185 125.054 145.175Z" fill="white"/>
<path opacity="0.9" d="M125.977 141.756C126.298 141.486 126.568 141.136 126.766 140.729C126.965 140.322 127.088 139.868 127.128 139.398C127.128 138.835 127.79 138.731 128.04 139.268C128.253 140.041 128.214 140.884 127.931 141.625L129.19 141.756C129.362 141.785 129.526 141.863 129.667 141.984C129.809 142.105 129.925 142.265 130.004 142.45C130.102 142.657 130.133 142.899 130.091 143.131L129.722 145.279C129.701 145.393 129.661 145.5 129.603 145.594C129.546 145.688 129.473 145.766 129.39 145.824C129.306 145.882 129.213 145.918 129.117 145.93C129.021 145.943 128.924 145.931 128.832 145.895L126.422 145.201C126.325 145.17 126.238 145.105 126.172 145.014C126.107 144.923 126.065 144.81 126.053 144.69L125.869 142.07C125.87 141.953 125.909 141.84 125.977 141.756Z" fill="white"/>
<path opacity="0.8" d="M155.71 84.5056L162.234 174.409H267.532L261.008 84.5056H155.71Z" fill="white"/>
<g opacity="0.2">
<path d="M158.945 173.99C158.724 173.982 158.512 173.879 158.348 173.699C158.185 173.518 158.081 173.273 158.055 173.008L156.003 144.703C155.992 144.578 156.004 144.451 156.037 144.331C156.07 144.211 156.123 144.101 156.194 144.008C156.265 143.915 156.351 143.842 156.448 143.792C156.544 143.743 156.648 143.718 156.752 143.721C156.974 143.723 157.187 143.825 157.349 144.007C157.512 144.188 157.613 144.437 157.632 144.703L159.683 173.008C159.694 173.132 159.683 173.258 159.65 173.377C159.618 173.495 159.565 173.605 159.496 173.697C159.426 173.79 159.341 173.864 159.246 173.914C159.151 173.965 159.049 173.991 158.945 173.99Z" fill="black"/>
</g>
<g opacity="0.2">
<path d="M156.513 140.446C156.291 140.442 156.078 140.339 155.914 140.158C155.751 139.977 155.647 139.73 155.623 139.464L152.747 99.293C152.736 99.1686 152.747 99.0429 152.779 98.924C152.812 98.8051 152.864 98.6958 152.934 98.6031C153.004 98.5104 153.089 98.4365 153.184 98.3861C153.278 98.3357 153.381 98.31 153.485 98.3107C153.707 98.3156 153.92 98.418 154.084 98.5989C154.248 98.7798 154.351 99.0266 154.375 99.293L157.284 139.464C157.295 139.592 157.283 139.721 157.249 139.843C157.215 139.964 157.159 140.076 157.086 140.169C157.013 140.262 156.924 140.336 156.825 140.383C156.726 140.431 156.62 140.453 156.513 140.446Z" fill="black"/>
</g>
<g opacity="0.2">
<path d="M153.235 95.2589C153.014 95.2513 152.802 95.1479 152.639 94.9676C152.475 94.7872 152.371 94.542 152.345 94.2766L151.748 85.9071C151.735 85.7822 151.745 85.6556 151.777 85.5358C151.809 85.416 151.861 85.3058 151.931 85.2126C152.001 85.1195 152.087 85.0456 152.183 84.9959C152.278 84.9462 152.382 84.922 152.486 84.9247C152.708 84.9296 152.921 85.0321 153.085 85.2129C153.249 85.3938 153.352 85.6406 153.376 85.9071L153.973 94.2766C153.984 94.401 153.973 94.5268 153.94 94.6456C153.908 94.7645 153.855 94.8739 153.786 94.9665C153.716 95.0592 153.631 95.1331 153.536 95.1835C153.441 95.2339 153.339 95.2596 153.235 95.2589Z" fill="black"/>
</g>
<g opacity="0.2">
<path d="M270.756 173.99C270.534 173.985 270.321 173.883 270.157 173.702C269.993 173.521 269.89 173.274 269.866 173.008L266.881 131.815C266.87 131.689 266.881 131.562 266.914 131.443C266.947 131.323 267.001 131.213 267.072 131.12C267.142 131.027 267.229 130.953 267.325 130.904C267.421 130.854 267.525 130.83 267.63 130.833C267.85 130.841 268.06 130.944 268.222 131.125C268.383 131.306 268.485 131.551 268.509 131.815L271.494 173.008C271.505 173.132 271.494 173.258 271.461 173.377C271.429 173.495 271.376 173.605 271.307 173.697C271.237 173.79 271.152 173.864 271.057 173.914C270.962 173.965 270.86 173.991 270.756 173.99Z" fill="black"/>
</g>
<g opacity="0.2">
<path d="M267.423 128.003C267.201 127.999 266.988 127.896 266.824 127.715C266.66 127.534 266.557 127.288 266.533 127.021L264.21 94.9315C264.198 94.8066 264.207 94.68 264.239 94.5602C264.271 94.4404 264.323 94.3302 264.393 94.237C264.463 94.1439 264.549 94.07 264.645 94.0203C264.74 93.9706 264.844 93.9463 264.948 93.9491C265.171 93.9511 265.385 94.0526 265.55 94.234C265.714 94.4155 265.817 94.6639 265.838 94.9315L268.161 127.021C268.172 127.146 268.161 127.271 268.129 127.39C268.096 127.509 268.044 127.618 267.974 127.711C267.904 127.804 267.819 127.878 267.724 127.928C267.63 127.978 267.527 128.004 267.423 128.003Z" fill="black"/>
</g>
<g opacity="0.2">
<path d="M264.666 90.0853C264.444 90.083 264.231 89.981 264.069 89.7993C263.906 89.6177 263.806 89.3693 263.787 89.1029L263.548 85.907C263.537 85.7815 263.549 85.6546 263.581 85.5348C263.614 85.415 263.668 85.305 263.739 85.2122C263.81 85.1193 263.896 85.0456 263.992 84.9961C264.088 84.9465 264.192 84.9222 264.297 84.9247C264.518 84.927 264.731 85.029 264.894 85.2106C265.057 85.3923 265.157 85.6406 265.176 85.907L265.415 89.1029C265.426 89.2285 265.414 89.3553 265.381 89.4751C265.348 89.5949 265.295 89.7049 265.224 89.7978C265.153 89.8907 265.067 89.9643 264.971 90.0139C264.874 90.0635 264.771 90.0878 264.666 90.0853Z" fill="black"/>
</g>
<path d="M248.73 124.087C248.72 123.919 248.738 123.749 248.785 123.59C248.832 123.43 248.905 123.284 249.001 123.161C249.097 123.038 249.213 122.94 249.342 122.874C249.471 122.808 249.61 122.775 249.751 122.777C250.05 122.781 250.339 122.916 250.562 123.157C250.786 123.398 250.93 123.728 250.966 124.087L252.258 141.848C252.269 142.016 252.25 142.186 252.203 142.345C252.157 142.505 252.083 142.651 251.987 142.774C251.891 142.897 251.775 142.995 251.646 143.061C251.517 143.127 251.378 143.16 251.238 143.158C250.938 143.154 250.65 143.019 250.426 142.778C250.202 142.537 250.059 142.207 250.022 141.848L248.73 124.087Z" fill="#407BFF"/>
<path d="M163.602 92.063C163.302 92.0594 163.014 91.9246 162.79 91.6837C162.567 91.4428 162.423 91.1122 162.386 90.7532C162.376 90.5846 162.394 90.4152 162.441 90.2557C162.488 90.0963 162.561 89.9503 162.657 89.8271C162.753 89.7039 162.869 89.6062 162.998 89.5401C163.127 89.474 163.266 89.4411 163.407 89.4434H188.982C189.282 89.447 189.57 89.5818 189.794 89.8227C190.017 90.0636 190.161 90.3942 190.198 90.7532C190.208 90.9218 190.19 91.0912 190.143 91.2507C190.096 91.4101 190.023 91.5561 189.927 91.6793C189.831 91.8025 189.715 91.9002 189.586 91.9663C189.457 92.0323 189.318 92.0653 189.177 92.063H163.602Z" fill="#263238"/>
<path d="M164.34 101.808C164.04 101.804 163.752 101.669 163.528 101.429C163.305 101.188 163.161 100.857 163.124 100.498C163.114 100.329 163.132 100.16 163.179 100.001C163.226 99.8411 163.299 99.6952 163.395 99.572C163.491 99.4488 163.608 99.351 163.737 99.2849C163.866 99.2189 164.005 99.186 164.145 99.1883H185.378C185.678 99.1919 185.966 99.3266 186.19 99.5675C186.413 99.8084 186.557 100.139 186.594 100.498C186.604 100.667 186.586 100.836 186.539 100.996C186.492 101.155 186.419 101.301 186.323 101.424C186.227 101.547 186.11 101.645 185.981 101.711C185.852 101.777 185.713 101.81 185.573 101.808H164.34Z" fill="#263238"/>
<path d="M163.982 96.9616C163.682 96.958 163.394 96.8232 163.17 96.5823C162.947 96.3414 162.803 96.0107 162.766 95.6518C162.756 95.4832 162.774 95.3138 162.821 95.1543C162.868 94.9949 162.941 94.8489 163.037 94.7257C163.133 94.6025 163.249 94.5048 163.378 94.4387C163.507 94.3726 163.646 94.3397 163.787 94.342H180.688C180.988 94.3456 181.277 94.4804 181.5 94.7213C181.724 94.9622 181.867 95.2928 181.904 95.6518C181.915 95.8204 181.896 95.9898 181.85 96.1492C181.803 96.3087 181.729 96.4547 181.633 96.5779C181.537 96.7011 181.421 96.7988 181.292 96.8649C181.163 96.9309 181.024 96.9639 180.884 96.9616H163.982Z" fill="#263238"/>
<g opacity="0.5">
<path d="M163.602 92.063C163.302 92.0594 163.014 91.9246 162.79 91.6837C162.567 91.4428 162.423 91.1122 162.386 90.7532C162.376 90.5846 162.394 90.4152 162.441 90.2557C162.488 90.0963 162.561 89.9503 162.657 89.8271C162.753 89.7039 162.869 89.6062 162.998 89.5401C163.127 89.474 163.266 89.4411 163.407 89.4434H188.982C189.282 89.447 189.57 89.5818 189.794 89.8227C190.017 90.0636 190.161 90.3942 190.198 90.7532C190.208 90.9218 190.19 91.0912 190.143 91.2507C190.096 91.4101 190.023 91.5561 189.927 91.6793C189.831 91.8025 189.715 91.9002 189.586 91.9663C189.457 92.0323 189.318 92.0653 189.177 92.063H163.602Z" fill="white"/>
<path d="M164.34 101.808C164.04 101.804 163.752 101.669 163.528 101.429C163.305 101.188 163.161 100.857 163.124 100.498C163.114 100.329 163.132 100.16 163.179 100.001C163.226 99.8411 163.299 99.6951 163.395 99.5719C163.491 99.4487 163.608 99.351 163.737 99.2849C163.866 99.2189 164.005 99.1859 164.145 99.1882H185.378C185.678 99.1918 185.966 99.3266 186.19 99.5675C186.413 99.8084 186.557 100.139 186.594 100.498C186.604 100.667 186.586 100.836 186.539 100.995C186.492 101.155 186.419 101.301 186.323 101.424C186.227 101.547 186.111 101.645 185.981 101.711C185.852 101.777 185.714 101.81 185.573 101.808H164.34Z" fill="white"/>
<path d="M163.982 96.9616C163.682 96.958 163.394 96.8232 163.17 96.5823C162.946 96.3414 162.803 96.0107 162.766 95.6518C162.756 95.4832 162.774 95.3138 162.821 95.1543C162.868 94.9949 162.941 94.8489 163.037 94.7257C163.133 94.6025 163.249 94.5048 163.378 94.4387C163.507 94.3726 163.646 94.3397 163.787 94.342H180.688C180.988 94.3456 181.277 94.4804 181.5 94.7213C181.724 94.9622 181.867 95.2928 181.904 95.6518C181.915 95.8204 181.896 95.9898 181.849 96.1492C181.803 96.3087 181.729 96.4547 181.633 96.5779C181.537 96.7011 181.421 96.7988 181.292 96.8649C181.163 96.9309 181.024 96.9639 180.884 96.9616H163.982Z" fill="white"/>
</g>
<path d="M254.842 113.019C254.922 113.909 254.844 114.809 254.614 115.659C254.384 116.509 254.006 117.291 253.506 117.951C253.006 118.612 252.395 119.136 251.713 119.489C251.032 119.843 250.297 120.017 249.555 120.001C247.979 119.969 246.468 119.24 245.308 117.954C244.147 116.667 243.418 114.911 243.259 113.019C243.177 112.129 243.253 111.228 243.483 110.376C243.713 109.524 244.09 108.741 244.591 108.079C245.091 107.417 245.702 106.891 246.385 106.537C247.067 106.183 247.803 106.009 248.546 106.025C250.118 106.077 251.622 106.814 252.779 108.1C253.937 109.385 254.669 111.133 254.842 113.019Z" fill="#407BFF"/>
<path d="M246.201 116.346C246.026 116.347 245.857 116.268 245.728 116.124C245.599 115.981 245.52 115.784 245.506 115.574L245.289 112.64C245.28 112.541 245.288 112.441 245.313 112.347C245.339 112.252 245.381 112.165 245.436 112.092C245.492 112.019 245.56 111.961 245.636 111.922C245.711 111.883 245.793 111.864 245.875 111.867C246.049 111.872 246.215 111.953 246.343 112.096C246.471 112.238 246.552 112.431 246.57 112.64L246.776 115.574C246.785 115.671 246.777 115.77 246.753 115.863C246.728 115.957 246.687 116.043 246.633 116.116C246.578 116.189 246.512 116.247 246.437 116.287C246.363 116.327 246.282 116.347 246.201 116.346Z" fill="white"/>
<path d="M247.395 111.71C248.229 110.897 248.763 109.72 248.882 108.435C248.894 108.272 248.95 108.118 249.04 107.996C249.131 107.874 249.252 107.791 249.385 107.759C249.518 107.726 249.656 107.746 249.779 107.817C249.901 107.887 250.002 108.002 250.065 108.147C250.345 109.171 250.295 110.284 249.924 111.264H251.531C251.756 111.262 251.976 111.336 252.168 111.477C252.36 111.618 252.515 111.821 252.616 112.063C252.736 112.337 252.778 112.649 252.736 112.954L252.258 115.836C252.206 116.145 252.055 116.417 251.837 116.594C251.62 116.77 251.354 116.836 251.097 116.779L247.981 116.189C247.854 116.164 247.737 116.089 247.648 115.975C247.56 115.861 247.505 115.716 247.493 115.56L247.243 112.194C247.238 112.105 247.248 112.015 247.275 111.932C247.301 111.848 247.342 111.772 247.395 111.71Z" fill="white"/>
<path d="M257.729 152.915C257.573 151.021 256.845 149.263 255.684 147.973C254.523 146.684 253.011 145.954 251.433 145.921C250.691 145.905 249.954 146.079 249.272 146.433C248.59 146.787 247.978 147.313 247.478 147.975C246.978 148.637 246.6 149.42 246.371 150.272C246.141 151.124 246.065 152.025 246.147 152.915C246.319 154.802 247.052 156.55 248.209 157.835C249.366 159.121 250.87 159.858 252.443 159.91C253.185 159.926 253.922 159.752 254.604 159.398C255.286 159.043 255.897 158.518 256.398 157.856C256.898 157.194 257.276 156.411 257.505 155.559C257.735 154.707 257.811 153.806 257.729 152.915Z" fill="#407BFF"/>
<path d="M248.611 149.576C248.529 149.573 248.447 149.592 248.371 149.631C248.295 149.67 248.227 149.728 248.172 149.801C248.116 149.874 248.074 149.961 248.049 150.055C248.024 150.15 248.015 150.25 248.025 150.348L248.274 153.282C248.29 153.492 248.37 153.687 248.499 153.83C248.627 153.972 248.795 154.053 248.969 154.055C249.05 154.056 249.131 154.035 249.205 153.996C249.28 153.956 249.346 153.898 249.401 153.825C249.455 153.752 249.496 153.666 249.521 153.572C249.546 153.479 249.554 153.38 249.544 153.282L249.338 150.335C249.314 150.123 249.227 149.929 249.093 149.79C248.96 149.65 248.788 149.574 248.611 149.576Z" fill="white"/>
<path d="M250.445 154.212C251.387 155.012 252.079 156.17 252.41 157.5C252.508 158.246 253.409 158.469 253.626 157.788C253.843 157.107 253.713 156.347 253.04 154.658H254.668C254.876 154.664 255.08 154.592 255.251 154.451C255.422 154.31 255.553 154.107 255.623 153.872C255.704 153.583 255.704 153.27 255.623 152.981L254.722 150.099C254.628 149.788 254.449 149.525 254.214 149.354C253.979 149.182 253.703 149.113 253.431 149.156L250.402 149.746C250.281 149.769 250.172 149.846 250.097 149.963C250.022 150.08 249.988 150.228 250 150.375L250.25 153.728C250.252 153.821 250.27 153.912 250.303 153.996C250.337 154.08 250.386 154.153 250.445 154.212Z" fill="white"/>
<path d="M234.282 159.148C245.227 145.353 243.981 122.483 231.5 108.067C219.019 93.6507 200.028 93.147 189.083 106.942C178.138 120.737 179.383 143.607 191.865 158.023C204.346 172.44 223.337 172.943 234.282 159.148Z" fill="#407BFF"/>
<path opacity="0.6" d="M231.003 107.44C225.033 100.761 217.206 97.0228 209.064 96.9616C192.532 96.9616 180.298 113.137 181.741 133.085H211.681L231.003 107.44Z" fill="white"/>
<path opacity="0.2" d="M188.656 107.44L211.681 132.981L209.064 96.9616C205.245 96.8889 201.455 97.7839 197.939 99.5888C194.424 101.394 191.261 104.068 188.656 107.44Z" fill="black"/>
<path d="M188.656 107.44L211.681 132.981L209.064 96.9616C205.245 96.8889 201.455 97.7839 197.939 99.5888C194.424 101.394 191.261 104.068 188.656 107.44Z" fill="#407BFF"/>
<path opacity="0.3" d="M188.656 107.44L211.681 132.981L209.064 96.9616C205.245 96.8889 201.455 97.7839 197.939 99.5888C194.424 101.394 191.261 104.068 188.656 107.44Z" fill="black"/>
<path opacity="0.3" d="M214.308 169.157C230.84 169.157 243.075 152.981 241.631 133.02H211.681L192.358 158.521C198.311 165.26 206.145 169.056 214.308 169.157Z" fill="white"/>
<path d="M233.902 162.975C234.002 164.093 233.904 165.224 233.614 166.293C233.325 167.362 232.85 168.345 232.222 169.176C231.594 170.007 230.826 170.667 229.971 171.113C229.115 171.559 228.19 171.781 227.258 171.763C225.277 171.718 223.378 170.799 221.92 169.18C220.462 167.56 219.546 165.353 219.345 162.975C219.235 161.855 219.327 160.72 219.613 159.647C219.9 158.574 220.374 157.587 221.004 156.755C221.634 155.922 222.406 155.263 223.266 154.822C224.125 154.381 225.054 154.169 225.988 154.199C227.968 154.244 229.865 155.161 231.323 156.778C232.781 158.394 233.698 160.598 233.902 162.975Z" fill="#263238"/>
<path d="M224.088 164.442C223.5 163.892 223.111 163.09 223.003 162.202C222.966 161.942 222.978 161.675 223.04 161.421C223.101 161.168 223.21 160.935 223.358 160.74C223.506 160.545 223.689 160.394 223.892 160.298C224.096 160.202 224.315 160.163 224.533 160.185C225.489 160.185 225.847 160.722 226.455 161.495C226.954 160.735 227.236 160.185 228.192 160.185C228.655 160.163 229.106 160.363 229.447 160.741C229.789 161.119 229.993 161.644 230.015 162.202C230.037 162.615 229.983 163.029 229.86 163.416C229.736 163.803 229.545 164.152 229.299 164.442L226.9 167.598L224.088 164.442Z" fill="#407BFF"/>
<path d="M192.836 118.966C192.947 120.087 192.856 121.223 192.571 122.298C192.285 123.373 191.811 124.361 191.181 125.195C190.55 126.028 189.778 126.689 188.918 127.131C188.057 127.572 187.127 127.785 186.192 127.755C184.211 127.709 182.312 126.79 180.854 125.171C179.396 123.552 178.48 121.345 178.279 118.966C178.169 117.846 178.261 116.711 178.547 115.638C178.833 114.565 179.308 113.579 179.938 112.746C180.568 111.914 181.339 111.255 182.199 110.814C183.059 110.373 183.988 110.16 184.922 110.19C186.902 110.232 188.801 111.149 190.259 112.766C191.718 114.383 192.634 116.589 192.836 118.966Z" fill="#263238"/>
<path d="M190.144 118.966C190.203 119.667 190.139 120.376 189.956 121.045C189.772 121.715 189.473 122.33 189.078 122.849C188.683 123.369 188.202 123.782 187.665 124.061C187.128 124.34 186.548 124.478 185.964 124.467C184.714 124.44 183.516 123.861 182.596 122.84C181.676 121.819 181.098 120.427 180.971 118.927C180.907 118.222 180.969 117.509 181.152 116.836C181.335 116.162 181.634 115.544 182.031 115.021C182.427 114.498 182.911 114.083 183.451 113.803C183.991 113.524 184.574 113.386 185.161 113.399C186.413 113.428 187.612 114.011 188.531 115.037C189.45 116.064 190.024 117.462 190.144 118.966Z" fill="#407BFF"/>
<path opacity="0.5" d="M190.144 118.966C190.203 119.667 190.139 120.376 189.956 121.045C189.772 121.715 189.473 122.33 189.078 122.849C188.683 123.369 188.202 123.782 187.665 124.061C187.128 124.34 186.548 124.478 185.964 124.467C184.714 124.44 183.516 123.861 182.596 122.84C181.676 121.819 181.098 120.427 180.971 118.927C180.907 118.222 180.969 117.509 181.152 116.836C181.335 116.162 181.634 115.544 182.031 115.021C182.427 114.498 182.911 114.083 183.451 113.803C183.991 113.524 184.574 113.386 185.161 113.399C186.413 113.428 187.612 114.011 188.531 115.037C189.45 116.064 190.024 117.462 190.144 118.966Z" fill="white"/>
<path d="M187.234 120.145C186.807 120.642 186.237 120.919 185.644 120.919C185.051 120.919 184.481 120.642 184.054 120.145C184.019 120.094 183.976 120.053 183.927 120.025C183.878 119.996 183.825 119.98 183.771 119.978C183.717 119.977 183.663 119.989 183.613 120.014C183.563 120.04 183.518 120.078 183.481 120.126C183.444 120.174 183.417 120.231 183.4 120.293C183.383 120.355 183.377 120.421 183.383 120.486C183.389 120.551 183.406 120.614 183.434 120.671C183.462 120.727 183.499 120.775 183.543 120.813C184.121 121.504 184.901 121.892 185.714 121.892C186.528 121.892 187.308 121.504 187.886 120.813C188.233 120.394 187.625 119.726 187.278 120.145H187.234Z" fill="#407BFF"/>
<path d="M184.336 117.172C184.336 117.774 184.238 118.259 184.021 118.259C183.804 118.259 183.598 117.774 183.554 117.172C183.511 116.569 183.652 116.084 183.869 116.084C184.086 116.084 184.292 116.608 184.336 117.172Z" fill="#407BFF"/>
<path d="M187.299 117.172C187.299 117.774 187.202 118.259 186.995 118.259C186.789 118.259 186.572 117.774 186.518 117.172C186.464 116.569 186.615 116.084 186.833 116.084C187.05 116.084 187.256 116.608 187.299 117.172Z" fill="#407BFF"/>
<path d="M237.278 110.989C237.387 112.109 237.296 113.244 237.009 114.317C236.723 115.39 236.248 116.377 235.618 117.209C234.988 118.042 234.217 118.701 233.357 119.142C232.497 119.583 231.568 119.795 230.634 119.765C228.655 119.72 226.757 118.803 225.299 117.186C223.842 115.57 222.924 113.366 222.721 110.989C222.621 109.871 222.719 108.74 223.008 107.671C223.298 106.602 223.772 105.619 224.401 104.788C225.029 103.957 225.796 103.297 226.652 102.851C227.508 102.405 228.432 102.183 229.364 102.201C231.345 102.246 233.244 103.165 234.702 104.784C236.16 106.403 237.076 108.611 237.278 110.989Z" fill="#263238"/>
<path d="M234.586 110.989C234.649 111.693 234.587 112.404 234.405 113.077C234.223 113.75 233.924 114.368 233.529 114.89C233.134 115.413 232.651 115.828 232.113 116.109C231.574 116.389 230.993 116.528 230.406 116.517C229.158 116.49 227.961 115.913 227.042 114.894C226.122 113.876 225.542 112.487 225.413 110.989C225.35 110.284 225.411 109.571 225.594 108.897C225.777 108.223 226.076 107.603 226.472 107.079C226.869 106.555 227.353 106.139 227.892 105.858C228.432 105.577 229.015 105.437 229.603 105.449C230.851 105.48 232.046 106.06 232.964 107.08C233.882 108.101 234.459 109.491 234.586 110.989Z" fill="#407BFF"/>
<path opacity="0.5" d="M234.586 110.989C234.649 111.693 234.587 112.404 234.405 113.077C234.223 113.75 233.924 114.368 233.529 114.89C233.134 115.413 232.651 115.828 232.113 116.109C231.574 116.389 230.993 116.528 230.406 116.517C229.158 116.49 227.961 115.913 227.042 114.894C226.122 113.876 225.542 112.487 225.413 110.989C225.35 110.284 225.411 109.571 225.594 108.897C225.777 108.223 226.076 107.603 226.472 107.079C226.869 106.555 227.353 106.139 227.892 105.858C228.432 105.577 229.015 105.437 229.603 105.449C230.851 105.48 232.046 106.06 232.964 107.08C233.882 108.101 234.459 109.491 234.586 110.989Z" fill="white"/>
<path d="M228.604 113.753C229.03 113.249 229.603 112.967 230.2 112.967C230.797 112.967 231.37 113.249 231.796 113.753C231.833 113.793 231.876 113.825 231.923 113.845C231.97 113.865 232.02 113.874 232.07 113.871C232.12 113.868 232.169 113.853 232.214 113.827C232.259 113.801 232.3 113.765 232.333 113.72C232.367 113.676 232.392 113.623 232.409 113.566C232.426 113.51 232.433 113.45 232.431 113.389C232.428 113.329 232.416 113.27 232.395 113.216C232.373 113.161 232.343 113.112 232.306 113.072C231.725 112.39 230.946 112.009 230.135 112.009C229.324 112.009 228.545 112.39 227.964 113.072C227.627 113.491 228.235 114.159 228.572 113.753H228.604Z" fill="#407BFF"/>
<path d="M228.735 109.182C228.735 109.784 228.637 110.269 228.42 110.269C228.203 110.269 227.996 109.784 227.953 109.182C227.91 108.579 228.051 108.095 228.268 108.095C228.485 108.095 228.735 108.579 228.735 109.182Z" fill="#407BFF"/>
<path d="M231.741 109.182C231.741 109.784 231.644 110.269 231.438 110.269C231.231 110.269 231.014 109.784 230.971 109.182C230.927 108.579 231.058 108.095 231.275 108.095C231.492 108.095 231.698 108.579 231.741 109.182Z" fill="#407BFF"/>
<path d="M191.648 152.305C194.31 148.951 194.01 143.392 190.978 139.891C187.947 136.389 183.331 136.27 180.67 139.625C178.008 142.98 178.308 148.538 181.34 152.039C184.371 155.541 188.986 155.66 191.648 152.305Z" fill="#263238"/>
<path d="M189.617 149.907C191.292 147.796 191.101 144.296 189.191 142.09C187.282 139.884 184.376 139.807 182.701 141.918C181.026 144.029 181.216 147.529 183.126 149.735C185.036 151.941 187.942 152.018 189.617 149.907Z" fill="#407BFF"/>
<path opacity="0.5" d="M189.617 149.907C191.292 147.796 191.101 144.296 189.191 142.09C187.282 139.884 184.376 139.807 182.701 141.918C181.026 144.029 181.216 147.529 183.126 149.735C185.036 151.941 187.942 152.018 189.617 149.907Z" fill="white"/>
<path d="M184.021 147.676C184.629 148.392 185.445 148.793 186.295 148.793C187.145 148.793 187.961 148.392 188.569 147.676L188.504 146.759H183.945L184.021 147.676Z" fill="#407BFF"/>
<path d="M185.563 144.271C185.294 143.96 184.936 143.787 184.564 143.787C184.192 143.787 183.834 143.96 183.565 144.271C183.294 144.559 183.75 145.07 184.021 144.769C184.174 144.585 184.381 144.481 184.596 144.481C184.812 144.481 185.019 144.585 185.172 144.769C185.487 145.07 185.866 144.559 185.563 144.271Z" fill="#407BFF"/>
<path d="M188.569 144.271C188.301 143.96 187.943 143.787 187.571 143.787C187.199 143.787 186.841 143.96 186.572 144.271C186.301 144.559 186.757 145.07 187.028 144.769C187.184 144.587 187.392 144.486 187.609 144.486C187.825 144.486 188.034 144.587 188.19 144.769C188.493 145.07 188.884 144.559 188.569 144.271Z" fill="#407BFF"/>
<path d="M268.769 208.66H235.107V215.261H302.432V212.55L268.769 208.66Z" fill="#407BFF"/>
<path opacity="0.6" d="M268.769 208.66H235.107V215.261H302.432V212.55L268.769 208.66Z" fill="white"/>
<path opacity="0.6" d="M268.769 215.261H235.107V208.66L268.769 212.55V215.261Z" fill="white"/>
<g opacity="0.5">
<path d="M376.629 136.923L371.993 73.045L365.719 73.713L338.874 167.166L368.845 163.97L376.629 136.923Z" fill="white"/>
</g>
<g opacity="0.5">
<path d="M234.065 174.409L259.9 84.5056H230.84L205.005 174.409H234.065Z" fill="white"/>
</g>
<path opacity="0.5" d="M128.941 171.266L150.141 97.4855L149.175 84.165L125.619 81.6895L100.727 168.305L128.941 171.266Z" fill="white"/>
<path d="M107.414 220.356H323.719V225.923C323.719 226.219 323.671 226.512 323.577 226.785C323.483 227.058 323.346 227.307 323.173 227.516C322.999 227.725 322.793 227.891 322.567 228.004C322.34 228.117 322.097 228.176 321.852 228.176H109.325C108.83 228.176 108.355 227.938 108.005 227.516C107.654 227.093 107.458 226.52 107.458 225.923V220.356H107.414Z" fill="#407BFF"/>
<path opacity="0.2" d="M107.414 220.356H323.719V225.923C323.719 226.219 323.671 226.512 323.577 226.785C323.483 227.058 323.346 227.307 323.173 227.516C322.999 227.725 322.793 227.891 322.567 228.004C322.34 228.117 322.097 228.176 321.852 228.176H109.325C108.83 228.176 108.355 227.938 108.005 227.516C107.654 227.093 107.458 226.52 107.458 225.923V220.356H107.414Z" fill="black"/>
<path opacity="0.3" d="M107.414 220.356H205.33V228.215H109.325C109.08 228.215 108.837 228.157 108.61 228.043C108.384 227.93 108.178 227.764 108.005 227.555C107.831 227.346 107.694 227.098 107.6 226.824C107.506 226.551 107.458 226.258 107.458 225.962V220.395L107.414 220.356Z" fill="white"/>
<path d="M328.127 215.274H103.007C101.79 215.274 100.803 216.465 100.803 217.933V219.164C100.803 220.633 101.79 221.823 103.007 221.823H328.127C329.344 221.823 330.33 220.633 330.33 219.164V217.933C330.33 216.465 329.344 215.274 328.127 215.274Z" fill="#407BFF"/>
<path opacity="0.4" d="M103.007 215.274H205.33V221.823H103.007C102.431 221.823 101.879 221.547 101.472 221.056C101.065 220.565 100.836 219.898 100.836 219.204V217.972C100.827 217.622 100.877 217.273 100.982 216.946C101.087 216.619 101.246 216.321 101.448 216.069C101.651 215.817 101.893 215.617 102.161 215.481C102.429 215.344 102.716 215.274 103.007 215.274Z" fill="white"/>
<path d="M193.91 385.651H118.834C116.669 385.651 114.593 384.613 113.062 382.766C111.531 380.919 110.671 378.413 110.671 375.801V238.051C110.671 235.439 111.531 232.934 113.062 231.087C114.593 229.239 116.669 228.202 118.834 228.202H193.91C196.075 228.202 198.152 229.239 199.683 231.087C201.214 232.934 202.074 235.439 202.074 238.051V375.801C202.074 378.413 201.214 380.919 199.683 382.766C198.152 384.613 196.075 385.651 193.91 385.651ZM118.834 233.441C117.822 233.444 116.851 233.931 116.135 234.795C115.419 235.659 115.016 236.83 115.013 238.051V375.801C115.016 377.023 115.419 378.193 116.135 379.057C116.851 379.921 117.822 380.408 118.834 380.411H193.91C194.923 380.408 195.893 379.921 196.609 379.057C197.325 378.193 197.729 377.023 197.731 375.801V238.051C197.729 236.83 197.325 235.659 196.609 234.795C195.893 233.931 194.923 233.444 193.91 233.441H118.834Z" fill="#263238"/>
<g opacity="0.4">
<path opacity="0.2" d="M193.91 385.651H118.834C116.669 385.651 114.593 384.613 113.062 382.766C111.531 380.919 110.671 378.413 110.671 375.801V238.051C110.671 235.439 111.531 232.934 113.062 231.087C114.593 229.239 116.669 228.202 118.834 228.202H193.91C196.075 228.202 198.152 229.239 199.683 231.087C201.214 232.934 202.074 235.439 202.074 238.051V375.801C202.074 378.413 201.214 380.919 199.683 382.766C198.152 384.613 196.075 385.651 193.91 385.651ZM118.834 233.441C117.822 233.444 116.851 233.931 116.135 234.795C115.419 235.659 115.016 236.83 115.013 238.051V375.801C115.016 377.023 115.419 378.193 116.135 379.057C116.851 379.921 117.822 380.408 118.834 380.411H193.91C194.923 380.408 195.893 379.921 196.609 379.057C197.325 378.193 197.729 377.023 197.731 375.801V238.051C197.729 236.83 197.325 235.659 196.609 234.795C195.893 233.931 194.923 233.444 193.91 233.441H118.834Z" fill="white"/>
</g>
<path opacity="0.2" d="M193.91 228.202H118.834C116.813 228.205 114.864 229.112 113.365 230.747C111.865 232.382 110.921 234.63 110.714 237.056H115.111C115.298 236.032 115.769 235.117 116.446 234.459C117.123 233.802 117.965 233.443 118.834 233.441H193.91C194.779 233.443 195.621 233.802 196.298 234.459C196.975 235.117 197.446 236.032 197.634 237.056H202.03C201.823 234.63 200.879 232.382 199.38 230.747C197.88 229.112 195.932 228.205 193.91 228.202Z" fill="black"/>
<path d="M310.78 385.651H235.704C233.539 385.651 231.462 384.613 229.931 382.766C228.4 380.919 227.54 378.413 227.54 375.801V238.051C227.54 235.439 228.4 232.934 229.931 231.087C231.462 229.239 233.539 228.202 235.704 228.202H310.78C312.944 228.205 315.019 229.244 316.549 231.09C318.079 232.937 318.94 235.44 318.943 238.051V375.801C318.94 378.412 318.079 380.916 316.549 382.762C315.019 384.608 312.944 385.647 310.78 385.651ZM235.704 233.441C234.691 233.444 233.721 233.931 233.005 234.795C232.289 235.659 231.885 236.83 231.883 238.051V375.801C231.885 377.023 232.289 378.193 233.005 379.057C233.721 379.921 234.691 380.408 235.704 380.411H310.78C311.792 380.408 312.763 379.921 313.479 379.057C314.195 378.193 314.598 377.023 314.601 375.801V238.051C314.598 236.83 314.195 235.659 313.479 234.795C312.763 233.931 311.792 233.444 310.78 233.441H235.704Z" fill="#263238"/>
<path opacity="0.1" d="M310.78 385.651H235.704C233.539 385.651 231.462 384.613 229.931 382.766C228.4 380.919 227.54 378.413 227.54 375.801V238.051C227.54 235.439 228.4 232.934 229.931 231.087C231.462 229.239 233.539 228.202 235.704 228.202H310.78C312.944 228.205 315.019 229.244 316.549 231.09C318.079 232.937 318.94 235.44 318.943 238.051V375.801C318.94 378.412 318.079 380.916 316.549 382.762C315.019 384.608 312.944 385.647 310.78 385.651ZM235.704 233.441C234.691 233.444 233.721 233.931 233.005 234.795C232.289 235.659 231.885 236.83 231.883 238.051V375.801C231.885 377.023 232.289 378.193 233.005 379.057C233.721 379.921 234.691 380.408 235.704 380.411H310.78C311.792 380.408 312.763 379.921 313.479 379.057C314.195 378.193 314.598 377.023 314.601 375.801V238.051C314.598 236.83 314.195 235.659 313.479 234.795C312.763 233.931 311.792 233.444 310.78 233.441H235.704Z" fill="white"/>
<path opacity="0.2" d="M310.78 228.202H235.704C233.682 228.205 231.734 229.112 230.234 230.747C228.735 232.382 227.791 234.63 227.584 237.056H231.926C232.116 236.031 232.589 235.115 233.268 234.458C233.946 233.801 234.79 233.442 235.66 233.441H310.736C311.617 233.437 312.471 233.799 313.156 234.467C313.84 235.136 314.312 236.068 314.492 237.108H318.889C318.692 234.675 317.754 232.417 316.256 230.771C314.757 229.125 312.806 228.21 310.78 228.202Z" fill="black"/>
<path d="M175.771 260.566H91.8043C86.7563 260.566 82.664 265.504 82.664 271.595V375.133C82.664 381.224 86.7563 386.161 91.8043 386.161H175.771C180.819 386.161 184.911 381.224 184.911 375.133V271.595C184.911 265.504 180.819 260.566 175.771 260.566Z" fill="#407BFF"/>
<path opacity="0.4" d="M175.771 260.566H91.8043C86.7563 260.566 82.664 265.504 82.664 271.595V375.133C82.664 381.224 86.7563 386.161 91.8043 386.161H175.771C180.819 386.161 184.911 381.224 184.911 375.133V271.595C184.911 265.504 180.819 260.566 175.771 260.566Z" fill="white"/>
<path opacity="0.1" d="M82.664 375.041V375.12C82.6626 376.569 82.8979 378.005 83.3566 379.344C83.8153 380.684 84.4884 381.901 85.3373 382.927C86.1862 383.952 87.1943 384.766 88.3039 385.321C89.4136 385.876 90.603 386.161 91.8042 386.161H175.771C176.972 386.161 178.162 385.876 179.271 385.321C180.381 384.766 181.389 383.952 182.238 382.927C183.087 381.901 183.76 380.684 184.219 379.344C184.677 378.005 184.913 376.569 184.911 375.12V375.041H82.664Z" fill="black"/>
<path d="M175.771 260.566H152.486C147.438 260.566 143.346 265.504 143.346 271.595V375.133C143.346 381.224 147.438 386.161 152.486 386.161H175.771C180.819 386.161 184.911 381.224 184.911 375.133V271.595C184.911 265.504 180.819 260.566 175.771 260.566Z" fill="#407BFF"/>
<path opacity="0.3" d="M175.771 266.46H152.486C150.136 266.46 148.231 268.759 148.231 271.595V375.133C148.231 377.969 150.136 380.267 152.486 380.267H175.771C178.121 380.267 180.026 377.969 180.026 375.133V271.595C180.026 268.759 178.121 266.46 175.771 266.46Z" fill="white"/>
<path opacity="0.7" d="M176.889 274.646H151.379V282.833H176.889V274.646Z" fill="white"/>
<path opacity="0.7" d="M176.889 284.47H151.379V292.656H176.889V284.47Z" fill="white"/>
<path d="M164.134 329.762C167.066 329.762 169.442 326.894 169.442 323.357C169.442 319.82 167.066 316.952 164.134 316.952C161.202 316.952 158.826 319.82 158.826 323.357C158.826 326.894 161.202 329.762 164.134 329.762Z" fill="#407BFF"/>
<g opacity="0.9">
<path d="M165.361 322.087C165.606 322.381 165.774 322.757 165.842 323.166C165.91 323.576 165.876 324 165.744 324.386C165.612 324.772 165.388 325.103 165.101 325.335C164.813 325.567 164.475 325.691 164.128 325.691C163.782 325.691 163.444 325.567 163.156 325.335C162.869 325.103 162.645 324.772 162.513 324.386C162.381 324 162.347 323.576 162.415 323.166C162.483 322.757 162.651 322.381 162.896 322.087C163.396 321.432 162.582 320.436 162.071 321.104C161.665 321.595 161.387 322.221 161.275 322.902C161.163 323.583 161.22 324.288 161.441 324.93C161.661 325.571 162.034 326.119 162.512 326.505C162.991 326.891 163.553 327.097 164.128 327.097C164.704 327.097 165.266 326.891 165.745 326.505C166.223 326.119 166.596 325.571 166.816 324.93C167.037 324.288 167.094 323.583 166.982 322.902C166.87 322.221 166.592 321.595 166.186 321.104C165.675 320.436 164.861 321.432 165.361 322.087Z" fill="white"/>
<path d="M163.602 319.624V322.82C163.621 322.99 163.691 323.145 163.797 323.257C163.904 323.37 164.041 323.431 164.183 323.431C164.324 323.431 164.461 323.37 164.568 323.257C164.675 323.145 164.744 322.99 164.764 322.82V319.624C164.744 319.455 164.675 319.3 164.568 319.187C164.461 319.075 164.324 319.013 164.183 319.013C164.041 319.013 163.904 319.075 163.797 319.187C163.691 319.3 163.621 319.455 163.602 319.624Z" fill="white"/>
</g>
<path d="M154.071 344.288C154.97 344.288 155.699 343.408 155.699 342.323C155.699 341.238 154.97 340.358 154.071 340.358C153.172 340.358 152.443 341.238 152.443 342.323C152.443 343.408 153.172 344.288 154.071 344.288Z" fill="#407BFF"/>
<path d="M160.78 344.288C161.679 344.288 162.408 343.408 162.408 342.323C162.408 341.238 161.679 340.358 160.78 340.358C159.88 340.358 159.151 341.238 159.151 342.323C159.151 343.408 159.88 344.288 160.78 344.288Z" fill="#407BFF"/>
<path d="M167.488 344.288C168.388 344.288 169.117 343.408 169.117 342.323C169.117 341.238 168.388 340.358 167.488 340.358C166.589 340.358 165.86 341.238 165.86 342.323C165.86 343.408 166.589 344.288 167.488 344.288Z" fill="#407BFF"/>
<path d="M174.197 344.288C175.096 344.288 175.825 343.408 175.825 342.323C175.825 341.238 175.096 340.358 174.197 340.358C173.298 340.358 172.569 341.238 172.569 342.323C172.569 343.408 173.298 344.288 174.197 344.288Z" fill="#407BFF"/>
<path d="M157.425 351.269C158.325 351.269 159.054 350.389 159.054 349.304C159.054 348.219 158.325 347.339 157.425 347.339C156.526 347.339 155.797 348.219 155.797 349.304C155.797 350.389 156.526 351.269 157.425 351.269Z" fill="#407BFF"/>
<path d="M164.134 351.269C165.033 351.269 165.762 350.389 165.762 349.304C165.762 348.219 165.033 347.339 164.134 347.339C163.235 347.339 162.506 348.219 162.506 349.304C162.506 350.389 163.235 351.269 164.134 351.269Z" fill="#407BFF"/>
<path d="M170.843 351.269C171.742 351.269 172.471 350.389 172.471 349.304C172.471 348.219 171.742 347.339 170.843 347.339C169.943 347.339 169.214 348.219 169.214 349.304C169.214 350.389 169.943 351.269 170.843 351.269Z" fill="#407BFF"/>
<path d="M154.071 359.009C154.97 359.009 155.699 358.13 155.699 357.045C155.699 355.96 154.97 355.08 154.071 355.08C153.172 355.08 152.443 355.96 152.443 357.045C152.443 358.13 153.172 359.009 154.071 359.009Z" fill="#407BFF"/>
<path d="M160.78 359.009C161.679 359.009 162.408 358.13 162.408 357.045C162.408 355.96 161.679 355.08 160.78 355.08C159.88 355.08 159.151 355.96 159.151 357.045C159.151 358.13 159.88 359.009 160.78 359.009Z" fill="#407BFF"/>
<path d="M167.488 359.009C168.388 359.009 169.117 358.13 169.117 357.045C169.117 355.96 168.388 355.08 167.488 355.08C166.589 355.08 165.86 355.96 165.86 357.045C165.86 358.13 166.589 359.009 167.488 359.009Z" fill="#407BFF"/>
<path d="M174.197 359.009C175.096 359.009 175.825 358.13 175.825 357.045C175.825 355.96 175.096 355.08 174.197 355.08C173.298 355.08 172.569 355.96 172.569 357.045C172.569 358.13 173.298 359.009 174.197 359.009Z" fill="#407BFF"/>
<path d="M157.425 365.991C158.325 365.991 159.054 365.111 159.054 364.026C159.054 362.941 158.325 362.061 157.425 362.061C156.526 362.061 155.797 362.941 155.797 364.026C155.797 365.111 156.526 365.991 157.425 365.991Z" fill="#407BFF"/>
<path d="M164.134 365.991C165.033 365.991 165.762 365.111 165.762 364.026C165.762 362.941 165.033 362.061 164.134 362.061C163.235 362.061 162.506 362.941 162.506 364.026C162.506 365.111 163.235 365.991 164.134 365.991Z" fill="#407BFF"/>
<path d="M170.843 365.991C171.742 365.991 172.471 365.111 172.471 364.026C172.471 362.941 171.742 362.061 170.843 362.061C169.943 362.061 169.214 362.941 169.214 364.026C169.214 365.111 169.943 365.991 170.843 365.991Z" fill="#407BFF"/>
<path d="M154.071 373.732C154.97 373.732 155.699 372.852 155.699 371.767C155.699 370.682 154.97 369.802 154.071 369.802C153.172 369.802 152.443 370.682 152.443 371.767C152.443 372.852 153.172 373.732 154.071 373.732Z" fill="#407BFF"/>
<path d="M160.78 373.732C161.679 373.732 162.408 372.852 162.408 371.767C162.408 370.682 161.679 369.802 160.78 369.802C159.88 369.802 159.151 370.682 159.151 371.767C159.151 372.852 159.88 373.732 160.78 373.732Z" fill="#407BFF"/>
<path d="M167.488 373.732C168.388 373.732 169.117 372.852 169.117 371.767C169.117 370.682 168.388 369.802 167.488 369.802C166.589 369.802 165.86 370.682 165.86 371.767C165.86 372.852 166.589 373.732 167.488 373.732Z" fill="#407BFF"/>
<path d="M174.197 373.732C175.096 373.732 175.825 372.852 175.825 371.767C175.825 370.682 175.096 369.802 174.197 369.802C173.298 369.802 172.569 370.682 172.569 371.767C172.569 372.852 173.298 373.732 174.197 373.732Z" fill="#407BFF"/>
<path d="M302.693 202.569L296.179 199.007L286.985 203.63V209.158C286.985 209.158 301.26 208.581 301.249 208.607C301.238 208.634 317.347 215.078 323.296 214.082C329.245 213.087 348.144 181.246 348.144 181.246L338.624 171.2L320.517 202.334L302.693 202.569Z" fill="#FCC1BB"/>
<path opacity="0.1" d="M302.693 202.569L296.179 199.007L286.985 203.63V209.158C286.985 209.158 301.26 208.581 301.249 208.607L302.334 209.04L306.937 202.491L302.693 202.569Z" fill="black"/>
<path d="M332.219 180.251C332.219 180.251 338.798 166.131 343.01 161.652C345.561 158.927 349.121 158.089 351.52 157.84C351.878 157.804 352.239 157.858 352.579 157.998C352.919 158.138 353.231 158.361 353.496 158.654C353.762 158.947 353.974 159.303 354.119 159.699C354.265 160.095 354.341 160.524 354.343 160.958C354.343 166.55 353.17 178.692 343.65 191.2L332.219 180.251Z" fill="#263238"/>
<path d="M332.219 177.592C337.318 180.733 341.675 185.378 344.887 191.096L342.326 193.479C338.992 188.572 335.022 184.348 330.569 180.971L332.219 177.592Z" fill="#407BFF"/>
<path d="M316.121 126.589L312.864 132.745C313.461 133.205 314.14 133.489 314.846 133.573C315.551 133.658 316.263 133.54 316.924 133.229L316.121 126.589Z" fill="#EB827E"/>
<path d="M315.578 130.492C314.802 130.555 314.029 130.335 313.359 129.861C312.688 129.387 312.151 128.681 311.817 127.834C311.484 126.987 311.369 126.039 311.487 125.112C311.606 124.185 311.953 123.323 312.483 122.637C313.014 121.952 313.702 121.474 314.46 121.267C315.218 121.059 316.01 121.132 316.734 121.474C317.457 121.817 318.079 122.414 318.517 123.189C318.956 123.963 319.191 124.878 319.193 125.816C319.225 127.014 318.863 128.178 318.185 129.054C317.508 129.931 316.57 130.448 315.578 130.492ZM315.578 122.136C314.961 122.07 314.341 122.23 313.801 122.597C313.261 122.963 312.825 123.518 312.551 124.188C312.277 124.859 312.178 125.613 312.265 126.353C312.353 127.093 312.625 127.784 313.044 128.335C313.463 128.885 314.01 129.27 314.613 129.439C315.217 129.608 315.849 129.552 316.426 129.28C317.003 129.007 317.498 128.531 317.847 127.913C318.195 127.295 318.38 126.564 318.379 125.816C318.408 124.881 318.13 123.97 317.606 123.281C317.081 122.591 316.353 122.18 315.578 122.136Z" fill="#407BFF"/>
<path d="M314.167 125.777C314.167 126.576 314.492 127.231 314.927 127.231C315.361 127.231 315.741 126.576 315.73 125.803C315.719 125.03 315.404 124.349 314.97 124.349C314.536 124.349 314.178 124.939 314.167 125.777Z" fill="#1A2E35"/>
<path d="M339.59 120.76C339.883 131.33 340.198 135.81 336.225 141.717C329.929 147.978 319.41 148.711 316.501 138.455C313.895 129.287 313.852 113.57 322.059 108.33C323.862 107.177 325.88 106.601 327.921 106.656C329.962 106.712 331.956 107.398 333.715 108.649C335.473 109.899 336.937 111.673 337.965 113.8C338.994 115.927 339.553 118.337 339.59 120.8V120.76Z" fill="#FCC1BB"/>
<path opacity="0.2" d="M327.291 146.209L327.226 145.686C327.194 145.416 327.115 145.157 326.993 144.928C326.872 144.698 326.712 144.502 326.522 144.353C326.333 144.204 326.12 144.106 325.897 144.065C325.674 144.023 325.446 144.04 325.228 144.114L321.668 145.28C323.449 146.147 325.382 146.466 327.291 146.209Z" fill="#1A2E35"/>
<path d="M316.533 122.122C316.476 122.134 316.418 122.127 316.364 122.102C316.311 122.076 316.264 122.034 316.229 121.978C315.959 121.575 315.614 121.254 315.221 121.042C314.829 120.831 314.401 120.734 313.971 120.76C313.923 120.775 313.873 120.777 313.824 120.767C313.775 120.756 313.729 120.733 313.688 120.699C313.647 120.665 313.613 120.62 313.587 120.569C313.562 120.517 313.546 120.46 313.54 120.4C313.535 120.341 313.54 120.281 313.556 120.224C313.571 120.167 313.596 120.114 313.63 120.07C313.664 120.026 313.705 119.991 313.751 119.968C313.796 119.945 313.846 119.933 313.895 119.935C314.438 119.891 314.982 120.005 315.48 120.267C315.979 120.529 316.418 120.932 316.761 121.441C316.823 121.521 316.857 121.627 316.857 121.736C316.857 121.845 316.823 121.951 316.761 122.031C316.73 122.064 316.694 122.089 316.655 122.105C316.616 122.121 316.574 122.127 316.533 122.122Z" fill="#1A2E35"/>
<path d="M326.965 143.537L328.887 159.229L339.753 156.517L336.268 140.446L326.965 143.537Z" fill="#FCC1BB"/>
<path d="M316.077 112.194C319.779 120.682 322.341 112.915 321.657 119.765C320.973 126.615 323.014 128.829 323.014 128.829L330.461 142.228C330.656 142.565 330.944 142.81 331.273 142.917C331.602 143.025 331.953 142.99 332.263 142.817C332.847 142.427 333.491 142.185 334.156 142.106C334.82 142.027 335.491 142.113 336.127 142.359C336.36 142.482 336.616 142.524 336.868 142.48C337.119 142.436 337.355 142.308 337.549 142.11C341.347 137.778 343.783 131.992 344.442 125.738C346.841 107.27 335.074 104.441 335.074 104.441C328.561 102.803 330.211 94.4469 326.325 94.4469C323.361 94.4469 324.23 100.328 324.23 100.328C324.23 100.328 321.06 97.4594 319.214 98.4417C316.837 99.7515 318.943 105.58 318.943 105.58C318.943 105.58 312.451 103.864 316.077 112.194Z" fill="#1A2E35"/>
<path d="M323.73 123.851H312.875L313.396 122.542H323.73V123.851Z" fill="#407BFF"/>
<path d="M321.505 125.476C321.186 127.595 321.576 129.781 322.59 131.553C323.969 133.897 326.162 132.863 327.041 130.361C327.834 128.095 328.062 124.179 326.064 122.725C325.627 122.419 325.134 122.249 324.628 122.23C324.123 122.211 323.622 122.344 323.17 122.617C322.718 122.89 322.329 123.294 322.038 123.793C321.748 124.292 321.564 124.87 321.505 125.476Z" fill="#FFC3BD"/>
<path d="M324.034 153.492C324.034 153.492 331.014 145.528 338.331 146.183C343.303 146.615 344.844 154.147 344.844 154.147L324.034 153.492Z" fill="#263238"/>
<path opacity="0.2" d="M324.034 153.492C324.034 153.492 331.014 145.528 338.331 146.183C343.303 146.615 344.844 154.147 344.844 154.147L324.034 153.492Z" fill="white"/>
<path d="M328.745 249.761L313.461 159.7C313.305 158.871 313.298 158.01 313.442 157.177C313.586 156.345 313.877 155.559 314.295 154.874C314.713 154.189 315.249 153.621 315.866 153.209C316.482 152.796 317.165 152.549 317.868 152.483C327.454 151.514 346.787 150.584 353.257 157.722C368.324 174.409 369.54 251.044 369.54 251.044L328.745 249.761Z" fill="#1400FF"/>
<path opacity="0.5" d="M317.749 158.299C316.256 159.015 314.884 160.053 313.7 161.364L318.726 190.991C323.22 178.849 322.905 158.246 322.905 158.246L317.749 158.299Z" fill="black"/>
<path d="M272.221 201.443L265.708 197.514L256.622 202.595V208.647C256.622 208.647 270.734 208.018 270.734 208.057C270.734 208.097 286.648 215.143 292.532 214.056C298.415 212.969 317.141 178.037 317.141 178.037L307.729 167.009L289.818 201.181L272.221 201.443Z" fill="#FCC1BB"/>
<path d="M301.466 176.963C301.466 176.963 307.979 161.455 312.137 156.544C316.294 151.632 323.177 152.3 323.177 152.3C323.177 152.3 325.619 170.27 312.777 188.974L301.466 176.963Z" fill="#263238"/>
<path d="M301.466 174.042C306.641 177.595 310.97 182.697 314.036 188.856L311.507 191.475C311.507 191.475 306.34 182.752 299.881 177.749L301.466 174.042Z" fill="#263238"/>
<path opacity="0.2" d="M301.466 174.042C306.641 177.595 310.97 182.697 314.036 188.856L311.507 191.475C311.507 191.475 306.34 182.752 299.881 177.749L301.466 174.042Z" fill="white"/>
<path d="M324.349 348.073L328.072 369.815L335.411 368.505L333.641 347.339L324.349 348.073Z" fill="#FCC1BB"/>
<path opacity="0.2" d="M334.803 361.289L333.641 347.339L324.349 348.073L326.672 361.668L334.803 361.289Z" fill="black"/>
<path d="M367.89 249.106C367.89 249.106 371.624 272.682 358.869 272.682C346.114 272.682 329.147 277.712 329.147 277.712C329.147 277.712 334.032 283.304 335.118 354.648L324.534 355.198C324.534 355.198 306.948 274.673 310.422 265.819C315.306 253.363 340.6 249.106 340.6 249.106H367.89Z" fill="#407BFF"/>
<path opacity="0.2" d="M367.89 249.106C367.89 249.106 371.624 272.682 358.869 272.682C346.114 272.682 329.147 277.712 329.147 277.712C329.147 277.712 334.032 283.304 335.118 354.648L324.534 355.198C324.534 355.198 306.948 274.673 310.422 265.819C315.306 253.363 340.6 249.106 340.6 249.106H367.89Z" fill="black"/>
<path d="M322.287 351.374L336.681 350.941L336.214 358.145L324.143 358.761L322.287 351.374Z" fill="#407BFF"/>
<path opacity="0.5" d="M322.287 351.374L336.681 350.941L336.214 358.145L324.143 358.761L322.287 351.374Z" fill="white"/>
<path d="M324.772 371.191C323.986 371.408 323.16 371.273 322.449 370.811C322.358 370.679 322.303 370.517 322.289 370.347C322.275 370.176 322.305 370.005 322.373 369.855C322.423 369.72 322.495 369.598 322.585 369.497C322.674 369.395 322.779 369.317 322.894 369.265C324.121 368.663 326.976 370.103 327.095 370.169C327.131 370.184 327.162 370.213 327.184 370.25C327.206 370.288 327.218 370.333 327.218 370.379C327.218 370.424 327.206 370.469 327.184 370.507C327.162 370.544 327.131 370.573 327.095 370.588C326.338 370.873 325.56 371.075 324.772 371.191ZM323.372 369.566C323.256 369.581 323.143 369.617 323.036 369.671C322.961 369.696 322.892 369.742 322.835 369.806C322.778 369.87 322.735 369.95 322.71 370.038C322.601 370.326 322.71 370.444 322.71 370.51C323.122 371.06 325.055 370.798 326.455 370.379C325.477 369.883 324.432 369.608 323.372 369.566Z" fill="#407BFF"/>
<path d="M327.052 370.588H326.976C326.01 370.234 323.98 368.506 324.034 367.445C324.034 367.183 324.154 366.868 324.653 366.724C324.838 366.67 325.029 366.664 325.216 366.704C325.403 366.745 325.581 366.832 325.739 366.96C326.533 367.869 327.072 369.055 327.28 370.352C327.285 370.391 327.282 370.431 327.271 370.468C327.259 370.504 327.24 370.537 327.215 370.562C327.193 370.585 327.166 370.599 327.137 370.604C327.108 370.608 327.078 370.603 327.052 370.588ZM324.816 367.13H324.707C324.382 367.209 324.382 367.366 324.371 367.431C324.371 368.06 325.749 369.449 326.759 369.986C326.557 368.975 326.107 368.062 325.467 367.366C325.276 367.21 325.044 367.145 324.816 367.183V367.13Z" fill="#407BFF"/>
<path d="M327.736 369.187L336.073 367.982C336.226 367.954 336.382 367.993 336.513 368.091C336.644 368.19 336.742 368.341 336.789 368.519L339.112 376.482C339.169 376.649 339.196 376.828 339.193 377.009C339.189 377.189 339.154 377.367 339.091 377.53C339.028 377.694 338.938 377.84 338.825 377.959C338.713 378.079 338.582 378.169 338.439 378.224L338.211 378.29C335.194 378.669 332.501 378.853 328.756 379.403C324.338 380.045 325.5 380.516 320.333 381.354C317.206 381.865 316.207 377.648 317.521 377.255C323.502 375.447 323.915 373.142 325.988 370.182C326.452 369.607 327.073 369.253 327.736 369.187Z" fill="#407BFF"/>
<path d="M302.877 353.901L309.803 374.177L316.544 372.553L311.909 350.863L302.877 353.901Z" fill="#FCC1BB"/>
<path opacity="0.2" d="M314.992 365.323L311.909 350.863L302.877 353.901L307.382 367.078L314.992 365.323Z" fill="black"/>
<path d="M367.89 249.106C367.89 249.106 375.771 273.691 349.729 272.682C339.753 272.289 296.537 284.47 296.537 284.47C296.537 284.47 304.321 289.382 314.091 355.198L303.04 358.224C303.04 358.224 271.689 283.488 275.152 274.647C280.037 262.178 331.448 249.106 331.448 249.106H367.89Z" fill="#407BFF"/>
<path d="M301.694 357.372L314.807 353.993L316.164 360.542L303.593 364.039L301.694 357.372Z" fill="#407BFF"/>
<path opacity="0.5" d="M301.694 357.372L314.807 353.993L316.164 360.542L303.593 364.039L301.694 357.372Z" fill="white"/>
<path d="M305.634 375.107C304.851 375.329 304.027 375.194 303.322 374.727C303.228 374.598 303.169 374.437 303.154 374.266C303.138 374.094 303.167 373.922 303.235 373.771C303.339 373.501 303.526 373.289 303.756 373.182C304.994 372.566 307.838 374.02 307.968 374.085C308.001 374.105 308.028 374.135 308.047 374.172C308.066 374.209 308.077 374.251 308.077 374.295C308.072 374.34 308.058 374.384 308.035 374.421C308.012 374.458 307.982 374.486 307.947 374.504C307.191 374.784 306.418 374.986 305.634 375.107ZM304.245 373.483C304.125 373.498 304.008 373.533 303.897 373.588C303.826 373.616 303.76 373.662 303.704 373.723C303.648 373.784 303.603 373.858 303.572 373.941C303.463 374.229 303.572 374.36 303.572 374.426C303.995 374.976 305.917 374.714 307.317 374.295C306.345 373.792 305.302 373.517 304.245 373.483Z" fill="#407BFF"/>
<path d="M307.914 374.504C307.902 374.511 307.889 374.515 307.876 374.515C307.863 374.515 307.85 374.511 307.838 374.504C306.883 374.151 304.842 372.409 304.907 371.348C304.907 371.099 305.026 370.771 305.515 370.64C305.699 370.587 305.89 370.579 306.077 370.618C306.263 370.656 306.441 370.739 306.6 370.863C307.4 371.773 307.94 372.965 308.142 374.269C308.15 374.306 308.149 374.346 308.139 374.383C308.13 374.42 308.112 374.453 308.088 374.478C308.063 374.499 308.034 374.513 308.004 374.518C307.973 374.522 307.942 374.518 307.914 374.504ZM305.678 371.033H305.569C305.254 371.112 305.244 371.269 305.233 371.335C305.233 371.963 306.611 373.352 307.632 373.889C307.433 372.855 306.979 371.919 306.329 371.204C306.133 371.061 305.905 370.997 305.678 371.02V371.033Z" fill="#407BFF"/>
<path d="M308.598 373.103L316.946 371.885C317.098 371.865 317.251 371.907 317.381 372.004C317.511 372.101 317.61 372.248 317.662 372.422L319.985 380.398C320.041 380.566 320.068 380.746 320.064 380.927C320.06 381.109 320.024 381.287 319.96 381.45C319.896 381.614 319.804 381.76 319.691 381.879C319.577 381.997 319.445 382.086 319.301 382.14H319.073C316.055 382.507 313.363 382.703 309.618 383.24C305.2 383.882 306.362 384.367 301.205 385.205C298.079 385.703 297.08 381.498 298.383 381.092C304.364 379.298 304.777 376.993 306.861 374.02C307.326 373.465 307.945 373.138 308.598 373.103Z" fill="#407BFF"/>
<path d="M391.739 360.398C385.107 359.088 375.261 357.228 370.875 356.835C369.92 356.744 368.704 356.678 367.38 356.639V315.577H359.054V356.639C357.719 356.639 356.514 356.744 355.548 356.835C351.205 357.228 341.327 359.088 334.694 360.398C332.845 360.767 331.164 361.916 329.952 363.641C328.739 365.366 328.073 367.554 328.072 369.815V371.898H336.203L337.289 368.977C337.289 368.977 352.486 365.807 357.61 365.349C361.381 365.1 365.161 365.1 368.932 365.349C374.056 365.807 389.243 368.977 389.243 368.977L390.328 371.898H398.416V369.815C398.413 367.544 397.739 365.348 396.516 363.622C395.292 361.896 393.599 360.753 391.739 360.398Z" fill="#263238"/>
<path opacity="0.1" d="M391.739 360.398C385.107 359.088 375.261 357.228 370.875 356.835C369.92 356.744 368.704 356.678 367.38 356.639V315.577H359.054V356.639C357.719 356.639 356.514 356.744 355.548 356.835C351.205 357.228 341.327 359.088 334.694 360.398C332.845 360.767 331.164 361.916 329.952 363.641C328.739 365.366 328.073 367.554 328.072 369.815V371.898H336.203L337.289 368.977C337.289 368.977 352.486 365.807 357.61 365.349C361.381 365.1 365.161 365.1 368.932 365.349C374.056 365.807 389.243 368.977 389.243 368.977L390.328 371.898H398.416V369.815C398.413 367.544 397.739 365.348 396.516 363.622C395.292 361.896 393.599 360.753 391.739 360.398Z" fill="white"/>
<path d="M356.524 282.086H369.855V316.795C369.855 318.035 369.447 319.225 368.72 320.102C367.993 320.979 367.007 321.471 365.98 321.471H360.346C359.318 321.471 358.332 320.979 357.605 320.102C356.879 319.225 356.47 318.035 356.47 316.795V282.086H356.524Z" fill="#263238"/>
<path opacity="0.2" d="M369.909 282.086H356.525V291.674H369.909V282.086Z" fill="black"/>
<path d="M394.974 385.651C398.122 385.651 400.674 382.572 400.674 378.774C400.674 374.976 398.122 371.898 394.974 371.898C391.827 371.898 389.275 374.976 389.275 378.774C389.275 382.572 391.827 385.651 394.974 385.651Z" fill="#263238"/>
<path d="M331.459 385.651C334.607 385.651 337.158 382.572 337.158 378.774C337.158 374.976 334.607 371.898 331.459 371.898C328.312 371.898 325.76 374.976 325.76 378.774C325.76 382.572 328.312 385.651 331.459 385.651Z" fill="#263238"/>
<path d="M408.457 273.913C400.47 271.465 392.281 270.103 384.043 269.853C375.565 269.604 343.878 269.853 336.279 269.853C327.103 269.837 317.961 271.201 309.065 273.913C303.474 275.629 305.2 285.374 310.248 285.492C310.693 285.492 406.611 285.492 406.97 285.492C412.245 285.767 414.167 275.668 408.457 273.913Z" fill="#407BFF"/>
<path opacity="0.3" d="M408.457 273.913C400.47 271.465 392.281 270.103 384.043 269.853C375.565 269.604 343.878 269.853 336.279 269.853C327.103 269.837 317.961 271.201 309.065 273.913C303.474 275.629 305.2 285.374 310.248 285.492C310.693 285.492 406.611 285.492 406.97 285.492C412.245 285.767 414.167 275.668 408.457 273.913Z" fill="black"/>
<path d="M311.648 285.282C327.822 280.318 344.769 280.318 360.943 285.282C367.043 287.155 369.627 275.786 363.537 273.913C345.659 268.438 326.931 268.438 309.054 273.913C302.964 275.786 305.547 287.155 311.648 285.282Z" fill="#407BFF"/>
<g opacity="0.4">
<path d="M311.648 285.282C327.822 280.318 344.769 280.318 360.943 285.282C367.043 287.155 369.627 275.786 363.537 273.913C345.659 268.438 326.931 268.438 309.054 273.913C302.964 275.786 305.547 287.155 311.648 285.282Z" fill="white"/>
</g>
<path d="M382.795 189.563C382.247 189.549 381.706 189.715 381.232 190.046C380.757 190.376 380.366 190.857 380.103 191.436C367.208 217.533 362.58 248.38 367.076 278.275C367.145 279.03 367.436 279.73 367.896 280.249C368.356 280.768 368.955 281.071 369.584 281.104C371.548 281.274 406.373 281.104 407.578 281.104C408.093 281.118 408.606 280.995 409.077 280.743C409.549 280.491 409.969 280.116 410.307 279.646C410.645 279.175 410.893 278.621 411.033 278.021C411.173 277.422 411.201 276.793 411.116 276.179C407.054 248.327 411.456 219.642 423.513 195.392C425.001 192.405 422.808 189.602 420.593 189.55C419.605 189.537 385.053 189.616 382.795 189.563Z" fill="#407BFF"/>
<path opacity="0.2" d="M382.795 189.563C382.247 189.549 381.706 189.715 381.232 190.046C380.757 190.376 380.366 190.857 380.103 191.436C367.208 217.533 362.58 248.38 367.076 278.275C367.145 279.03 367.436 279.73 367.896 280.249C368.356 280.768 368.955 281.071 369.584 281.104C371.548 281.274 406.373 281.104 407.578 281.104C408.093 281.118 408.606 280.995 409.077 280.743C409.549 280.491 409.969 280.116 410.307 279.646C410.645 279.175 410.893 278.621 411.033 278.021C411.173 277.422 411.201 276.793 411.116 276.179C407.054 248.327 411.456 219.642 423.513 195.392C425.001 192.405 422.808 189.602 420.593 189.55C419.605 189.537 385.053 189.616 382.795 189.563Z" fill="black"/>
<path d="M373.329 276.192C369.26 248.34 373.662 219.653 385.726 195.405C387.897 191.056 382.263 187.101 380.103 191.475C367.208 217.572 362.58 248.42 367.076 278.314C367.825 283.291 374.099 281.182 373.361 276.231L373.329 276.192Z" fill="#407BFF"/>
<g opacity="0.4">
<path d="M373.329 276.192C369.26 248.34 373.662 219.653 385.726 195.405C387.897 191.056 382.263 187.101 380.103 191.475C367.208 217.572 362.58 248.42 367.076 278.314C367.825 283.291 374.099 281.182 373.361 276.231L373.329 276.192Z" fill="white"/>
</g>
<path d="M330.678 242.02L364.232 279.021C366.544 281.641 370.018 277.423 367.684 274.856L334.13 237.829C331.818 235.274 328.355 239.427 330.678 241.994V242.02Z" fill="#263238"/>
<g opacity="0.5">
<path d="M330.678 242.02L364.232 279.021C366.544 281.641 370.018 277.423 367.684 274.856L334.13 237.829C331.818 235.274 328.355 239.427 330.678 241.994V242.02Z" fill="white"/>
</g>
<path opacity="0.2" d="M334.13 237.855C331.818 235.301 328.355 239.453 330.678 242.02L337.093 249.106H344.323L334.13 237.855Z" fill="black"/>
<path d="M313.179 243.867H359.228C363.418 243.867 363.418 236.008 359.228 236.008H313.179C308.989 236.008 308.978 243.867 313.179 243.867Z" fill="#407BFF"/>
<g opacity="0.3">
<path d="M313.179 243.867H359.228C363.418 243.867 363.418 236.008 359.228 236.008H313.179C308.989 236.008 308.978 243.867 313.179 243.867Z" fill="white"/>
</g>
</svg>
