<svg width="730" height="767" viewBox="0 0 730 767" fill="none" xmlns="http://www.w3.org/2000/svg">
<path d="M704.381 531.265L53.9007 485.445" stroke="black" stroke-miterlimit="10"/>
<path d="M87.2811 487.399V414.204" stroke="black" stroke-miterlimit="10"/>
<path d="M148.767 491.308V420.066" stroke="black" stroke-miterlimit="10"/>
<path d="M220.008 497.155V423.975" stroke="black" stroke-miterlimit="10"/>
<path d="M299.066 503.017V425.913" stroke="black" stroke-miterlimit="10"/>
<path d="M381.032 507.894V425.913" stroke="black" stroke-miterlimit="10"/>
<path d="M463.013 511.803V433.73" stroke="black" stroke-miterlimit="10"/>
<path d="M550.38 522.972V438.608" stroke="black" stroke-miterlimit="10"/>
<path d="M649.409 526.436V445.439" stroke="black" stroke-miterlimit="10"/>
<path d="M704.381 542.673L51.8035 494.247" stroke="black" stroke-miterlimit="10"/>
<path d="M683.902 734.344L703.396 736.616" stroke="black" stroke-miterlimit="10"/>
<path d="M48.8166 660.354L662.104 731.802" stroke="black" stroke-miterlimit="10"/>
<path d="M708.162 429.488L72.0446 402.209V55.5358L708.162 28.2563V429.488Z" fill="black"/>
<path d="M692.465 410.597L83.8334 386.877V70.8834L692.465 47.147V410.597Z" stroke="#FF7A00" stroke-miterlimit="10"/>
<path d="M281.526 106.711L113.115 111.477C112.113 111.447 111.127 111.216 110.217 110.797C109.306 110.378 108.489 109.78 107.815 109.039C107.14 108.297 106.622 107.428 106.29 106.482C105.959 105.536 105.821 104.533 105.886 103.533C105.886 99.0367 109.063 95.2872 113.115 95.1601L281.526 89.647C282.591 89.6567 283.643 89.8805 284.62 90.3052C285.597 90.7298 286.479 91.3466 287.213 92.1189C287.946 92.8912 288.517 93.8031 288.891 94.8005C289.266 95.7978 289.435 96.8603 289.39 97.9245C289.47 100.122 288.696 102.265 287.229 103.903C285.763 105.541 283.719 106.548 281.526 106.711Z" fill="#808080"/>
<path d="M180.384 101.34C180.444 100.317 180.296 99.2915 179.95 98.3266C179.603 97.3618 179.065 96.4771 178.367 95.7259C177.669 94.9747 176.827 94.3725 175.89 93.9558C174.953 93.539 173.942 93.3162 172.917 93.3008L113.131 95.255C109.143 95.3821 105.902 99.1316 105.902 103.628C105.837 104.628 105.975 105.631 106.306 106.577C106.638 107.523 107.156 108.392 107.831 109.134C108.505 109.875 109.322 110.473 110.233 110.892C111.143 111.311 112.129 111.542 113.131 111.572L172.917 109.84C175.018 109.662 176.969 108.677 178.361 107.093C179.753 105.508 180.478 103.447 180.384 101.34Z" fill="#FF7A00"/>
<path d="M281.526 139.868L113.115 143.379C109.127 143.475 105.886 139.9 105.886 135.435C105.783 133.385 106.479 131.374 107.826 129.825C109.174 128.275 111.069 127.308 113.115 127.126L281.526 122.932C282.593 122.941 283.646 123.166 284.624 123.591C285.602 124.017 286.485 124.635 287.218 125.409C287.952 126.183 288.523 127.097 288.896 128.096C289.269 129.095 289.437 130.16 289.39 131.225C289.453 133.403 288.668 135.521 287.201 137.133C285.735 138.745 283.7 139.725 281.526 139.868Z" fill="#808080"/>
<path d="M222.503 132.734C222.558 131.693 222.404 130.651 222.048 129.671C221.693 128.691 221.143 127.792 220.433 127.029C219.723 126.265 218.867 125.653 217.915 125.227C216.963 124.802 215.935 124.572 214.892 124.552L113.21 127.094C111.165 127.277 109.27 128.244 107.922 129.793C106.574 131.342 105.878 133.353 105.981 135.404C105.981 139.9 109.159 143.475 113.21 143.348L214.972 141.219C217.079 141.048 219.038 140.07 220.442 138.489C221.845 136.909 222.583 134.847 222.503 132.734Z" fill="#FF7A00"/>
<path d="M281.526 173.011L113.115 175.219C112.11 175.173 111.124 174.927 110.215 174.496C109.306 174.066 108.492 173.459 107.82 172.711C107.147 171.963 106.63 171.089 106.298 170.139C105.966 169.19 105.826 168.184 105.886 167.18C105.8 165.14 106.503 163.145 107.849 161.61C109.195 160.074 111.081 159.116 113.115 158.934L281.526 156.042C282.596 156.065 283.65 156.3 284.627 156.735C285.605 157.171 286.485 157.796 287.218 158.576C287.95 159.356 288.52 160.274 288.893 161.277C289.266 162.279 289.435 163.346 289.39 164.415C289.464 166.592 288.682 168.711 287.212 170.318C285.742 171.925 283.701 172.891 281.526 173.011Z" fill="#808080"/>
<path d="M252.181 164.971C252.228 163.917 252.064 162.865 251.7 161.875C251.336 160.885 250.778 159.978 250.059 159.206C249.34 158.434 248.475 157.812 247.514 157.378C246.552 156.944 245.514 156.706 244.46 156.678L113.131 158.934C111.097 159.116 109.211 160.074 107.865 161.609C106.519 163.145 105.816 165.139 105.902 167.18C105.842 168.184 105.982 169.19 106.314 170.139C106.646 171.089 107.163 171.963 107.835 172.711C108.508 173.458 109.322 174.065 110.231 174.496C111.14 174.927 112.126 175.172 113.131 175.219L244.46 173.503C246.605 173.368 248.612 172.4 250.055 170.807C251.497 169.213 252.26 167.119 252.181 164.971Z" fill="#FF7A00"/>
<path d="M281.526 206.169L113.115 207.058C112.109 207.004 111.123 206.751 110.215 206.314C109.306 205.878 108.493 205.267 107.822 204.515C107.15 203.764 106.633 202.888 106.301 201.936C105.969 200.985 105.828 199.978 105.886 198.971C105.776 196.93 106.472 194.928 107.824 193.395C109.176 191.862 111.076 190.92 113.115 190.773L281.526 189.185C282.597 189.215 283.651 189.458 284.628 189.899C285.605 190.34 286.484 190.97 287.216 191.753C287.947 192.537 288.516 193.457 288.889 194.461C289.263 195.466 289.433 196.534 289.39 197.605C289.472 199.781 288.692 201.901 287.22 203.505C285.747 205.108 283.701 206.066 281.526 206.169Z" fill="#FF7A00"/>
<path d="M323.835 105.487L300.766 106.154C299.694 106.155 298.633 105.939 297.647 105.519C296.661 105.099 295.77 104.484 295.028 103.711C294.285 102.937 293.707 102.022 293.328 101.019C292.949 100.017 292.777 98.9476 292.822 97.8767C292.763 95.6735 293.556 93.5324 295.036 91.8989C296.515 90.2654 298.568 89.2652 300.766 89.1066L323.835 88.3916C324.918 88.3795 325.992 88.5889 326.991 89.007C327.99 89.425 328.892 90.0428 329.644 90.8225C330.395 91.6022 330.979 92.5272 331.36 93.5409C331.741 94.5545 331.911 95.6353 331.859 96.7168C331.905 98.9297 331.097 101.075 329.603 102.708C328.109 104.341 326.043 105.336 323.835 105.487Z" fill="#FF7A00"/>
<path d="M323.835 138.979L300.766 139.456C299.689 139.457 298.622 139.239 297.631 138.815C296.641 138.391 295.747 137.77 295.004 136.99C294.261 136.21 293.684 135.287 293.309 134.277C292.934 133.266 292.768 132.191 292.822 131.114C292.76 128.917 293.554 126.781 295.036 125.157C296.517 123.532 298.572 122.547 300.766 122.408L323.835 121.836C324.918 121.841 325.989 122.065 326.984 122.493C327.979 122.921 328.878 123.545 329.627 124.328C330.375 125.111 330.959 126.036 331.342 127.05C331.726 128.063 331.901 129.142 331.859 130.225C331.92 132.44 331.117 134.593 329.62 136.227C328.122 137.861 326.048 138.848 323.835 138.979Z" fill="#FF7A00"/>
<path d="M323.835 172.455L300.766 172.756C299.689 172.738 298.626 172.505 297.64 172.07C296.655 171.636 295.766 171.009 295.026 170.226C294.286 169.443 293.71 168.52 293.331 167.511C292.953 166.502 292.78 165.428 292.822 164.352C292.757 162.159 293.551 160.028 295.035 158.413C296.519 156.799 298.576 155.828 300.766 155.709L323.835 155.312C324.92 155.33 325.99 155.564 326.984 156.001C327.977 156.437 328.873 157.068 329.62 157.854C330.367 158.641 330.95 159.569 331.334 160.584C331.718 161.599 331.897 162.68 331.859 163.764C331.928 165.975 331.126 168.125 329.625 169.751C328.124 171.376 326.045 172.347 323.835 172.455Z" fill="#FF7A00"/>
<path d="M323.835 205.962L300.766 206.073C299.687 206.044 298.624 205.802 297.639 205.36C296.653 204.917 295.766 204.284 295.027 203.497C294.288 202.709 293.713 201.783 293.334 200.772C292.956 199.76 292.782 198.684 292.822 197.605C292.753 195.418 293.548 193.291 295.035 191.686C296.521 190.08 298.58 189.125 300.766 189.025L323.835 188.819C324.922 188.843 325.994 189.084 326.987 189.525C327.981 189.967 328.877 190.602 329.623 191.392C330.369 192.183 330.951 193.114 331.335 194.131C331.719 195.149 331.897 196.232 331.859 197.319C331.928 199.525 331.124 201.67 329.622 203.288C328.12 204.906 326.041 205.867 323.835 205.962Z" fill="#FF7A00"/>
<path d="M114.449 86.7074L141.554 85.77" stroke="white" stroke-miterlimit="10"/>
<path d="M114.449 120.104L141.554 119.389" stroke="white" stroke-miterlimit="10"/>
<path d="M114.449 151.8L141.554 151.292" stroke="white" stroke-miterlimit="10"/>
<path d="M114.449 185.196L141.554 184.91" stroke="white" stroke-miterlimit="10"/>
<path d="M615.854 87.6131L638.574 86.9141" stroke="white" stroke-miterlimit="10"/>
<path d="M602.651 107.187L638.574 106.234" stroke="white" stroke-miterlimit="10"/>
<path d="M615.854 126.046L638.574 125.538" stroke="white" stroke-miterlimit="10"/>
<path d="M625.244 145.096L638.574 144.857" stroke="white" stroke-miterlimit="10"/>
<path d="M615.854 164.495L638.574 164.177" stroke="white" stroke-miterlimit="10"/>
<path d="M609.785 183.766L638.574 183.48" stroke="white" stroke-miterlimit="10"/>
<path d="M615.854 202.927L638.574 202.8" stroke="white" stroke-miterlimit="10"/>
<path d="M604.844 222.167L638.574 222.12" stroke="white" stroke-miterlimit="10"/>
<path d="M615.854 241.36L638.574 241.423" stroke="white" stroke-miterlimit="10"/>
<path d="M644.611 86.8027L651.506 86.5962" stroke="white" stroke-miterlimit="10"/>
<path d="M644.611 106.075L651.506 105.884" stroke="white" stroke-miterlimit="10"/>
<path d="M644.611 125.41L651.506 125.251" stroke="white" stroke-miterlimit="10"/>
<path d="M644.722 144.746L651.427 144.619" stroke="white" stroke-miterlimit="10"/>
<path d="M644.611 164.082L651.506 163.986" stroke="white" stroke-miterlimit="10"/>
<path d="M644.611 183.433H651.363" stroke="white" stroke-miterlimit="10"/>
<path d="M644.611 202.784H651.506" stroke="white" stroke-miterlimit="10"/>
<path d="M644.484 222.104H651.427" stroke="white" stroke-miterlimit="10"/>
<path d="M644.611 241.439H651.506" stroke="white" stroke-miterlimit="10"/>
<path d="M658.163 86.3102L669.968 85.9448" stroke="white" stroke-miterlimit="10"/>
<path d="M658.163 105.709L669.968 105.392" stroke="white" stroke-miterlimit="10"/>
<path d="M658.163 125.108L669.968 124.838" stroke="white" stroke-miterlimit="10"/>
<path d="M658.465 144.492L669.968 144.285" stroke="white" stroke-miterlimit="10"/>
<path d="M658.163 163.891L669.968 163.732" stroke="white" stroke-miterlimit="10"/>
<path d="M658.418 183.29L669.968 183.179" stroke="white" stroke-miterlimit="10"/>
<path d="M658.163 202.689H669.968" stroke="white" stroke-miterlimit="10"/>
<path d="M658.068 222.088H670.032" stroke="white" stroke-miterlimit="10"/>
<path d="M658.163 241.487H669.968" stroke="white" stroke-miterlimit="10"/>
<path d="M355.595 225.949L586.636 225.79" stroke="#999999" stroke-miterlimit="10"/>
<path d="M355.595 211.253L586.636 210.299" stroke="#999999" stroke-miterlimit="10"/>
<path d="M355.595 196.54L586.636 194.809" stroke="#999999" stroke-miterlimit="10"/>
<path d="M587.415 256.342V186.436C587.415 186.436 581.997 179.556 559.643 180.827C537.527 182.098 532.22 201.64 508.802 213.016C485.383 224.392 474.611 206.041 455.546 206.136C436.48 206.232 427.186 227.331 413.506 235.322C399.827 243.314 387.8 234.29 371.547 236.244C366.982 236.762 362.676 238.629 359.179 241.606C355.681 244.583 353.15 248.535 351.909 252.958L351.687 254.928L587.415 256.342Z" fill="#FF7A00"/>
<path d="M587.415 256.342V217.957C579.773 217.544 563.917 218.815 547.075 232.844C530.234 246.873 500.19 239.469 491.357 236.244C477.296 231.096 461.17 230.842 445.139 241.01C429.108 251.179 416.08 250.194 401.225 250.114C390.723 250.114 378.537 253.292 372.389 255.055L587.415 256.342Z" fill="#808080"/>
<path d="M410.694 365.254L369.592 363.967C367.679 363.844 365.887 362.987 364.59 361.575C363.294 360.163 362.593 358.305 362.633 356.388C362.601 355.456 362.758 354.527 363.094 353.657C363.429 352.786 363.937 351.993 364.587 351.324C365.237 350.655 366.015 350.124 366.875 349.763C367.735 349.402 368.66 349.218 369.592 349.223L410.694 350.351C412.64 350.461 414.467 351.32 415.794 352.748C417.121 354.175 417.844 356.06 417.812 358.009C417.838 358.956 417.672 359.9 417.325 360.782C416.978 361.664 416.457 362.467 415.792 363.143C415.128 363.82 414.334 364.355 413.458 364.718C412.582 365.08 411.642 365.262 410.694 365.254Z" fill="#808080"/>
<path d="M493.676 367.827L451.002 366.509C449.035 366.394 447.188 365.526 445.844 364.085C444.501 362.644 443.765 360.741 443.789 358.771C443.765 357.814 443.935 356.862 444.288 355.971C444.641 355.081 445.17 354.271 445.844 353.59C446.517 352.91 447.321 352.372 448.207 352.009C449.094 351.646 450.044 351.466 451.002 351.479L493.676 352.654C495.677 352.749 497.563 353.614 498.941 355.068C500.318 356.522 501.079 358.453 501.064 360.455C501.084 361.43 500.906 362.399 500.541 363.303C500.177 364.207 499.633 365.029 498.943 365.717C498.253 366.406 497.43 366.948 496.525 367.311C495.62 367.673 494.651 367.849 493.676 367.827Z" fill="#808080"/>
<path d="M578.041 370.465L533.746 369.083C531.711 368.988 529.794 368.107 528.397 366.624C527.001 365.142 526.235 363.175 526.262 361.139C526.245 360.154 526.427 359.175 526.797 358.262C527.168 357.349 527.719 356.52 528.418 355.825C529.117 355.131 529.95 354.585 530.865 354.22C531.781 353.855 532.76 353.68 533.746 353.703L578.041 354.927C580.098 355.001 582.046 355.87 583.474 357.352C584.903 358.834 585.7 360.812 585.699 362.871C585.721 363.879 585.537 364.882 585.159 365.818C584.782 366.753 584.217 367.602 583.501 368.312C582.784 369.023 581.931 369.58 580.992 369.95C580.054 370.32 579.049 370.495 578.041 370.465Z" fill="#808080"/>
<path d="M105.616 325.375L333.479 330.761" stroke="#999999" stroke-miterlimit="10"/>
<path d="M105.616 313.284L333.479 318.003" stroke="#999999" stroke-miterlimit="10"/>
<path d="M105.616 301.194L333.479 305.229" stroke="#999999" stroke-miterlimit="10"/>
<path d="M105.616 289.087L333.479 292.455" stroke="#999999" stroke-miterlimit="10"/>
<path d="M105.616 276.997L333.479 279.698" stroke="#999999" stroke-miterlimit="10"/>
<path d="M105.616 264.906L333.479 266.924" stroke="#999999" stroke-miterlimit="10"/>
<path d="M105.616 252.815L333.479 254.15" stroke="#999999" stroke-miterlimit="10"/>
<path d="M105.616 240.725L333.479 241.392" stroke="#999999" stroke-miterlimit="10"/>
<path d="M133.102 339.102L111.272 338.514V290.564L133.102 290.898V339.102Z" fill="#808080"/>
<path d="M164.067 339.928L141.904 339.34V277.489L164.067 277.759V339.928Z" fill="#FF7A00"/>
<path d="M195.509 340.77L173.012 340.166V267.241L195.509 267.464V340.77Z" fill="#808080"/>
<path d="M227.428 341.628L204.581 341.024V236.991L227.428 237.038V341.628Z" fill="#FF7A00"/>
<path d="M259.839 342.502L236.643 341.882V267.829L259.839 268.052V342.502Z" fill="#808080"/>
<path d="M292.759 343.392L269.197 342.756V291.407L292.759 291.756V343.392Z" fill="#FF7A00"/>
<path d="M326.203 344.281L302.26 343.646V312.22L326.203 312.68V344.281Z" fill="#808080"/>
<path d="M112.304 350.621L130.067 351.145" stroke="white" stroke-linecap="round" stroke-linejoin="round"/>
<path d="M143.159 351.542L161.191 352.082" stroke="white" stroke-linecap="round" stroke-linejoin="round"/>
<path d="M174.474 352.479L192.792 353.02" stroke="white" stroke-linecap="round" stroke-linejoin="round"/>
<path d="M206.281 353.417L224.87 353.973" stroke="white" stroke-linecap="round" stroke-linejoin="round"/>
<path d="M238.581 354.386L257.456 354.942" stroke="white" stroke-linecap="round" stroke-linejoin="round"/>
<path d="M271.374 355.371L290.55 355.943" stroke="white" stroke-linecap="round" stroke-linejoin="round"/>
<path d="M304.69 356.356L324.169 356.944" stroke="white" stroke-linecap="round" stroke-linejoin="round"/>
<path d="M605.479 274.359V262.952L636.476 263.19V274.661L605.479 274.359Z" fill="#FF7A00"/>
<path d="M605.479 290.311V278.919L645.231 279.348V290.851L605.479 290.311Z" fill="#808080"/>
<path d="M605.479 306.262V294.87L652.078 295.537V307.056L605.479 306.262Z" fill="#FF7A00"/>
<path d="M605.479 322.229V310.822L671.732 312.013V323.58L605.479 322.229Z" fill="#808080"/>
<path d="M605.479 338.181V326.789L652.078 327.774V339.293L605.479 338.181Z" fill="#FF7A00"/>
<path d="M605.479 354.132V342.74L637.446 343.535V355.006L605.479 354.132Z" fill="#808080"/>
<path d="M605.479 370.099V358.692L624.831 359.248V370.687L605.479 370.099Z" fill="#FF7A00"/>
<path d="M422.562 303.116C422.562 322.499 407.596 337.831 389.277 337.37C370.959 336.909 356.501 321.085 356.501 302.004C356.501 282.922 371.118 267.575 389.277 267.734C407.437 267.893 422.562 283.812 422.562 303.116Z" fill="#808080"/>
<path d="M390.85 267.829C390.326 267.829 389.818 267.734 389.262 267.734C371.102 267.575 356.485 282.922 356.485 302.004C356.485 321.085 371.102 336.957 389.262 337.37C389.802 337.37 390.31 337.37 390.85 337.37V267.829Z" fill="#FF7A00"/>
<path d="M412.204 302.878C412.204 316.224 401.908 326.821 389.277 326.535C376.647 326.249 366.574 315.381 366.574 302.179C366.574 288.976 376.71 278.347 389.261 278.522C401.813 278.696 412.204 289.595 412.204 302.878Z" fill="black"/>
<path d="M504.798 304.467C504.798 324.199 489.275 339.817 470.274 339.341C451.272 338.864 436.258 322.738 436.258 303.307C436.258 283.876 451.415 268.242 470.274 268.354C489.132 268.465 504.798 284.766 504.798 304.467Z" fill="#FF7A00"/>
<path d="M493.978 304.324C494.044 307.483 493.475 310.624 492.304 313.56C491.133 316.495 489.384 319.165 487.161 321.412C484.939 323.658 482.287 325.435 479.364 326.638C476.441 327.84 473.307 328.442 470.147 328.41C457.103 328.124 446.601 316.986 446.601 303.529C446.535 300.394 447.096 297.277 448.249 294.36C449.402 291.444 451.126 288.787 453.318 286.544C455.51 284.301 458.128 282.518 461.017 281.299C463.907 280.08 467.01 279.449 470.147 279.443C483.286 279.586 493.978 290.724 493.978 304.324Z" fill="black"/>
<path d="M590.004 305.944C590.061 310.654 589.17 315.327 587.383 319.685C585.597 324.044 582.953 327.999 579.607 331.314C576.262 334.63 572.284 337.239 567.91 338.986C563.536 340.734 558.855 341.583 554.146 341.485C544.645 341.139 535.652 337.113 529.064 330.259C522.477 323.405 518.812 314.259 518.843 304.752C518.792 300.091 519.669 295.466 521.422 291.147C523.176 286.828 525.77 282.9 529.055 279.593C532.34 276.285 536.25 273.664 540.558 271.882C544.865 270.1 549.484 269.192 554.146 269.211C563.751 269.391 572.9 273.346 579.611 280.221C586.322 287.095 590.056 296.337 590.004 305.944Z" fill="#808080"/>
<path d="M555.846 269.307C555.274 269.307 554.718 269.211 554.146 269.211C549.484 269.192 544.865 270.1 540.558 271.882C536.25 273.664 532.34 276.285 529.055 279.593C525.77 282.9 523.176 286.828 521.422 291.147C519.669 295.466 518.792 300.091 518.843 304.752C518.812 314.259 522.477 323.405 529.064 330.259C535.652 337.113 544.645 341.139 554.146 341.485C554.718 341.485 555.274 341.485 555.846 341.485V269.307Z" fill="#FF7A00"/>
<path d="M578.851 305.753C578.89 309.001 578.276 312.224 577.046 315.23C575.817 318.236 573.996 320.964 571.692 323.254C569.388 325.543 566.647 327.346 563.633 328.557C560.619 329.767 557.393 330.36 554.146 330.3C547.565 330.077 541.331 327.296 536.768 322.55C532.205 317.803 529.673 311.464 529.71 304.879C529.676 301.657 530.284 298.459 531.499 295.474C532.714 292.489 534.511 289.775 536.786 287.492C539.06 285.209 541.767 283.401 544.747 282.175C547.728 280.948 550.923 280.327 554.146 280.349C560.775 280.49 567.082 283.234 571.705 287.988C576.327 292.741 578.894 299.123 578.851 305.753Z" fill="black"/>
<path d="M382.223 304.181L397.317 304.451" stroke="white" stroke-miterlimit="10"/>
<path d="M463.188 305.579L478.853 305.849" stroke="white" stroke-miterlimit="10"/>
<path d="M545.693 307.009L561.947 307.295" stroke="white" stroke-miterlimit="10"/>
<path d="M463.887 119.183L463.998 117.975L463.648 118.325L463.887 119.183Z" fill="#808080"/>
<path d="M417.018 136.993L417.828 137.12L419.687 136.548L417.018 135.69L417.383 136.564L416.303 136.818L417.018 136.993Z" fill="#808080"/>
<path d="M438.069 151.769L433.97 150.18L433.239 150.609L433.35 149.989L432.032 149.099L430.522 149.735L431.015 148.988L429.887 148.67L429.521 149.179L430.22 147.828L429.362 145.938L428.393 145.096L426.232 144.81L424.644 143.221H423.833L423.976 142.697L423.15 142.363V141.997L422.69 141.854L421.609 142.315L419.83 141.854L418.924 141.012L418.765 141.426L418.003 141.95L418.193 142.871L417.605 142.665L417.844 141.823L417.764 141.378L417.907 141.251L418.05 140.854L416.461 141.727H416.191L414.92 143.65H414.809L414.46 143.141L413.681 142.744L412.887 143.094H411.997L411.091 141.902L411.425 139.249L410.805 138.756H408.581L408.359 138.613L408.692 137.215H408.804L409.455 135.086H408.104L406.865 137.009L405.149 137.311L404.514 136.977L403.608 135.515V132.052L403.449 131.241L403.592 130.622L405.483 129.144L407.326 129.557L407.58 129.335L408.073 129.716L407.834 129.049L408.708 128.636L408.931 128.811L409.661 128.683L410.186 129.097H410.567L411.091 128.89L412.49 132.068H412.919L413.157 131.305L412.378 128.127L414.904 125.283V124.87L415.047 124.632H415.429L415.572 124.251L415.19 123.599V123.297L414.825 122.757L415.047 122.535V121.693H415.238L415.333 123.075L415.588 122.884L415.699 121.772H416.096L416.382 120.962L417.51 120.501H416.668L417.558 120.152L417.844 119.882H418.304L418.161 119.389L418.59 118.356L419.321 117.641H420.02L421.609 116.418V116.688L422.118 116.895L420.99 117.483V118.197L421.72 118.023L422.245 117.483L423.532 117.054L423.77 116.99L424.517 116.656L424.31 116.402V115.957L423.404 116.879L422.419 116.704L421.816 116.164V115.497L421.561 115.29V115.036L422.118 114.21L419.703 114.718L418.479 115.941L419.877 114.098L420.465 113.892L420.878 113.32L424.374 113.018L426.916 111.429V111.159L426.757 110.984L426.947 110.635L426.646 110.142L426.058 110.254V109.729L424.644 110.285L424.517 110.031L425.962 109.348L423.246 107.632V107.457L423.69 107.171L421.943 103.994L421.434 104.661L421.244 105.408L421.053 105.646H420.719L420.163 106.043L419.242 105.233L419.004 104.121L419.194 103.565L417.923 103.168L416.763 102.119L416.207 102.341L414.507 102.119L414.269 102.596L414.634 103.025L414.333 103.644L414.714 104.582L414.158 105.948L414.984 106.695L415.111 108.093L414.237 109.046L413.459 109.396L413.904 111.413L413.792 111.954L413.872 112.271H413.618L413.316 112.684L412.855 112.494L411.87 111.064V109.586L411.552 109.189L406.945 107.378L406.119 107.68V107.362L405.467 106.027L404.863 105.869L405.213 103.597L407.104 101.579L405.419 100.832L407.342 101.15L407.485 100.594L408.295 100.721L409.09 99.7676L407.691 99.1162V98.7666L408.804 99.3545L409.63 98.6395L409.312 98.2741L409.741 98.0517L410.106 98.3377H410.694L410.392 97.8928L410.488 97.718L411.06 97.9246H411.536L412.362 97.2255L411.902 96.0816V95.8115L412.458 95.5732L412.124 94.9218L410.202 94.3498V94.9535L410.376 95.2713L410.281 95.5573L409.916 95.8433L409.646 96.4947L409.407 96.0975L409.328 96.6059L409.534 96.9872L409.153 97.3208L408.47 96.3835L408.708 96.0975V95.7003L408.343 95.2713L407.818 95.1442L407.358 96.1293L407.183 95.3666L407.39 94.8423L406.833 94.604L406.42 94.7311V94.1909L406.738 94.0479L405.912 93.3171V92.761L405.197 92.205L405.07 91.9349L405.467 91.5853L405.594 90.9498H406.452L407.262 89.6629L405.769 89.2021L404.609 89.4405L404.768 89.8218H404.403L404.704 91.9984L404.371 92.3797L404.546 92.7451H404.085V94.461L405.197 94.89L405.006 95.7321L405.276 95.4937L405.531 95.8433L404.609 96.5106V97.1302L404.307 97.3685L404.021 96.8601V96.3676L403.386 96.1769L403.799 96.0816L404.085 95.8274L404.72 95.7479L404.419 95.2078H403.974L404.434 95.0965L403.481 94.747L402.29 95.3825L403.195 96.0498L402.718 96.3993V96.8124L399.668 96.6535L399.175 96.3835L398.89 95.8909H397.984L397.174 96.3358L397.428 96.59L398.667 96.1134L397.761 96.6853V98.0517L397.412 97.8928V97.3685L393.583 97.1143L394.203 96.6059L393.996 96.1293L390.421 95.1919L388.547 95.5732V95.1601L388.372 94.6676L387.625 95.5891L386.799 94.3498L386.465 94.4769L385.862 95.2713L383.59 96.447L383.717 96.0975L385.655 94.8582H385.178L383.304 95.7638L382.89 95.5414L382.144 96.1928L382.366 96.5582L373.119 94.747L372.945 94.4293H372.007L371.737 94.175L371.038 94.3657L371.245 94.0797L370.816 93.8573L368.877 94.7152L369.004 95.0489L367.797 95.2078L367.161 95.8433L366.939 96.5264L365.557 96.876L365.414 97.2891L366.907 98.7825H367.829L368.004 99.3227L368.591 99.4498L366.78 99.8311V99.5134H366.097L365.795 99.8947H365.318L364.588 100.403L365.382 100.753L365.271 101.054L365.684 101.515H367.273L368.242 101.086L368.083 101.531V102.373L367.416 102.453L367.13 102.977L366.574 102.85L366.351 103.501L365.811 103.978L365.541 104.55L366.033 104.915V105.519L366.701 106.25L367.352 106.107L367.622 105.837L367.797 107.187H369.481L369.704 106.854H370.291L370.117 108.172L368.528 109.761L367.686 109.888L367.289 110.587L372.484 106.79L372.055 106.552L373.977 104.439L374.311 104.582V104.82L373.755 104.963L373.533 105.551V106.011L373.342 106.297L373.564 106.504L374.645 105.789H375.423V105.455L375.185 105.09L375.36 104.772L376.488 104.995L376.249 105.217V105.44L377.012 105.265L377.123 105.376L378.934 105.519L379.427 105.884L380.094 105.614L379.983 106.011L381.572 107.155L381.89 106.838L382.334 107.092V106.552H382.541V107.378L382.128 107.283L381.762 107.41L382.636 108.808V107.696L382.716 108.14L383.033 107.918V107.457L383.351 107.886L383.176 108.331L382.875 108.506V109.173L383.097 108.935L383.447 108.84L383.923 109.253L383.701 108.951V108.601L384.114 109.221L383.844 109.554L383.367 109.3L383.447 110.412L383.637 110.19L383.939 110.317L384.066 109.952L384.336 110.063L384.59 109.904V110.349H384.829L385.067 110.667L384.908 110.937L385.004 111.413H385.48L385.607 111.779L386.29 112.303L386.418 113.288L387.863 113.94L388.07 114.321L388.817 114.559L389.293 115.226L389.389 115.878L389.214 116.529L388.96 115.592V115.322L387.371 113.94L386.068 113.701L387.816 115.29L388.594 117.117L388.674 123.154L390.517 126.221L391.661 126.634L394.012 130.94H393.567L394.854 131.925L395.013 132.719L396.236 134.165L396.506 133.958L396.395 133.45L395.918 133.227L394.33 130.145V129.811L393.901 129.605L393.408 128.175H393.615L394.457 128.493L394.663 130.082L398.762 135.229V135.706L398.588 135.928L399.032 136.723L403.052 138.82H405.181L405.769 139.344L406.389 139.932L408.247 140.488L408.438 140.393H408.597L408.74 140.869L409.598 141.854V142.109L409.741 142.665L410.059 142.585L412.283 144.174L412.712 144.031L412.553 143.682L412.839 143.364L413.459 143.126L414.126 144.412L414.221 146.811L413.363 147.94V148.019L412.982 148.257L412.648 150.354L412.982 150.688H413.252L412.998 151.085L412.537 151.641L412.76 152.515L412.585 152.69L415.54 158.346L418.718 160.729L416.414 178.206L416.668 178.635L416.922 177.475L417.129 177.237L417.272 177.475L417.065 180.192L416.779 180.383V180.796L416.43 180.637L416.668 180.208L416.382 179.747L416.557 180.255L415.937 180.684V180.986L415.588 181.383H416.303V181.701L416.128 182.098H416.652V182.353H415.953L415.572 182.702L415.778 182.988L416.064 182.782H416.287L415.715 183.449L415.969 183.91L416.382 183.354L416.223 184.291L415.89 184.704V185.308L416.461 185.212L416.573 185.435L416.318 185.737H416.652H416.843L417.192 185.88L416.7 186.118L416.541 186.499L416.954 186.34H417.812L416.795 186.769V186.897L417.939 186.515L417.224 187.103H416.636V187.532L417.478 187.818L417.383 187.596L418.527 186.34L418.368 187.024H418.876L418.559 187.31V187.754L418.32 187.23L418.209 187.627L417.939 187.516L417.51 188.025L417.923 188.12L418.193 188.692L418.4 188.183L418.797 188.771L418.988 188.549L419.575 189.026V188.597L421.307 188.279L419.56 186.96V186.69L419.353 186.34L418.861 186.086V185.991H419.385L419.035 184.911L419.147 184.323L420.831 182.257L420.942 181.622L420.386 181.463L419.989 180.494L420.91 179.874L421.593 177.968L421.911 178.174L422.133 177.682L421.736 177.793L421.434 177.634L421.323 176.554L422.213 176.808L422.864 176.426V175.362L423.071 175.108L424.501 174.997L425.565 174.377L426.074 173.535L425.041 171.74H425.232L426.185 172.057L427.456 171.914L429.188 168.737V169.547L430.475 167.593L430.808 165.226L433.001 163.637L434.447 163.446L436.035 160.03L436.178 156.853L436.29 156.662L436.639 156.773L438.403 154.009L438.291 152.15L437.799 151.784L438.069 151.769Z" fill="#808080"/>
<path d="M416.398 135.626L412.664 133.736L410.694 134.578L411.647 134.054L414.317 135.213L414.587 135.722L416.398 135.626Z" fill="#808080"/>
<path d="M414.094 136.913L415.238 137.12L414.094 136.913Z" fill="#808080"/>
<path d="M420.449 136.85L421.371 136.818L420.449 136.85Z" fill="#808080"/>
<path d="M406.849 148.94L407.199 149.592L406.849 148.94Z" fill="#808080"/>
<path d="M445.997 92.8877L443.757 92.84L444.011 91.8073L446.061 92.5223L446.251 91.6643L444.79 90.2185L445.616 90.3139L446.156 89.6307L444.805 89.6466L444.551 89.2335L444.774 88.6933L446.013 89.0746L446.966 88.7886L446.219 88.0101L447.475 87.8354L447.618 87.3905L446.601 86.6914L447.586 86.469L447.316 85.2933L446.315 85.055L445.902 84.5625L448.205 84.3718L447.856 83.7045L446.918 83.498L447.697 83.2914L446.108 83.0849L446.458 81.8774L448.396 80.2886L448.015 79.7961L447.077 80.1615L447.84 79.6055L449.27 79.3195L448.221 79.0811L451.733 77.4288L449.794 76.8727L448.65 77.5241L447.49 77.6354L446.998 77.4447L444.933 79.0494L445.87 77.683L445.52 76.7615L442.994 78.0167L444.17 77.1428L439.928 77.54L446.315 75.983L437.37 74.855L436.417 75.4428L432.175 75.6335L432.731 76.2055L431.73 76.5709L433.16 77.5559L429.68 76.6026L430.363 77.4765L429.585 77.54L428.552 76.9363L428.504 77.7466L428.044 78.2073L427.742 76.9045L423.738 78.0802L423.897 79.0494L422.833 78.8905L420.306 80.5587L421.673 80.7494L421.212 81.941L417.335 83.3709L417.669 83.8475L420.974 84.5466L418.114 85.055L419.115 85.3251L419.131 85.8335L419.798 86.2307L422.674 85.8811L425.375 87.0092L427.345 90.2026L427.059 91.0129L427.329 91.8709L428.171 91.426L428.377 92.0615L429.442 92.6176L429.219 92.8877L427.726 92.8083L429.235 93.555L429.728 94.2064L429.617 95.0961L428.902 95.1597L427.996 96.5896L428.536 97.1297L428.107 97.7176L428.886 98.6232L428.981 99.7195L430.3 101.991L433.747 104.089L434.161 103.58L434.399 101.547L435.336 100.276L435.352 99.8148L435.575 99.5129L435.463 99.0363L435.543 98.7821L436.861 97.6382L437.132 97.6223L437.259 97.9559L438.307 97.6699L440.246 95.5886L445.79 93.2213L445.997 92.8877Z" fill="#808080"/>
<path d="M429.045 94.1114L428.6 93.6506L427.504 93.46L427.424 94.016L428.044 94.4132L429.045 94.1114Z" fill="#808080"/>
<path d="M406.452 88.09L408.009 88.5826L408.406 88.376L412.966 88.4237L413.459 87.391L407.834 87.0891L408.009 86.4853L405.34 85.6592L403.942 85.9293L406.436 87.105L406.452 88.09Z" fill="#808080"/>
<path d="M413.347 103.025L413.427 102.31L413.347 103.025Z" fill="#808080"/>
<path d="M400.812 94.6197L401.59 94.5561L399.732 93.2533L399.35 90.0122L398.27 90.33L398.969 90.9973L398.206 90.6795L397.618 90.6954L397.984 92.2365L397.634 92.586L397.221 91.5057L396.189 91.0767L396.618 91.601L395.966 91.6804L394.918 91.0608L394.552 91.6645L394.139 91.4898L394.234 90.7431L391.835 91.8711L391.676 92.316L392.153 93.158L393.456 92.9197L392.01 93.6188L395.505 94.2066L392.471 94.8421L395.712 96.272L398.175 95.3664L401.05 95.6206L400.685 95.0645L400.256 95.0487L400.812 94.6197Z" fill="#808080"/>
<path d="M411.187 102.468L412.124 101.722L411.187 102.468Z" fill="#808080"/>
<path d="M426.9 112.192L426.63 111.985L424.993 115.242L427.17 115.163L427.027 115.624L427.504 115.385L428.552 115.624L428.266 114.718L428.044 114.575L428.075 113.94L427.138 113.717L426.884 113.352L426.455 113.383L426.503 112.923L426.9 112.192Z" fill="#808080"/>
<path d="M422.006 113.526L423.547 114.082L422.006 113.526Z" fill="#808080"/>
<path d="M412.966 100.848L410.424 98.8774L409.804 99.3223L409.185 101.07L409.884 101.022L410.17 101.531L411.107 100.911L412.966 100.848Z" fill="#808080"/>
<path d="M400.065 88.2486L399.557 87.9468L400.065 88.2486Z" fill="#808080"/>
<path d="M415.826 96.9077L415.905 96.0498L415.19 95.875L414.682 96.8759L415.826 96.9077Z" fill="#808080"/>
<path d="M402.448 92.7451L403.433 92.4115L404.164 90.8227L403.831 90.7591L403.751 91.0133L403.068 90.7273L403.783 90.0283L403.386 89.4404L401.4 90.3301L402.003 90.8703L400.907 90.7909L402.448 92.7451Z" fill="#808080"/>
<path d="M389.341 93.6666L393.504 90.5208L392.82 89.8376L390.247 89.2656L388.515 89.631L388.769 90.2189L387.879 92.1572L389.341 93.6666Z" fill="#808080"/>
<path d="M407.707 84.7056L407.167 85.214L407.707 84.7056Z" fill="#808080"/>
<path d="M391.502 87.9471L392.36 87.2798L391.502 87.9471Z" fill="#808080"/>
<path d="M383.844 111.032L384.686 112.398L384.416 111.429L383.844 111.032Z" fill="#808080"/>
<path d="M405.864 84.5469L404.244 84.9441L405.864 84.5469Z" fill="#808080"/>
<path d="M418.05 92.2682L417.208 92.3159L414.682 90.8065L414.062 91.3626L413.729 91.2355L412.807 91.6009L412.839 90.5205L412.442 89.7738L411.361 89.8056L410.17 90.3775L410.345 91.3149L410.059 91.9187L410.646 92.3794L409.709 91.9822L409.582 91.1719L409.884 90.2504L410.44 89.6626L408.247 90.3617L407.739 92.586L408.915 92.8084L408.788 93.0944L407.961 93.2056L411.949 94.3018L412.521 94L413.776 94.1589L413.697 93.7617L413.824 93.4439L415.635 94.842L415.079 95.3981L415.953 95.0803L417.303 96.2878V97.4L418.225 97.2888L419.083 97.7495L418.273 98.2261L416.859 97.6701L416.716 98.7504L414.666 99.2906L414.348 100.101L416.954 99.9103L417.605 100.546L417.923 101.356L420.989 102.516L419.528 100.864L421.879 101.07L420.1 98.5439L420.259 97.829L421.053 98.1149L421.863 99.0047L423.023 98.4168L423.754 97.5747L419.909 95.0486L420.672 94.8261L420.036 94.4766L420.354 94.1747L420.052 93.6504L419.655 93.8888L419.75 93.3803L418.495 92.7925L417.78 92.9832L417.574 92.7925L418.05 92.2682Z" fill="#808080"/>
<path d="M412.744 89.6309L413.077 90.4094L413.919 90.6953L415.254 90.3935L413.84 89.6468L412.744 89.6309Z" fill="#808080"/>
<path d="M396.586 84.6739L396.252 84.4355L394.854 84.9916L395.585 85.5318L396.586 84.6739Z" fill="#808080"/>
<path d="M399.477 83.1648L400.208 83.5462L399.334 83.7368L402.544 84.3088L402.321 83.6097L401.066 82.7518L399.112 82.4976L399.477 83.1648Z" fill="#808080"/>
<path d="M394.552 84.8967L393.821 84.7378L394.552 84.8967Z" fill="#808080"/>
<path d="M399.652 85.5316L398.81 84.8008L399.652 85.5316Z" fill="#808080"/>
<path d="M393.281 86.9619L393.361 87.3909L392.884 87.9311L393.456 87.9152L392.471 88.3124L393.948 88.4077L394.377 88.2012L395.442 88.2488L394.632 88.789L394.6 89.3769L398.588 88.4077L398.794 87.089L398.175 87.375L397.158 86.1357L396.57 86.8507L396.618 87.2797L397.031 87.7404L393.869 86.5488L393.281 86.9619Z" fill="#808080"/>
<path d="M389.675 87.5815L390.501 87.1684L390.882 87.661L392.042 86.2628L392.201 86.8348L393.154 86.4058V85.9292L393.504 85.5797L393.059 85.3096L392.725 85.5638L391.994 85.5161L389.468 87.232L389.675 87.5815Z" fill="#808080"/>
<path d="M395.378 84.1813L396.983 83.8954L395.775 83.6094L394.727 84.1496L395.378 84.1813Z" fill="#808080"/>
<path d="M404.164 81.6555L404.704 82.3228H406.325L405.34 82.8947L407.437 83.9274L408.232 83.8639L409.36 82.577L410.297 82.1798L409.217 81.5125L408.962 80.9246L405.34 79.3994L405.404 79.6854L404.562 80.2891L404.657 80.9882L404.164 81.6555Z" fill="#808080"/>
<path d="M403.878 84.4674L404.863 84.2291L404.911 83.7524L403.163 83.1328L403.878 84.4674Z" fill="#808080"/>
<path d="M402.846 81.7347L402.099 81.4487L402.846 81.7347Z" fill="#808080"/>
<path d="M405.324 87.6133L403.926 88.2965L405.594 88.6937L405.324 87.6133Z" fill="#808080"/>
<path d="M401.813 85.9448L401.988 86.6757L401.336 86.5009L401.146 86.9616L400.812 87.0093L399.89 86.0719L399.827 86.8663L400.701 87.5495L402.035 87.4701L401.908 88.2644L403.068 88.2962L403.529 87.756L403.481 87.1205L402.846 86.1673L401.813 85.9448Z" fill="#808080"/>
<path d="M407.151 78.7481L407.469 78.8275L407.691 79.0659L407.517 79.5107L408.025 79.8761L409.439 79.892L409.598 80.1939L413.554 79.4631V80.0033L411.727 80.5275L412.426 81.3537L409.725 80.6705L409.757 81.6874L411.87 83.149L410.376 82.8631L408.947 83.6416H410.265L410.154 84.0388L410.789 84.8649L410.059 84.8014L409.089 84.2612L408.994 85.2939L407.866 85.9771L414.142 85.9135L414.396 85.3416L412.569 85.1509L412.585 84.7696L414.046 84.6743L414.142 84.0388L415.19 83.9275L416.303 82.5771L414.809 82.2593L416.064 81.8462L416.763 81.2266L417.844 81.2743L421.943 78.6051L420.275 78.5575L423.293 77.5406L423.452 76.9051L421.943 76.3649L420.672 76.6033L420.894 76.2061L410.122 77.4612L409.217 78.1603L408.359 78.049L407.914 78.4621L406.722 78.621L407.151 78.7481Z" fill="#808080"/>
<path d="M366.256 111.175L366.987 110.73L366.256 111.175Z" fill="#808080"/>
<path d="M372.69 107.457L372.198 108.109L371.801 108.299L372.039 108.776H372.325L373.04 108.156L372.833 107.791L373.231 107.568L373.119 107.267L372.69 107.457Z" fill="#808080"/>
<path d="M365.414 105.821L364.921 106.027L365.684 106.266L365.795 105.837L365.414 105.821Z" fill="#808080"/>
<path d="M460.519 120.628L460.026 120.835L460.519 120.628Z" fill="#808080"/>
<path d="M473.356 123.567L472.101 123.456L471.751 123.631L472.593 123.853L473.356 123.567Z" fill="#808080"/>
<path d="M477.646 123.711L477.963 123.298L477.947 123.17L477.137 123.472L476.867 123.933L477.646 123.711Z" fill="#808080"/>
<path d="M449.953 99.2592L450.843 98.3377L450.128 97.1143L449.746 97.162L449.206 96.876L449.143 97.2732L448.253 97.3844L447.967 97.2891L447.586 97.5909L447.363 97.4638L447.093 97.6704L447.03 97.9722L446.648 98.1788L446.505 97.6545L445.647 97.0349L445.727 97.4003L445.52 97.3844L445.155 97.5592L444.869 97.9881L446.092 98.1152L445.981 98.433L445.044 98.8302H445.87L446.235 99.275L445.759 99.7993L446.474 99.7517L447.506 100.181L449.953 99.2592Z" fill="#808080"/>
<path d="M453.274 111.223L454.942 110.555V108.951L455.371 108.633L455.053 107.918L453.703 108.204L453.973 108.506L453.512 108.776L452.908 108.808L453.242 109.745L453.083 110.285L452.702 110.73L453.274 111.223Z" fill="#808080"/>
<path d="M454.974 104.915L454.608 105.503L454.974 104.915Z" fill="#808080"/>
<path d="M454.846 105.789L455.244 106.154L455.037 106.631L455.339 106.981L454.878 107.394L455.275 107.219L455.514 107.6L455.832 107.092L455.879 107.537L455.673 108.188L456.499 108.077L456.88 108.903L456.832 109.491L456.261 109.523L456.086 109.634L455.911 110.047L456.245 110.285L455.704 110.73L455.927 111L456.848 111.159L456.896 111.318L456.276 111.429L455.546 112.462L455.975 112.176L456.388 112.271L456.642 111.969L457.5 111.747L457.945 111.858L459.375 111.302L459.136 111.175L459.184 110.794L459.645 110.158L458.771 109.809V109.459L457.404 107.251L456.88 107.171L457.532 105.598L456.467 105.582L456.276 105.376L456.705 104.82L456.801 104.438L456.547 104.709L455.927 104.74L455.18 105.916L454.846 105.789Z" fill="#808080"/>
<path d="M465.285 108.14L465.698 107.6L465.841 106.901L465.65 107.06L465.46 106.901L465.078 107.107L465.301 107.679L465.142 107.87L465.285 108.14Z" fill="#808080"/>
<path d="M469.225 105.042L468.844 105.9L469.225 105.042Z" fill="#808080"/>
<path d="M471.497 103.946L471.132 103.993L471.497 103.946Z" fill="#808080"/>
<path d="M471.02 104.804L471.608 104.343L471.243 104.232L471.02 104.804Z" fill="#808080"/>
<path d="M468.955 79.3356H471.036L469.845 79.8282L471.862 80.2254L474.039 78.8749L472.053 78.6048L471.735 78.7954L471.417 78.3824L471.306 79.0179L470.861 78.7478L470.385 78.7319L469.765 78.3506L469.797 78.6366L469.384 78.5254L469.4 78.8908L468.971 78.5571L468.732 78.8113L469.018 79.0814L468.955 79.3356Z" fill="#808080"/>
<path d="M464.999 81.5444L465.396 81.8462L464.649 80.9883L464.999 81.5444Z" fill="#808080"/>
<path d="M465.523 80.3682L465.19 81.0037L465.761 81.7028L466.572 81.7346L467.176 80.9243L467.223 81.3215L467.716 81.2421L467.938 81.4486L466.365 82.1953L466.874 82.4178L468.018 82.3224L466.445 82.8944L467.017 83.3869L467.573 83.4346L467.303 83.6888L467.763 83.9907L468.145 83.8477L469.479 81.3056L470.178 81.0514L470.29 81.1944L470.369 81.6869L470.576 81.9094L470.48 82.529L471.02 82.6402L471.338 82.958L472.546 82.1636L471.672 81.9411L471.576 81.6869L471.132 81.5122L470.814 81.1626L470.703 80.7972L469.241 80.2888L469.019 79.7963L468.558 80.0346L468.701 79.5738L468.113 79.3514L467.811 79.0654L467.589 79.6851L467.938 80.6542L466.921 79.5421L466.699 80.0664L466.54 80.1935L466.111 79.8122L466.588 79.5897L466.27 79.4785L465.38 79.5579L464.919 79.7963V80.4477L465.523 80.3682Z" fill="#808080"/>
<path d="M539.878 115.894L539.386 116.132L539.052 116.91V117.419L539.672 117.196L539.322 116.72L540.704 116.863L541.928 116.227L542.897 115.067L541.753 115.433L540.466 114.416L540.085 114.623L539.878 115.894Z" fill="#808080"/>
<path d="M533.19 123.774L532.935 124.235L533.269 124.044L533.587 125.49L534.238 124.362L534.111 123.949L533.714 123.615L533.19 123.774Z" fill="#808080"/>
<path d="M537.018 121.232L536.653 121.899L534.715 122.233L533.809 123.011V123.409L535.922 122.773L536.176 123.345L536.86 123.297L537.066 122.837L537.257 122.741L538.433 122.694L538.782 122.296L539.338 122.185L539.64 120.231L540.18 119.5L539.894 117.752L539.147 118.007L538.75 119.77L537.845 120.898L537.463 120.692L537.018 121.232Z" fill="#808080"/>
<path d="M535.001 124.044L535.509 123.806L535.906 123.218L535.318 123.154L534.762 123.345L534.683 124.219L535.001 124.044Z" fill="#808080"/>
<path d="M527.613 131.956L528.344 129.907L527.295 130.844L527.613 131.956Z" fill="#808080"/>
<path d="M521.544 134.435L521.846 133.64L521.131 133.608L520.559 134.514L521.544 134.435Z" fill="#808080"/>
<path d="M530.425 140.599L529.742 141.251L529.233 141.123L528.55 141.584L528.328 142.267L529.281 141.759L529.758 142.887L530.377 143.221L530.346 142.379L530.981 142.077L530.838 140.631L530.425 140.599Z" fill="#808080"/>
<path d="M527.073 136.024L527.39 137.422L529.233 138.359L529.932 140.043L530.393 139.471L530.234 138.677L529.17 137.597L528.36 137.454L528.058 136.85L528.455 135.912L528.328 134.626L527.47 134.562L527.359 136.103L527.073 136.024Z" fill="#808080"/>
<path d="M527.406 137.994L527.962 138.677L527.406 137.994Z" fill="#808080"/>
<path d="M526.326 140.266L525.579 141.362L526.644 140.25L526.803 139.535L526.326 140.266Z" fill="#808080"/>
<path d="M529.853 140.281L529.424 140.599L529.853 140.281Z" fill="#808080"/>
<path d="M529.233 139.726L528.344 138.963L528.376 139.853L528.693 139.662L528.82 140.901L529.456 139.837L529.233 139.726Z" fill="#808080"/>
<path d="M545.916 149.814L545.201 150.307L543.946 150.386L544.899 150.847L546.122 150.148L546.297 149.56L545.916 149.814Z" fill="#808080"/>
<path d="M546.694 149.735L546.503 149.067L546.329 149.115L546.694 149.735Z" fill="#808080"/>
<path d="M543.469 150.72L537.527 147.749L536.049 148.988L535.43 147.368L534.079 147.193L533.587 147.622L533.889 147.797L534.222 148.241L535.16 148.273L535.112 148.48L534.254 148.686L534.619 149.258L537.797 150.355L538.131 151.101L538.115 151.689L537.559 152.229L538.925 152.118L540.18 152.881L541.245 151.927L542.468 152.213L543.771 153.484L545.01 153.707L544.915 153.31L543.898 152.563L543.342 151.149L543.469 150.72Z" fill="#808080"/>
<path d="M504.528 140.917L504.289 142.395L504.591 143.364L505.481 142.41L504.528 140.917Z" fill="#808080"/>
<path d="M486.384 155.454L486.177 155.661L486.098 156.121L485.462 156.709L485.447 157.059L483.492 158.107L482.968 163.033L483.349 164.256L484.366 164.526L484.954 164.272L486.67 157.837L487.019 157.758L486.384 155.454Z" fill="#808080"/>
<path d="M488.878 139.344L489.466 139.201L488.878 139.344Z" fill="#808080"/>
<path d="M542.69 175.68L541.69 175.378L541.96 176.697L542.738 177.698L543.072 177.443L543.199 177.094L543.548 177.173L543.691 175.441L542.69 175.68Z" fill="#808080"/>
<path d="M533.094 154.692L533.857 154.485L533.094 154.692Z" fill="#808080"/>
<path d="M536.78 171.707L537.495 171.596L536.78 171.707Z" fill="#808080"/>
<path d="M546.948 165.718L546.774 164.129L545.487 162.699L545.28 162.016L545.042 161.81L544.708 161.841L544.136 160.427L542.786 159.554L541.674 156.312L541.213 156.328L540.466 153.834L540.085 154.311L539.64 157.758L539.132 158.537L536.335 156.726L536.431 155.852L536.812 155.534L537.003 155.089L536.875 154.771L536.653 155.041L536.431 154.692L535.986 154.914L534.302 154.168L534.524 154.597L533.618 154.914L532.792 156.201L532.824 156.757L532.141 156.869L531.124 156.027L530.79 156.249L530.616 156.551L530.155 156.583L530.06 156.869L529.774 157.091L529.662 157.742L529.233 157.695L529.329 158.187L529.138 158.537L528.916 158.044L528.455 158.314L528.423 159.077L527.581 160.03L524.006 161.524L523.689 162L523.625 161.603L523.323 162.08L523.244 163.875L523.577 164.749L523.228 164.415L523.403 164.876L522.99 164.527L524.594 168.721L524.467 169.595L524.133 170.151L524.292 170.58L524.721 170.993L525.849 171.104L533.65 168.403L535.398 169.07L535.43 169.468L535.954 170.024L536.097 170.755L537.67 169.452L537.05 170.913L537.59 170.85L537.924 170.659L537.845 171.374L538.274 171.342L539.084 173.09L540.879 173.821L541.626 173.328L541.864 173.44L541.975 173.63L542.134 173.503L542.722 174.059L543.548 173.217L544.772 172.963L546.948 165.718Z" fill="#808080"/>
<path d="M555.385 180.462L555.607 180.16L555.385 180.462Z" fill="#808080"/>
<path d="M486.177 93.1104L487.258 92.8403L486.733 92.4272L486.177 93.1104Z" fill="#808080"/>
<path d="M488.481 89.8535L488.576 90.3302L488.799 90.1077L489.99 90.9021L491.5 90.8545L490.705 90.0918L490.499 88.6937L492.135 86.1358L498.157 82.7993L491.023 85.1189L490.403 86.4217L489.911 86.7236L489.689 87.5657L488.767 88.2012L488.958 88.6461L487.893 89.4881L488.481 89.8535Z" fill="#808080"/>
<path d="M511.201 76.1421L510.422 76.2851L511.201 76.1421Z" fill="#808080"/>
<path d="M541.197 86.2944L540.434 85.5L539.465 86.0402L541.197 86.2944Z" fill="#808080"/>
<path d="M539.815 85.0552L539.259 85.3253L539.815 85.0552Z" fill="#808080"/>
<path d="M512.551 78.0171L512.154 78.605L514.807 79.4947L515.475 78.2554L514.172 77.5723L512.551 78.0171Z" fill="#808080"/>
<path d="M515.22 80.6544L518.779 79.6058L518.017 79.0656L517.175 79.288L517.238 78.9385L516.904 78.5254L516.285 78.7955L516.078 79.3357L515.633 79.717L515.22 80.6544Z" fill="#808080"/>
<path d="M538.035 84.3405L540.498 84.1022L540.45 83.3395L541.531 84.0386L541.944 83.4508L541.801 82.8947L540.53 82.6564L539.688 82.9265L538.56 82.3545L537.559 83.9274L538.035 84.3405Z" fill="#808080"/>
<path d="M540.99 107.394L540.609 106.615L540.244 113.717L540.625 113.272L541.133 113.749L540.625 112.398L540.8 111.334L541.499 111.239L541.69 111.111L540.99 107.394Z" fill="#808080"/>
<path d="M522.688 85.2617L522.338 85.5795L523.387 85.357L522.688 85.2617Z" fill="#808080"/>
<path d="M544.279 84.2292L545.693 83.8796L543.247 83.2759L542.833 83.7366L544.279 84.2292Z" fill="#808080"/>
<path d="M511.646 77.5086L511.503 77.7628L511.089 78.0012L511.614 78.3825L513.902 77.3021L514.06 76.746L513.377 75.7769L511.884 76.603L511.63 77.0638L511.646 77.5086Z" fill="#808080"/>
<path d="M567.793 94.5564L568.461 94.6994L568.333 94.5087H568.461H568.778L569.16 93.9527L567.189 92.9517H566.411L566.761 93.1583L566.681 93.5872L566.3 93.4125V92.7452L566.077 92.3956L557.577 89.5994L557.387 90.0284L557.673 90.5527L557.53 91.1882L556.132 90.4732L556.847 90.0919L556.1 89.7742L555.401 90.4097H552.128L552.017 91.0293L551.858 90.3938L551.079 90.1078L551.19 89.6788L550.221 88.7732L546.615 88.9798L546.456 88.662L544.74 88.09V87.8835L545.217 87.6134L543.326 87.3274L542.976 87.9788H542.341L542.802 87.6452L542.15 87.4386L542.468 87.2639H542.929L539.751 86.8031L539.624 87.105L538.56 87.7564H539.036L538.877 88.1059L539.052 88.5508H538.019L537.861 88.6938V88.9639L536.574 88.3919L535.89 88.662L534.683 88.2966L533.984 89.5041L533.619 89.377L532.204 87.8676H532.872L532.49 86.4695L532.093 86.1835H531.092L529.901 85.5798L529.329 86.2629V86.7555L526.358 86.8031L526.596 86.4854H523.514V86.8349L523.418 86.1994L523.117 86.1199L522.513 86.247L521.846 85.8816L521.178 86.3265L521.528 86.4218L518.97 87.4069L519.113 86.9461L522.29 85.0872L522.576 84.7218L523.275 84.3882L523.546 83.991L523.291 83.7685L523.577 83.6414L523.387 83.0377H523.005L522.878 82.4975L520.447 82.3545L520.066 82.6087L519.335 82.7199L519.748 82.0844L518.16 81.9573L518.875 81.6237V81.3695L517.778 81.0835L517 81.29L515.967 82.4498L516.078 82.7199L514.855 83.0218L515.236 83.3237L513.536 83.5302L513.695 83.1648L513.139 83.3396H512.758L511.82 83.6414L512.17 83.8956L508.706 84.976L508.627 85.1349L508.404 85.3097L508.563 85.5321H508.071L508.643 85.9293H508.198L508.643 86.3424V86.6284L505.29 87.0573L505.116 88.1854L505.894 88.6302L506.228 89.2499L503.495 88.3601L503.13 88.6938L503.686 88.9956L502.574 89.2657L503.876 90.2349L503.781 90.4255L503.114 90.0601H502.129L502.24 88.9798L501.986 88.1854L501.684 89.1386L501.001 89.5676L500.762 89.9648L501.43 90.8545L501.112 92.6181H501.557L502.224 92.4433L503.336 92.8246L503.559 93.333L503.289 93.8097L503.956 94.3022H503.304L503.05 93.905L503.193 93.4284L502.526 92.7611L501.636 93.0629L501.763 93.9527L500.318 95.7321H498.729L498.443 95.462L499.412 95.6368L500.731 94.3022L501.001 93.3171L500.54 92.7611L500.667 90.791L500.19 90.076L500.635 88.4872L498.808 88.2171L497.092 90.791L497.41 90.8704L497.124 92.1573L497.807 92.4274L498.046 92.9517L498.395 93.1424L498.046 93.7938L492.39 91.49L492.564 92.0302L493.359 92.491L493.613 93.0153L493.438 93.3807L492.739 93.762V93.1583L492.39 92.8723L491.516 93.3966H490.547L490.006 93.8414H489.228L489.641 93.0153L488.847 93.3012L488.735 93.6667L488.481 93.5078L485.987 94.6199L485.86 95.319L484.875 95.4938L484.43 95.0171V94.6041L485.351 94.3657L485.002 93.762L483.556 93.476L483.826 94.1751L483.604 94.9059L484.001 95.7003L483.826 96.2087H483.572L483.413 96.034L482.825 95.9227L481.411 96.8601L481.681 97.9405L480.394 97.7657L479.743 97.3527L479.393 97.7181L479.568 98.0994L480.124 98.29V98.6872L479.695 98.7826L478.726 98.3218L478.281 97.4798V96.6536L476.692 95.3031L480.283 96.3835L481.951 95.4938V94.7312L476.931 92.6022L477.36 92.4433L476.978 92.2685L476.232 92.3639H475.548L475.183 92.0461H475.469L476.247 91.7284L475.946 91.4106L475.215 91.1087L474.627 91.5218V91.1564L474.389 90.8069L473.69 91.6966V91.0928L472.784 91.9667L472.879 91.5536L473.245 91.0293V90.791L472.927 91.0928H472.53L472.418 91.347L471.91 91.6012L471.704 92.2368L471.497 91.8237L471.926 91.2199L471.259 91.4106V91.8396L471.1 91.9826H470.671L470.989 92.3003H470.718L470.417 92.0938L470.226 92.2368L470.353 92.6499L470.162 92.5227H469.845V92.1414H469.447L469.289 92.3321V92.634L469.098 92.7928L468.51 92.8882L468.224 93.3489H468.574L468.653 93.5872V93.7461H468.351L468.113 93.5872L467.795 93.7779L467.922 93.2377L466.333 94.6835H466.524L468.192 94.0798V94.4293L468.033 94.5405L467.811 94.4134L466.572 96.2087L466.476 96.6854L466.032 96.7807L465.952 97.8293L465.205 98.0517L465.523 98.433L464.84 98.7826L464.22 99.6882L463.903 99.4181V99.7835L463.045 100.26L463.347 100.514H462.854L461.901 101.102H461.678L461.424 101.404L461.647 101.722L461.472 102.898L461.774 102.993L462.171 102.818L462.282 103.009L461.98 103.295H461.758L461.567 103.485V103.867H462.187L461.901 104.28L462.504 104.804L463.172 104.979L464.22 104.057L464.618 103.962L464.761 103.485L466.159 107.394H466.604L466.985 106.79H467.461L467.795 106.488L467.986 106.583L468.256 105.869H468.049L468.129 104.502L469.304 103.009L468.764 102.341L468.367 102.23L468.288 101.499L469.32 99.5452L470.734 98.4013V97.7657L470.941 97.2414L471.322 96.8919L472.228 96.8125L472.689 97.019L472.895 97.5115L470.607 100.022V102.246L472.117 102.818L474.404 102.214L474.643 102.119L475.008 102.532L475.501 102.643L472.132 103.469L471.783 103.851L471.91 104.248L472.244 104.47L472.355 104.725V105.36L471.878 105.614L471.37 104.963L470.83 105.265L470.512 106.409V107.298L470.607 107.394L470.417 107.743H469.765V107.902L469.447 108.093L469.177 107.696L466.89 108.649L466.54 108.458V108.077L465.38 108.681L464.475 108.109L464.204 107.632H464.904L464.697 107.235H464.443L464.602 106.822L464.967 106.599L464.697 106.298V105.297L463.934 105.773V106.059L463.49 105.869L463.204 106.345L463.76 108.776L463.521 109.03H462.663V109.157L461.948 109.269L461.726 109.713H461.456L461.186 109.872L460.471 111.016L459.883 111.286L458.58 112.875L457.865 112.605L457.532 112.875L457.611 113.558H457.134L456.785 113.368H456.229L455.879 113.685V114.083L457.134 114.48L457.913 115.814L457.563 117.769L453.989 117.514L453.512 117.864V122.63H454.704L455.387 123.361L455.546 123.345L457.134 123.043L458.612 121.455V120.501L460.201 119.151L460.439 118.611V118.436L460.916 117.784L461.948 118.023L463.632 116.99L467.557 120.612V121.82L468.176 120.883L467.922 120.39L468.462 120.088H468.891L465.714 116.911V116.259L465.968 115.878H466.333L466.524 116.339L466.969 116.545L467.477 117.435L469.384 118.69L469.527 120.041L469.908 120.581L470.226 121.137L471.132 121.47H470.528L470.941 122.455L471.481 122.726L471.433 122.074H471.831L471.576 121.836L471.783 121.693H472.196L472.005 121.169H471.529L471.719 120.819L471.259 120.104L471.545 119.913H472.005L472.117 119.421L472.466 119.548L472.895 119.294L473.61 119.659L474.15 119.278L474.913 119.183L474.484 118.785L474.15 117.816L474.722 117.117V116.768L475.31 115.878L476.073 114.718L476.708 114.591V115.02L477.646 115.147L476.883 115.64L477.455 115.926V116.418L479.234 115.862L478.647 115.703L478.186 115.195L480.68 114.194L479.981 114.686L480.188 115.036L479.393 115.862L481.951 117.784L482.158 118.452L482.031 118.674L479.965 119.151L477.932 118.436L474.929 119.198L474.643 119.707L473.451 119.85L473.324 120.326L473.562 120.501V121.788L474.23 122.36L474.516 122.455L474.865 122.853L476.073 122.44L476.851 122.932L477.439 122.805L477.979 122.408L478.424 122.519L478.853 122.376L478.329 124.934L478.631 125.077L478.329 124.95L477.789 126.523L472.72 126.157L471.132 125.458L469.861 126.221L469.94 127.063L468.002 126.682L467.064 125.871L465.38 125.522L464.475 124.823L464.919 124.362L465.047 122.932L464.967 122.694L459.565 123.043L457.579 124.267L455.434 123.758L454.799 125.077L453.941 125.569L453.194 126.745V127.73L449.063 134.085L449.508 135.849L449.095 138.2L449.19 139.233V139.614V139.916L454.1 145.096L457.007 144.73L457.436 144.889L460.391 143.602L461.249 143.825L462.091 145.032L463.521 144.762L463.76 145.112L464.189 145.207L464.347 145.842L464.236 146.414L464.093 147.272L463.998 147.399L464.22 147.733L463.68 148.416L466.19 153.183L466.095 153.866L466.461 155.216L465.269 159.236L468.891 171.009L469.432 171.438L473.261 170.564L476.613 166.751L476.915 165.353L476.692 165.098L478.281 163.827L478.059 160.761L481.427 157.361L480.362 151.705L487.512 139.916L487.147 139.694L483.238 140.472L482.936 140.107L482.634 139.98L482.968 139.662L476.756 127.254L477.725 128.842L478.075 127.921L483.032 139.042L487.671 137.311L488.227 136.643L489.816 136.135L490.038 135.626L490.674 135.484L491.055 134.88L491.42 134.673L491.611 133.784L492.564 132.64V132.29L492.072 131.607L491.118 131.226L490.642 129.732L489.959 130.622L488.179 131.448H488.068L487.83 131.035V130.018L487.448 130.654L485.955 127.476V127.365L487.019 127.079L487.925 128.668L489.943 129.589L490.864 129.271L491.309 130.113L496.838 130.463L497.219 131.257L498.347 132.099H498.983L498.189 132.433L499.412 133.529L500.206 132.497L502.939 142.029L504.019 140.997L504.909 136.802L508.198 133.752L508.373 133.069L510.756 131.925L512.345 135.102L512.265 136.151L512.504 136.5H513.075L513.568 135.833L513.87 136.087L516.237 145.127L517.921 146.335L517.508 143.999L515.061 140.822L515.459 138.439L515.951 138.264L517.047 139.026L517.206 139.614H517.572V139.964H518.032L518.35 140.282L518.191 140.854L518.477 141.108L519.304 140.043L520.463 139.519L520.908 138.645L520.781 137.056L518.875 133.784L520.018 132.417L521.035 132.306L521.321 133.148L521.48 132.862L523.434 131.512L525.023 131.321L526.993 129.383V128.747L527.406 128.525L528.518 126.459L527.724 126.126L528.344 125.776L527.47 125.013H528.312L527.279 123.345L526.771 122.948L527.327 121.979L528.661 121.264L528.328 120.851L527.756 120.612L526.977 121.2L526.612 120.676L526.008 120.469V119.643L528.423 118.372L527.931 119.786H528.344L529.424 119.071H529.71L530.377 119.437L530.028 120.152L530.139 120.549L530.425 120.708L530.886 120.597H531.013L531.204 120.946L531.029 123.059L532.729 122.344L532.967 122.058L532.204 120.025L531.68 119.484L531.855 118.897L532.872 118.166L533.078 117.371L533.889 116.529L534.365 116.212L535.048 116.625L538.846 112.16L539.926 107.727L538.893 106.711H538.385L538.019 107.203H537.686V106.552L537.32 107.028L537.241 106.361H536.574V105.869L541.34 101.658L545.36 101.341L546.218 101.658L545.916 102.087L548.156 101.642L547.918 101.436V100.88L549.506 99.1003L550.491 98.9732L550.873 99.148L551.302 98.9414L551.016 99.5611L551.349 99.8153L551.19 100.085L552.89 99.1798L553.018 98.5284L554.034 98.0994V98.2583L549.824 102.866L549.268 103.009L548.521 105.344L549.189 109.364L550.11 108.363L550.237 107.68L550.634 107.378L551.079 107.267V106.711L551.635 106.091L552.35 105.932L552.239 105.281L552.668 104.47H553.129L552.843 104.041L552.954 102.945H552.573L552.493 102.262L553.447 100.816H553.971L554.193 100.927L554.781 100.276L554.908 100.848L555.464 100.483L556.942 100.324L557.387 100.721L557.625 100.324L561.518 97.9246H562.693V97.4003L561.406 95.7162L560.914 95.605L561.502 95.3985L561.819 95.7162H562.487L563.281 95.2396L563.456 94.89L563.345 94.5087V94.1751L563.567 93.9527H563.885V94.3022L564.091 94.747L565.68 95.0648L566.093 95.6209L566.999 96.0022H567.698L567.428 95.6368H567.714V94.6517L567.889 94.5723L567.793 94.5564Z" fill="#808080"/>
<path d="M499.857 87.5338L499.221 87.2637L498.967 87.788L499.857 87.5338Z" fill="#808080"/>
<path d="M504.417 87.6929L503.972 87.9153L504.417 87.6929Z" fill="#808080"/>
<path d="M414.364 132.322L414.158 132.512L414.571 133.196L414.364 132.322Z" fill="#808080"/>
<path d="M423.484 142.188L423.913 142.109L423.881 141.743L423.468 141.886L423.484 142.188Z" fill="#808080"/>
<path d="M520.209 148.94L519.907 149.099L520.209 148.94Z" fill="#808080"/>
<path d="M529.106 152.547L529.297 152.34L526.961 152.674L527.915 152.849L529.106 152.547Z" fill="#808080"/>
<path d="M525.627 152.372L525.087 152.452L524.817 152.817L525.659 152.944L526.485 152.658L525.627 152.372Z" fill="#808080"/>
<path d="M529.996 153.246L530.139 153.071L531.426 152.372L530.552 152.404L529.535 152.976L529.265 153.723L529.996 153.246Z" fill="#808080"/>
<path d="M531.855 148.988L533.412 149.385L532.999 148.718L531.855 148.988Z" fill="#808080"/>
<path d="M527.565 153.611L526.485 153.31L527.009 153.58L527.565 153.611Z" fill="#808080"/>
<path d="M530.663 149.036L531.378 149.242L530.663 149.036Z" fill="#808080"/>
<path d="M526.405 148.638L527.009 150.736L527.295 150.084L527.232 148.893L527.613 149.147L527.915 149.814L528.439 149.878L528.169 148.067L529.059 147.336L527.851 147.749L527.136 147.129L530.091 145.906L529.472 146.192L527.994 146.033L527.279 146.382L526.405 148.638Z" fill="#808080"/>
<path d="M531.95 145.922L531.553 145.684L531.855 147.114L532.3 146.097L531.95 145.922Z" fill="#808080"/>
<path d="M513.727 146.208L514.092 146.716L513.727 146.208Z" fill="#808080"/>
<path d="M514.569 147.86L514.839 148.209L514.569 147.86Z" fill="#808080"/>
<path d="M523.768 152.61L524.467 152.626L523.879 152.229L522.862 152.07L523.45 151.609L518.938 151.133L518.652 151.514L519.097 151.609L519.399 151.975L523.768 152.61Z" fill="#808080"/>
<path d="M520.543 146.605L521.909 149.02L522.37 149.258L523.148 149.147L523.895 149.528L524.737 149.353L525.532 146.875L526.421 146.303L525.675 144.206L526.66 143.475L526.262 143.109L525.738 142.951L525.214 142.458L524.308 143.761L524.006 143.92L523.593 143.856L523.085 144.778L522.227 145.08L521.846 145.922L520.924 145.683L520.543 146.605Z" fill="#808080"/>
<path d="M518.859 149.925L518.954 149.242L519.192 149.083L519.208 148.686L518.732 148.162L518.652 148.464L518.89 148.765L518.525 148.654L512.726 143.491L518.032 150.894H518.652L518.859 149.925Z" fill="#808080"/>
<path d="M466.953 121.661L466.254 121.677L465.777 121.963L467.017 122.742L467.398 121.693L466.953 121.661Z" fill="#808080"/>
<path d="M463.267 119.691L463.712 121.137L464.109 120.851L464.204 119.802L463.68 119.58L463.267 119.691Z" fill="#808080"/>
<path d="M400.462 112.065C400.49 113.826 399.836 115.53 398.637 116.821C397.438 118.112 395.787 118.89 394.028 118.992C393.173 118.992 392.326 118.82 391.539 118.486C390.752 118.152 390.041 117.663 389.448 117.047C388.854 116.431 388.391 115.702 388.086 114.904C387.781 114.105 387.641 113.253 387.673 112.398C387.64 110.649 388.282 108.953 389.465 107.664C390.648 106.374 392.282 105.589 394.028 105.471C394.889 105.46 395.744 105.624 396.541 105.953C397.337 106.283 398.058 106.77 398.66 107.387C399.262 108.004 399.732 108.737 400.042 109.541C400.352 110.345 400.495 111.204 400.462 112.065Z" fill="#FF7A00"/>
<path d="M410.456 139.821C410.457 140.631 410.149 141.412 409.594 142.003C409.038 142.594 408.278 142.95 407.469 142.998C407.071 142.999 406.676 142.919 406.309 142.763C405.943 142.608 405.611 142.381 405.334 142.095C405.056 141.809 404.84 141.47 404.696 141.098C404.553 140.727 404.485 140.33 404.498 139.932C404.496 139.124 404.802 138.345 405.354 137.755C405.906 137.165 406.662 136.807 407.469 136.754C407.868 136.754 408.263 136.834 408.631 136.989C408.998 137.144 409.331 137.371 409.61 137.657C409.888 137.943 410.106 138.282 410.252 138.653C410.397 139.025 410.466 139.422 410.456 139.821Z" fill="#FF7A00"/>
<path d="M483.047 137.755C483.083 140.731 481.955 143.604 479.905 145.761C477.854 147.918 475.043 149.19 472.069 149.306C470.616 149.312 469.177 149.028 467.836 148.469C466.495 147.91 465.28 147.087 464.262 146.051C463.245 145.014 462.445 143.783 461.911 142.432C461.378 141.081 461.12 139.637 461.154 138.184C461.118 135.219 462.237 132.355 464.274 130.2C466.311 128.044 469.106 126.766 472.069 126.634C473.526 126.621 474.972 126.9 476.319 127.456C477.666 128.013 478.888 128.834 479.912 129.871C480.936 130.908 481.741 132.141 482.28 133.495C482.818 134.849 483.079 136.298 483.047 137.755Z" fill="#FF7A00"/>
<path d="M504.575 95.4141C504.585 96.7019 504.092 97.9428 503.203 98.8739C502.313 99.8051 501.096 100.353 499.809 100.403C499.177 100.425 498.548 100.317 497.959 100.085C497.371 99.8537 496.837 99.5034 496.389 99.0563C495.942 98.6092 495.592 98.0748 495.36 97.4865C495.129 96.8982 495.021 96.2685 495.043 95.6366C495.038 94.35 495.531 93.1114 496.42 92.1811C497.309 91.2508 498.524 90.7012 499.809 90.6478C500.44 90.6279 501.069 90.7377 501.656 90.9702C502.244 91.2027 502.777 91.553 503.224 91.9997C503.67 92.4463 504.021 92.9797 504.253 93.5669C504.486 94.1542 504.595 94.7828 504.575 95.4141Z" fill="#FF7A00"/>
<path d="M516.078 123.551C516.092 125.018 515.534 126.432 514.522 127.494C513.511 128.555 512.126 129.182 510.661 129.239C509.946 129.248 509.237 129.113 508.576 128.843C507.914 128.572 507.314 128.172 506.81 127.665C506.307 127.158 505.91 126.556 505.643 125.893C505.377 125.23 505.246 124.52 505.259 123.806C505.249 122.345 505.807 120.937 506.814 119.879C507.822 118.821 509.201 118.195 510.661 118.134C511.376 118.121 512.086 118.252 512.749 118.52C513.412 118.787 514.015 119.186 514.52 119.692C515.026 120.197 515.425 120.8 515.692 121.463C515.96 122.126 516.091 122.836 516.078 123.551Z" fill="#FF7A00"/>
<path d="M538.576 91.3311C538.581 92.5898 538.099 93.8019 537.232 94.7139C536.364 95.6259 535.178 96.1672 533.92 96.2245C533.31 96.2374 532.704 96.1273 532.137 95.9007C531.571 95.6741 531.056 95.3357 530.623 94.9057C530.19 94.4757 529.848 93.9629 529.617 93.3979C529.387 92.8329 529.272 92.2272 529.281 91.6171C529.292 90.3736 529.779 89.1815 530.642 88.286C531.505 87.3906 532.678 86.8599 533.92 86.803C534.526 86.7838 535.13 86.8869 535.695 87.106C536.26 87.3252 536.775 87.6559 537.209 88.0785C537.644 88.5011 537.989 89.0069 538.224 89.5658C538.458 90.1246 538.578 90.725 538.576 91.3311Z" fill="#FF7A00"/>
<path d="M519.256 747.69C542.552 747.69 561.438 741.829 561.438 734.598C561.438 727.368 542.552 721.507 519.256 721.507C495.959 721.507 477.074 727.368 477.074 734.598C477.074 741.829 495.959 747.69 519.256 747.69Z" fill="#079315"/>
<path opacity="0.5" d="M519.256 747.69C542.552 747.69 561.438 741.829 561.438 734.598C561.438 727.368 542.552 721.507 519.256 721.507C495.959 721.507 477.074 727.368 477.074 734.598C477.074 741.829 495.959 747.69 519.256 747.69Z" fill="white"/>
<path d="M485.288 665.232C480.164 673.842 477.519 683.701 477.646 693.719C477.646 717.98 491.945 737.665 509.533 737.665C527.12 737.665 541.419 717.98 541.419 693.719C541.549 683.692 538.91 673.824 533.793 665.2L485.288 665.232Z" fill="#455A64" stroke="black" stroke-linecap="round" stroke-linejoin="round"/>
<path d="M534.222 666.344C534.445 670.268 523.625 673.494 510.057 673.541C496.489 673.589 485.319 670.443 485.097 666.519C484.875 662.594 495.678 659.385 509.247 659.337C522.815 659.29 534 662.42 534.222 666.344Z" fill="#455A64" stroke="black" stroke-linecap="round" stroke-linejoin="round"/>
<path d="M532.268 669.236C528.201 666.837 519.653 665.184 509.818 665.232C499.984 665.28 491.293 667.027 487.576 669.538C491.643 671.937 500.206 673.573 510.025 673.541C519.844 673.51 528.63 671.73 532.268 669.236Z" fill="black" stroke="black" stroke-linecap="round" stroke-linejoin="round"/>
<path d="M450.366 456.99C450.366 456.99 453.321 462.598 450.684 467.857C448.047 473.116 444.774 478.391 446.744 481.028C448.714 483.665 454.688 486.954 453.989 492.547C453.289 498.139 445.425 509.34 450.366 515.6C455.307 521.86 463.537 521.526 463.855 528.437C464.173 535.349 455.911 540.941 458.262 547.201C460.614 553.461 474.15 554.779 474.15 559.053C474.15 563.327 468.875 567.935 473.165 572.558C477.455 577.181 498.141 589.177 501.112 584.251C504.083 579.326 510.025 565.631 506.117 546.248C505.449 542.991 500.81 542.26 500.159 537.652C499.507 533.045 501.477 524.815 498.173 520.176C494.868 515.536 484.35 513.916 483.699 510.293C483.047 506.671 487.639 497.79 483.032 492.181C478.424 486.573 467.557 483.951 467.557 480.345C467.557 476.738 470.861 472.099 466.238 467.174C461.615 462.249 450.366 456.99 450.366 456.99Z" fill="#079315"/>
<path d="M466.127 495.804C472.99 516.458 484.986 544.532 489.863 558.084C495.79 574.544 500.985 586.46 503.575 602.92C504.798 610.578 505.767 638.493 506.45 666.185" stroke="black" stroke-linecap="round" stroke-linejoin="round"/>
<path d="M452.003 458.992C452.003 458.992 457.611 463.599 462.536 483.681C462.87 484.968 463.235 486.335 463.632 487.765" stroke="black" stroke-linecap="round" stroke-linejoin="round"/>
<path d="M553.272 494.517C552.603 495.861 552.232 497.333 552.186 498.833C552.139 500.333 552.417 501.825 553.002 503.208C555.115 507.434 557.768 511.644 556.179 513.757C554.59 515.87 549.824 518.524 550.396 522.972C550.968 527.421 557.244 536.413 553.288 541.418C549.332 546.423 542.754 546.184 542.484 551.697C542.214 557.211 548.839 561.707 546.964 566.712C545.089 571.716 534.254 572.765 534.254 576.244C534.254 579.724 538.464 583.362 535.048 587.048C531.632 590.734 515.046 600.362 512.678 596.406C510.311 592.45 505.545 581.519 508.675 565.997C509.199 563.391 512.917 562.819 513.441 559.117C513.965 555.415 512.392 548.838 515.03 545.152C517.667 541.466 526.151 540.147 526.612 537.208C527.073 534.268 523.434 527.183 527.136 522.718C530.838 518.254 539.529 516.125 539.529 513.185C539.529 510.246 536.891 506.592 540.577 502.636C544.263 498.68 553.272 494.517 553.272 494.517Z" fill="#079315"/>
<path d="M540.657 525.562C535.175 542.133 525.563 564.567 521.591 575.402C516.825 588.573 512.726 598.122 510.613 611.293C509.564 617.87 508.754 643.227 508.198 666.9" stroke="black" stroke-linecap="round" stroke-linejoin="round"/>
<path d="M551.953 496.106C551.953 496.106 547.473 499.792 543.533 515.855C543.262 516.903 542.976 517.984 542.643 519.143" stroke="black" stroke-linecap="round" stroke-linejoin="round"/>
<path d="M462.679 569.126C463.236 570.25 463.543 571.481 463.579 572.734C463.615 573.988 463.378 575.234 462.886 576.387C461.138 579.914 458.93 583.426 460.248 585.189C461.567 586.953 465.539 589.145 465.094 592.895C464.649 596.644 459.375 604.127 462.679 608.306C465.984 612.484 471.481 612.262 471.704 616.885C471.926 621.509 466.413 625.258 467.954 629.437C469.495 633.615 478.519 634.505 478.519 637.381C478.519 640.256 474.992 643.323 477.868 646.405C480.744 649.487 494.566 657.527 496.552 654.222C498.538 650.917 502.51 641.782 499.889 628.801C499.46 626.625 496.346 626.132 495.917 623.05C495.488 619.968 496.79 614.47 494.598 611.388C492.405 608.306 485.351 607.21 484.906 604.779C484.461 602.348 487.544 596.422 484.461 592.672C481.379 588.923 474.118 587.175 474.118 584.728C474.118 582.282 476.327 579.231 473.245 575.926C470.162 572.622 462.679 569.126 462.679 569.126Z" fill="#079315"/>
<path d="M473.213 595.055C477.804 608.893 485.828 627.641 489.101 636.697C493.073 647.708 496.505 655.667 498.268 666.678" stroke="black" stroke-linecap="round" stroke-linejoin="round"/>
<path d="M463.775 570.445C463.775 570.445 467.509 573.528 470.814 586.953C471.036 587.811 471.275 588.732 471.545 589.685" stroke="black" stroke-linecap="round" stroke-linejoin="round"/>
<path d="M576.055 563.645C575.254 564.607 574.671 565.732 574.347 566.942C574.023 568.152 573.966 569.418 574.18 570.652C575.086 574.496 576.42 578.421 574.736 579.835C573.052 581.249 568.683 582.488 568.254 586.19C567.825 589.892 571.257 598.439 567.094 601.744C562.932 605.049 557.562 603.587 556.338 608.099C555.115 612.611 559.516 617.457 557.117 621.175C554.718 624.893 545.662 623.685 545.01 626.466C544.359 629.246 547.076 633.059 543.596 635.41C540.117 637.762 524.785 642.417 523.609 638.747C522.433 635.077 520.654 625.274 526.167 613.247C527.105 611.229 530.219 611.467 531.362 608.56C532.506 605.652 532.475 600.012 535.319 597.438C538.162 594.865 545.28 595.484 546.249 593.228C547.219 590.972 545.598 584.49 549.427 581.551C553.256 578.611 560.755 578.564 561.311 576.196C561.867 573.829 560.421 570.334 564.187 567.824C567.952 565.313 576.055 563.645 576.055 563.645Z" fill="#079315"/>
<path d="M559.865 586.476C552.239 598.9 540.132 615.313 534.874 623.384C528.518 633.186 520.861 639.462 519.097 650.393C518.557 653.761 518.096 659.926 517.699 666.884" stroke="black" stroke-linecap="round" stroke-linejoin="round"/>
<path d="M574.704 564.678C574.704 564.678 570.351 566.823 564.06 579.136C563.662 579.93 563.218 580.724 562.725 581.63" stroke="black" stroke-linecap="round" stroke-linejoin="round"/>
<path d="M242.188 766.803C278.418 766.803 307.788 758.075 307.788 747.308C307.788 736.542 278.418 727.814 242.188 727.814C205.957 727.814 176.587 736.542 176.587 747.308C176.587 758.075 205.957 766.803 242.188 766.803Z" fill="#1400FF"/>
<path opacity="0.5" d="M242.188 766.803C278.418 766.803 307.788 758.075 307.788 747.308C307.788 736.542 278.418 727.814 242.188 727.814C205.957 727.814 176.587 736.542 176.587 747.308C176.587 758.075 205.957 766.803 242.188 766.803Z" fill="white"/>
<path d="M172.599 513.582C172.599 513.582 175.316 537.605 176.475 550.013C177.635 562.421 180.733 597.677 180.352 601.95C179.971 606.224 176.094 650.52 176.094 667.567C176.094 684.615 178.414 708.653 178.414 708.653C178.414 708.653 174.537 715.231 175.316 718.726C176.098 721.647 176.629 724.628 176.904 727.639C176.989 729.215 177.251 730.777 177.683 732.294C177.683 732.294 183.498 736.171 186.993 736.552C190.489 736.934 197.447 734.614 197.447 733.454C197.447 732.294 200.546 720.664 200.546 716.391C200.546 712.117 200.546 713.69 201.721 707.875C202.897 702.06 215.274 621.715 216.831 614.343C218.388 606.971 220.707 551.57 220.707 551.57L223.424 556.607C223.424 556.607 230.002 615.9 229.62 622.493C229.239 629.087 226.903 654.269 228.032 665.899C229.16 677.529 231.527 706.207 231.527 709.305C231.527 712.403 230.748 719.378 230.748 722.094C230.748 724.811 228.429 729.069 229.589 731.007C230.54 732.87 231.316 734.817 231.908 736.822C231.908 736.822 245.874 739.142 249.734 739.142C253.595 739.142 256.725 735.663 256.725 735.663V729.069C256.725 725.574 257.488 722.476 257.488 718.996C257.488 715.517 257.885 708.145 257.885 702.711C258.128 697.517 258.659 692.34 259.474 687.205C259.871 683.725 265.289 643.036 266.067 627.911C266.846 612.786 270.325 578.659 270.325 573.273C270.325 567.887 269.944 517.078 269.944 517.078L269.165 507.767C269.165 507.767 228.476 513.201 209.093 510.484C189.71 507.767 173.822 506.989 173.822 506.989L172.599 513.582Z" fill="black" stroke="black" stroke-linecap="round" stroke-linejoin="round"/>
<path d="M198.925 727.29C198.007 728.092 196.922 728.679 195.747 729.006C193.618 729.641 192.331 730.07 190.631 727.719C188.931 725.368 185.5 722.603 182.688 723.874C179.875 725.145 176.714 727.052 176.078 728.64C175.443 730.229 175.856 745.72 175.856 748.723C175.856 751.725 181.623 752.981 187.39 753.203C191.027 753.248 194.595 752.208 197.638 750.216C197.638 750.216 202.547 750.629 204.263 748.5C205.979 746.371 205.121 741.446 204.041 739.746C202.96 738.046 202.134 736.568 200.625 733.55C199.689 731.582 199.113 729.461 198.925 727.29Z" fill="white" stroke="black" stroke-linecap="round" stroke-linejoin="round"/>
<path d="M204.263 748.437C204.835 747.618 205.16 746.654 205.201 745.656C202.389 746.943 199.068 746.133 197.86 746.308C196.367 746.514 192.951 748.866 185.261 748.437C182.008 748.324 178.806 747.596 175.824 746.292C175.824 747.34 175.824 748.167 175.824 748.659C175.824 751.646 181.591 752.917 187.359 753.139C190.995 753.184 194.563 752.144 197.606 750.152C197.606 750.152 202.547 750.566 204.263 748.437Z" fill="#1400FF" stroke="black" stroke-linecap="round" stroke-linejoin="round"/>
<path d="M196.78 750.153L197.638 739.889" stroke="black" stroke-linecap="round" stroke-linejoin="round"/>
<path d="M192.363 729.308C191.641 728.95 191.03 728.401 190.6 727.719C188.884 725.368 185.468 722.603 182.656 723.874C180.411 724.818 178.351 726.152 176.571 727.814C177.492 730.452 179.748 735.107 184.149 735.409C187.803 735.663 190.6 732.501 192.363 729.308Z" fill="#1400FF" stroke="black" stroke-linecap="round" stroke-linejoin="round"/>
<path d="M256.947 732.168C256.947 732.168 253.77 733.026 252.038 731.961C250.306 730.897 247.764 724.494 241.997 725.129C236.23 725.765 233.672 731.103 232.464 731.754C231.257 732.406 230.971 732.597 230.542 733.248C230.113 733.899 229.906 751.185 230.113 752.901C230.319 754.617 242.505 756.301 249.988 755.459C257.472 754.617 260.014 751.392 260.665 750.963C261.718 750.551 262.635 749.855 263.314 748.951C263.993 748.048 264.407 746.973 264.51 745.847C264.939 742.002 263.652 737.728 261.507 736.235C260.15 735.277 258.87 734.215 257.678 733.057L256.947 732.168Z" fill="white" stroke="black" stroke-linecap="round" stroke-linejoin="round"/>
<path d="M248.686 750.534C242.34 750.734 236.012 749.765 230.017 747.674C230.017 750.248 230.017 752.345 230.017 752.901C230.24 754.601 242.41 756.301 249.893 755.459C257.376 754.617 259.918 751.392 260.57 750.963C261.623 750.551 262.54 749.854 263.219 748.951C263.898 748.047 264.312 746.972 264.415 745.847C264.502 744.885 264.502 743.917 264.415 742.955C264.097 743.606 263.731 744.306 263.318 744.989C262.143 747.118 258.933 750.327 248.686 750.534Z" fill="#1400FF" stroke="black" stroke-linecap="round" stroke-linejoin="round"/>
<path d="M257.075 743.241L255.835 753.822" stroke="black" stroke-linecap="round" stroke-linejoin="round"/>
<path d="M242.648 737.728C246.477 738.173 250.592 735.139 252.88 732.311C252.583 732.237 252.299 732.119 252.038 731.961C250.322 730.897 247.764 724.494 241.997 725.129C236.23 725.765 233.672 731.103 232.464 731.754C232.448 731.754 237.151 737.093 242.648 737.728Z" fill="#1400FF" stroke="black" stroke-linecap="round" stroke-linejoin="round"/>
<path d="M220.66 551.57L211.349 546.915" stroke="#636363" stroke-linecap="round" stroke-linejoin="round"/>
<path d="M240.329 332.89C240.329 332.89 242.664 329.013 243.506 334.05C244.348 339.086 242.331 344.504 239.63 346.442C236.929 348.381 235.753 346.442 235.753 344.504C235.753 342.566 240.329 332.89 240.329 332.89Z" fill="white" stroke="black" stroke-linecap="round" stroke-linejoin="round"/>
<path d="M194.985 334.828C194.464 334.632 193.9 334.576 193.35 334.666C192.801 334.756 192.284 334.989 191.853 335.341C191.422 335.693 191.091 336.153 190.893 336.674C190.695 337.194 190.638 337.758 190.727 338.308C190.727 342.963 196.923 349.556 199.64 347.999C202.357 346.442 194.985 334.828 194.985 334.828Z" fill="white" stroke="black" stroke-linecap="round" stroke-linejoin="round"/>
<path d="M217.466 289.468C217.466 289.468 211.413 299.541 205.074 302.258C196.923 305.753 190.346 316.223 190.774 324.739C191.203 333.255 203.564 361.17 205.503 361.949C207.441 362.727 231.86 360.789 232.639 359.629C233.417 358.469 236.897 346.839 239.995 335.591C243.093 324.342 243.093 318.543 243.093 318.543C244.218 314.907 244.755 311.115 244.682 307.31C244.445 302.726 242.671 298.355 239.646 294.902L234.99 300.717L236.579 287.546C233.354 287.16 230.092 287.835 227.285 289.468C224.527 291.299 222.049 293.52 219.929 296.062L217.466 289.468Z" fill="black" stroke="black" stroke-linecap="round" stroke-linejoin="round"/>
<path d="M353.498 299.954C352.926 298.223 351.194 298.223 349.748 294.473C348.302 290.724 344.267 291.597 343.107 291.01C341.947 290.422 341.963 289.866 342.535 288.134C343.107 286.402 344.553 280.635 341.963 280.635C339.374 280.635 337.34 286.688 336.768 288.134C335.185 290.733 333.45 293.238 331.573 295.633C330.343 295.94 329.088 296.132 327.823 296.205C326.393 296.205 324.645 299.096 324.375 300.526C324.185 301.432 325.583 304.371 326.663 306.437C327.147 308.153 327.73 309.84 328.411 311.489C328.411 311.489 329.841 313.507 334.178 312.935C338.516 312.363 346.571 318.13 347.731 317.256C348.89 316.382 351.48 311.203 352.624 308.327C353.717 305.679 354.021 302.771 353.498 299.954Z" fill="white" stroke="black" stroke-linecap="round" stroke-linejoin="round"/>
<path d="M166.959 540.989C166.959 540.989 172.202 548.933 172.488 552.015C172.774 555.097 172.758 560.849 173.028 562.771C173.298 564.694 172.202 566.092 170.835 566.092C170.385 566.049 169.951 565.902 169.568 565.662C169.184 565.422 168.862 565.096 168.627 564.71C168.786 566.29 169.063 567.857 169.453 569.397C169.993 571.335 173.028 572.987 172.758 574.91C172.488 576.832 169.453 577.674 165.306 577.674C162.803 577.658 160.362 576.892 158.298 575.477C156.234 574.061 154.641 572.059 153.724 569.73C151.246 563.947 148.767 547.392 148.767 544.31C148.767 541.227 164.21 538.781 166.959 540.989Z" fill="white" stroke="black" stroke-linecap="round" stroke-linejoin="round"/>
<path d="M161.175 551.189C161.175 551.189 162.272 553.667 160.063 557.544C158.57 559.835 157.454 562.351 156.759 564.996C157.372 566.922 158.204 568.771 159.237 570.509C160.349 572.717 164.003 572.447 164.21 574.385C164.406 575.426 164.208 576.502 163.654 577.404" stroke="black" stroke-linecap="round" stroke-linejoin="round"/>
<path d="M164.655 562.994C164.904 565.161 165.4 567.293 166.132 569.349C167.245 572.113 173.028 573.766 170.899 576.8" stroke="black" stroke-linecap="round" stroke-linejoin="round"/>
<path d="M161.175 564.153C161.44 565.947 161.904 567.705 162.558 569.396C163.384 570.985 168.913 572.701 167.801 577.118" stroke="black" stroke-linecap="round" stroke-linejoin="round"/>
<path d="M168.627 564.71C168.627 564.71 168.071 560.293 167.801 558.64C167.603 557.059 167.507 555.467 167.515 553.874" stroke="black" stroke-linecap="round" stroke-linejoin="round"/>
<path d="M259.108 371.72C251.854 366.053 243.351 362.201 234.307 360.487C218.801 357.389 198.258 362.425 190.123 367.843C187.695 369.544 185.649 371.732 184.114 374.268C182.579 376.803 181.59 379.632 181.21 382.571L259.108 371.72Z" fill="white" stroke="black" stroke-linecap="round" stroke-linejoin="round"/>
<path d="M323.057 324.438C322.642 322.919 322.642 321.317 323.057 319.798C323.835 318.209 324.217 313.586 325.376 312.426C326.536 311.266 335.068 306.611 341.264 309.328C347.461 312.045 350.575 323.627 351.734 326.376C352.894 329.124 349.415 335.289 347.858 336.067C346.301 336.846 344.76 331.412 343.203 329.871C341.646 328.33 328.443 322.118 323.057 324.438Z" fill="white" stroke="black" stroke-linecap="round" stroke-linejoin="round"/>
<path d="M220.739 370.957C219.15 371.338 189.726 375.215 176.555 379.091C163.384 382.968 152.532 388.005 152.135 393.041C151.738 398.077 141.014 491.959 140.601 497.392C140.188 502.826 144.096 534.205 146.034 535.364C147.973 536.524 156.886 537.303 159.984 536.143C161.91 535.391 163.635 534.199 165.02 532.663L166.18 506.687C166.18 506.687 166.959 515.6 168.5 515.997C187.833 521.071 207.897 522.775 227.809 521.034C261.174 518.317 275.091 513.28 277.792 511.342C280.493 509.404 280.128 503.589 280.128 503.589C280.128 503.589 280.509 499.331 280.509 495.057C280.509 490.783 268.069 405.052 268.069 405.052C268.069 405.052 319.228 391.103 323.104 386.448C326.981 381.792 345.586 331.031 345.586 327.154C345.586 323.277 337.054 317.462 330.858 317.081C324.661 316.7 309.536 347.268 306.057 349.635C302.577 352.003 269.229 365.142 256.804 367.462C244.38 369.781 220.739 370.957 220.739 370.957Z" fill="#1400FF" stroke="black" stroke-linecap="round" stroke-linejoin="round"/>
<path d="M208.458 397.22C208.458 397.22 213.701 417.874 229.112 426.31" stroke="black" stroke-linecap="round" stroke-linejoin="round"/>
<path d="M231.146 435.462C232.311 436.066 233.502 436.653 234.72 437.225" stroke="black" stroke-linecap="round" stroke-linejoin="round"/>
<path d="M208.458 418.637C213.576 423.835 219.3 428.401 225.505 432.237" stroke="black" stroke-linecap="round" stroke-linejoin="round"/>
<path d="M270.023 420.766L268.069 405.053L249.003 412.107L256.391 415.142C252.785 418.319 248.066 422.799 250.989 422.275C254.842 421.132 258.543 419.531 262.016 417.509L270.023 420.766Z" fill="black" stroke="black" stroke-linecap="round" stroke-linejoin="round"/>
<path d="M162.685 495.454C162.685 488.479 166.085 417.461 166.085 417.461L164.925 412.424L156.33 398.729L160.905 425.214C157.267 424.086 149.943 422.148 152.707 425.85C155.272 428.961 158.182 431.77 161.382 434.223L158.776 486.748C158.558 491.132 159.63 495.485 161.859 499.267L164.528 503.811C163.314 501.192 162.685 498.341 162.685 495.454Z" fill="black" stroke="black" stroke-linecap="round" stroke-linejoin="round"/>
<path d="M164.528 503.875C164.952 504.868 165.485 505.811 166.117 506.687L164.528 503.875Z" fill="black" stroke="black" stroke-linecap="round" stroke-linejoin="round"/>
<path d="M278.571 501.651C219.277 528.39 166.18 506.687 166.18 506.687C166.18 506.687 166.959 515.6 168.5 515.997C187.833 521.071 207.897 522.775 227.809 521.034C261.174 518.317 275.091 513.28 277.792 511.342C280.493 509.404 280.128 503.589 280.128 503.589C280.128 503.589 280.128 502.699 280.287 501.317L278.571 501.651Z" fill="white" stroke="black" stroke-linecap="round" stroke-linejoin="round"/>
<path d="M141.76 531.488C141.76 531.488 150.674 535.365 158.045 533.077C165.417 530.789 167.34 528.422 168.5 528.819C169.66 529.216 169.675 538.495 168.5 541.211C167.324 543.928 164.623 545.866 156.488 546.645C148.354 547.423 144.096 543.467 143.317 541.211C142.593 538.007 142.073 534.759 141.76 531.488Z" fill="white" stroke="black" stroke-linecap="round" stroke-linejoin="round"/>
<path d="M109.699 744.258C141.542 744.258 167.356 736.248 167.356 726.368C167.356 716.488 141.542 708.479 109.699 708.479C77.8557 708.479 52.0417 716.488 52.0417 726.368C52.0417 736.248 77.8557 744.258 109.699 744.258Z" fill="#1400FF"/>
<path opacity="0.5" d="M109.699 744.258C141.542 744.258 167.356 736.248 167.356 726.368C167.356 716.488 141.542 708.479 109.699 708.479C77.8557 708.479 52.0417 716.488 52.0417 726.368C52.0417 736.248 77.8557 744.258 109.699 744.258Z" fill="white"/>
<path d="M118.803 320.259C118.803 320.259 123.569 325.915 123.331 328.203C123.143 330.771 123.754 333.335 125.078 335.543C126.206 336.957 129.32 338.085 129.32 340.627C129.215 342.345 128.625 343.997 127.62 345.394C127.62 345.394 128.764 356.722 127.62 359.55C126.476 362.378 121.964 362.378 119.422 362.378C116.88 362.378 115.466 362.092 114.656 362.092C113.846 362.092 108.714 357.564 104.758 347.666C100.802 337.767 105.33 323.039 108.714 321.069C112.098 319.099 118.803 320.259 118.803 320.259Z" fill="white" stroke="black" stroke-linecap="round" stroke-linejoin="round"/>
<path d="M116.832 337.529L128.431 331.015" stroke="black" stroke-linecap="round" stroke-linejoin="round"/>
<path d="M123.331 329.887C123.331 329.887 129.559 328.187 127.303 337.243" stroke="black" stroke-linecap="round" stroke-linejoin="round"/>
<path d="M106.41 371.02L104.646 392.072L82.2922 386.797V370.131C82.2922 370.131 98.0689 366.619 106.41 371.02Z" fill="white" stroke="black" stroke-linecap="round" stroke-linejoin="round"/>
<path d="M104.106 310.822C99.9588 311.889 95.6505 312.185 91.396 311.695C84.8502 310.822 70.4558 312.569 66.5315 322.181C62.6072 331.794 67.4053 340.5 66.9605 343.122C66.5156 345.743 59.5408 349.667 59.5408 353.608C59.5408 357.548 62.5913 361.027 61.2885 364.078C59.9857 367.128 57.7932 369.75 59.5408 372.8C61.2885 375.851 68.2792 370.624 69.0736 373.674C69.8679 376.724 76.4932 380.665 79.5595 380.665C82.6259 380.665 86.1053 374.119 87.853 376.724C89.6007 379.33 93.0801 381.967 96.5754 381.491C100.071 381.014 101.803 372.991 109.286 376.248C116.769 379.505 119.152 372.689 118.818 366.715C118.564 361.027 111.844 353.179 113.146 348.809C114.449 344.44 117.071 341.39 116.197 336.592C115.323 331.794 111.431 330.046 113.575 326.551C115.72 323.055 118.818 323.071 119.692 318.702C120.566 314.333 118.818 308.661 112.273 307.787C105.727 306.913 104.106 310.822 104.106 310.822Z" fill="black" stroke="black" stroke-linecap="round" stroke-linejoin="round"/>
<path d="M64.7044 533.728C64.7044 533.728 70.853 568.808 67.7866 602.586C66.5474 616.138 59.8427 619.697 58.1268 637.666C56.4109 655.636 62.5119 692.051 59.4455 711.354C59.0324 713.992 55.9343 720.569 59.4455 724.065C62.9567 727.56 75.238 725.383 78.7493 725.383C82.2605 725.383 90.5857 724.065 91.4595 721.872C92.3334 719.679 86.2007 717.487 82.2605 710.036C77.7757 701.508 75.3696 692.041 75.238 682.407C75.238 672.318 81.3708 643.815 86.2007 620.571C91.0306 597.327 93.6521 584.601 93.6521 571.446V530.137C93.6521 527.945 81.8156 522.686 72.6007 524.434C63.3857 526.181 64.7044 533.728 64.7044 533.728Z" fill="white" stroke="black" stroke-linecap="round" stroke-linejoin="round"/>
<path d="M82.2922 710.036C81.609 708.765 80.9735 707.398 80.3698 705.984C79.2259 708.399 78.781 711.291 76.5885 711.799C72.6324 712.673 59.4773 711.354 59.4773 711.354C59.0483 713.992 55.9661 720.569 59.4773 724.065C62.9885 727.56 75.2698 725.383 78.781 725.383C82.2922 725.383 90.6175 724.065 91.4913 721.872C92.3651 719.68 86.2324 717.551 82.2922 710.036Z" fill="#1400FF" stroke="black" stroke-linecap="round" stroke-linejoin="round"/>
<path d="M76.2389 692.384C75.6136 689.095 75.2892 685.755 75.2698 682.407C75.2698 672.318 81.4025 643.815 86.2324 620.571C91.0623 597.327 93.6838 584.601 93.6838 571.446V530.137C93.6838 527.945 81.8473 522.686 72.6324 524.434C63.4174 526.181 64.6885 533.649 64.6885 533.649C64.6885 533.649 70.8371 568.729 67.7707 602.507C66.5315 616.059 59.8268 619.618 58.1109 637.587C56.8399 650.647 59.6997 673.414 60.224 692.305C65.4767 693.631 70.9733 693.658 76.2389 692.384Z" fill="black" stroke="black" stroke-linecap="round" stroke-linejoin="round"/>
<path d="M59.0483 684.186C62.3701 684.866 65.7364 685.307 69.1212 685.505C71.9693 685.313 74.7767 684.725 77.4623 683.757L78.781 695.165C74.7811 696.348 70.662 697.084 66.4997 697.357C64.2693 697.516 62.0302 697.213 59.9221 696.468C59.9221 696.468 59.0483 687.666 59.0483 684.186Z" fill="white" stroke="black" stroke-linecap="round" stroke-linejoin="round"/>
<path d="M59.938 501.269C59.938 501.269 57.3007 518.746 59.938 527.579C62.5754 536.413 69.582 548.647 71.3455 552.142C73.1091 555.637 75.2857 566.616 75.2857 568.808C75.2857 571.001 77.0334 596.882 74.4119 610.037C71.7904 623.192 68.7081 630.691 68.7081 643.402C68.7081 656.112 74.8408 703.601 74.8408 711.926C74.8408 720.251 71.7745 730.785 73.967 732.977C76.1595 735.17 113.877 730.706 117.389 729.387C118.058 729.136 118.66 728.735 119.15 728.215C119.64 727.695 120.004 727.07 120.215 726.387C120.425 725.704 120.476 724.982 120.363 724.276C120.251 723.571 119.978 722.9 119.565 722.317C118.246 720.569 102.454 715.39 99.8324 713.197C97.2109 711.005 95.4474 703.982 95.0661 700.916C94.6848 697.849 95.9399 650.806 97.7035 640.288C99.467 629.77 106.474 609.148 110.414 597.74C114.354 586.333 121.376 545.993 121.376 531.52C121.383 522.876 120.948 514.238 120.074 505.638C120.074 505.638 79.21 508.72 59.938 501.269Z" fill="white" stroke="black" stroke-linecap="round" stroke-linejoin="round"/>
<path d="M117.373 729.355C118.038 729.105 118.638 728.706 119.126 728.189C119.614 727.672 119.978 727.051 120.189 726.372C120.401 725.693 120.454 724.975 120.346 724.272C120.238 723.569 119.971 722.901 119.565 722.317C118.246 720.569 102.454 715.39 99.8324 713.197C99.4171 712.836 99.0535 712.419 98.7521 711.958L97.6399 718.901C94.898 721.109 91.5001 722.344 87.9801 722.412C83.5951 722.412 77.1446 719.552 74.396 718.234C73.6493 724.875 72.0922 731.516 73.9511 732.93C82.8642 739.793 113.861 730.674 117.373 729.355Z" fill="#1400FF" stroke="black" stroke-linecap="round" stroke-linejoin="round"/>
<path d="M94.8913 699.295C94.7642 690.906 96.0035 649.916 97.6081 640.304C99.3558 629.77 106.378 609.163 110.318 597.756C114.259 586.349 121.281 546.009 121.281 531.535C121.287 522.892 120.853 514.253 119.978 505.654C119.978 505.654 79.21 508.72 59.938 501.269C59.938 501.269 57.3007 518.746 59.938 527.579C62.5754 536.413 69.582 548.647 71.3455 552.142C73.1091 555.637 75.2857 566.616 75.2857 568.808C75.2857 571.001 77.0334 596.882 74.4119 610.037C71.7904 623.192 68.7081 630.691 68.7081 643.402C68.7081 652.41 71.7904 681.723 73.5857 697.643C78.5698 699.039 83.6985 699.855 88.8698 700.074C90.9009 700.056 92.9225 699.794 94.8913 699.295Z" fill="black" stroke="black" stroke-linecap="round" stroke-linejoin="round"/>
<path d="M73.5221 703.124C76.4515 704.276 79.5736 704.858 82.7212 704.84C87.9801 704.84 95.8763 706.143 95.4315 703.522C95.2944 699.714 95.4377 695.901 95.8605 692.114C95.8605 692.114 86.2165 693.433 80.5128 692.559C74.809 691.685 71.3137 691.24 71.3137 691.24C71.3137 691.24 72.2034 700.503 73.5221 703.124Z" fill="white" stroke="black" stroke-linecap="round" stroke-linejoin="round"/>
<path d="M109.476 396.886C104.935 391.081 98.6184 386.924 91.4913 385.049C79.6549 381.983 68.2474 399.523 65.181 409.167C62.1147 418.811 61.6698 444.692 57.2371 457.847C52.8044 471.003 49.7857 497.329 51.5334 500.395C53.281 503.461 91.0147 513.105 104.17 513.105C117.325 513.105 131.433 502.588 131.846 497.329C132.26 492.07 129.654 456.989 127.461 438.115C125.269 419.24 109.476 396.886 109.476 396.886Z" fill="#1400FF" stroke="black" stroke-linecap="round" stroke-linejoin="round"/>
<path d="M103.63 542.784C103.63 542.784 103.487 548.869 103.63 552.444C103.715 555.715 103.264 558.978 102.295 562.104C101.548 564.471 99.7689 566.107 99.6259 564.471C99.4829 562.835 100.214 559.864 100.214 558.529C100.214 557.194 99.7689 551.109 99.7689 551.109C99.4334 553.307 98.988 555.486 98.4343 557.639C97.5446 561.055 95.0184 564.614 93.8268 564.916C92.6352 565.218 91.8885 564.169 92.4922 562.549C93.096 560.928 94.5735 556.193 94.7165 555.113C94.8595 554.033 94.8913 550.728 94.8913 550.728C93.767 554.124 92.4298 557.446 90.8876 560.674C89.696 562.469 89.553 563.359 88.3614 563.502C87.1698 563.645 87.3287 561.119 88.0595 559.196C88.9233 556.325 89.5712 553.394 89.9978 550.426C89.9978 549.838 88.6633 553.095 87.0268 554.891C85.3904 556.686 84.1988 558.148 83.452 557.862C82.7053 557.576 83.7539 554.684 84.3576 553.397C85.0576 551.836 85.5542 550.191 85.8352 548.504V544.643C85.8352 544.643 84.5006 541.656 90.7446 540.623C96.9885 539.591 102.295 538.399 103.63 542.784Z" fill="white" stroke="black" stroke-linecap="round" stroke-linejoin="round"/>
<path d="M81.8633 538.558C81.483 539.65 81.463 540.835 81.8062 541.939C82.1494 543.042 82.8376 544.007 83.7698 544.691C87.0427 546.883 98.7203 548.647 102.454 545.136C104.564 543.37 105.904 540.851 106.188 538.113L81.8633 538.558Z" fill="white" stroke="black" stroke-linecap="round" stroke-linejoin="round"/>
<path d="M85.3586 402.145C85.3586 402.145 75.7146 417.938 75.7146 428.026C75.7146 438.115 70.4399 508.721 70.0109 517.507C69.5819 526.293 70.4399 533.283 75.7146 537.668C80.9894 542.053 102.454 542.053 108.158 539.861C113.861 537.668 119.12 527.58 119.12 520.573C119.12 513.566 112.543 461.788 111.176 451.715C109.81 441.642 109.413 414.871 105.473 408.738C101.532 402.606 100.198 402.145 100.198 402.145" fill="#1400FF"/>
<path d="M85.3586 402.145C85.3586 402.145 75.7146 417.938 75.7146 428.026C75.7146 438.115 70.4399 508.721 70.0109 517.507C69.5819 526.293 70.4399 533.283 75.7146 537.668C80.9894 542.053 102.454 542.053 108.158 539.861C113.861 537.668 119.12 527.58 119.12 520.573C119.12 513.566 112.543 461.788 111.176 451.715C109.81 441.642 109.413 414.871 105.473 408.738C101.532 402.606 100.198 402.145 100.198 402.145" stroke="black" stroke-linecap="round" stroke-linejoin="round"/>
<path d="M70.9483 501.619C70.9483 501.619 73.6334 440.498 75.7147 428.026C77.0929 420.167 79.5133 412.526 82.9119 405.307" stroke="#636363" stroke-linecap="round" stroke-linejoin="round"/>
<path d="M102.835 405.878C102.835 405.878 110.414 420.448 110.779 436.065C111.145 451.683 116.483 501.603 116.483 501.603" stroke="#636363" stroke-linecap="round" stroke-linejoin="round"/>
<path d="M109.047 421.004L110.35 412.234" stroke="#636363" stroke-linecap="round" stroke-linejoin="round"/>
</svg>
